<svg viewBox="0 0 24 24" xmlns="http://www.w3.org/2000/svg"><path d="M14.04 4.444c-1.823.203-3.217.826-4.558 2.037l-.307.276-.491-.045c-1.116-.102-2.34.136-3.384.658-1.803.902-3.035 2.494-3.469 4.484-.076.35-.088.527-.088 1.286 0 .756.012.936.087 1.28.13.595.311 1.104.576 1.628.331.651.655 1.093 1.214 1.654a6.301 6.301 0 0 0 3.842 1.856c.219.025 1.778.041 4.021.042 3.883 0 4.039-.006 4.91-.196 2.677-.585 4.979-2.813 5.65-5.469.183-.724.25-1.393.225-2.255-.022-.771-.076-1.149-.256-1.777-.74-2.589-2.97-4.7-5.575-5.277-.866-.192-1.724-.257-2.397-.182m1.951 1.55c.554.12.854.227 1.429.508 3.311 1.62 4.418 5.829 2.347 8.92-1.414 2.112-3.967 3.127-6.487 2.58-.733-.16-1.516-.507-2.082-.925-.421-.31-3.783-3.641-3.863-3.826-.221-.515.316-1.101.852-.93.12.038.517.411 1.853 1.738.935.928 1.817 1.77 1.96 1.87.789.551 1.725.83 2.786.831 1.273 0 2.385-.477 3.279-1.409.925-.965 1.375-2.081 1.375-3.412 0-1.231-.421-2.25-1.319-3.195a4.727 4.727 0 0 0-1.914-1.229A4.436 4.436 0 0 0 14.7 7.28c-.938 0-1.712.214-2.521.698l-.12.073-.4-.262a7.722 7.722 0 0 0-.629-.373c-.127-.062-.23-.125-.23-.141 0-.052.539-.425.912-.631a6.01 6.01 0 0 1 1.988-.708c.485-.08 1.812-.047 2.291.058M8.999 8.222a4.789 4.789 0 0 1 2.06.872c.356.262 2.603 2.484 2.737 2.706.099.165.112.47.028.632a.748.748 0 0 1-.471.369c-.348.087-.37.072-1.733-1.28-.682-.676-1.321-1.283-1.42-1.35-1.09-.731-2.528-.834-3.659-.263a3.608 3.608 0 0 0-1.888 2.24c-.095.314-.107.419-.109.972-.003.529.01.666.087.932.181.628.445 1.091.888 1.562.732.777 1.686 1.146 2.961 1.146h.323l.709.667c.389.367.715.683.723.704.009.023-.512.029-1.34.017-1.448-.021-1.629-.041-2.274-.253-1.726-.567-3.049-2.092-3.359-3.87-.08-.459-.08-1.311 0-1.77a4.975 4.975 0 0 1 2.117-3.236c1.049-.698 2.4-.995 3.62-.797" fill-rule="evenodd"/></svg>