<svg viewBox="0 0 24 24" xmlns="http://www.w3.org/2000/svg"><path d="M2.2 11.988c0 5.016.015 8.612.035 8.59.026-.027 7.025-16.73 7.194-17.168.016-.04-.722-.05-3.605-.05H2.2v8.628m12.373-8.572c.157.408 7.165 17.135 7.191 17.162.021.022.036-3.501.036-8.59V3.36h-3.624c-3.098 0-3.621.008-3.603.056m-3.146 7.67L9.846 14.8l-.996 2.34 1.685.011 1.685.01.248.63.696 1.759.446 1.13h1.495c1.041 0 1.495-.013 1.495-.043 0-.024-1.007-2.431-2.238-5.35l-2.294-5.441-.056-.133-.585 1.373" fill-rule="evenodd"/></svg>