<svg viewBox="0 0 24 24" xmlns="http://www.w3.org/2000/svg"><path d="M11.363 2.924a2.775 2.775 0 0 0-.973.392c-.38.249-.869.778-1.18 1.279-.403.648-3.122 6.116-4.329 8.705-1.242 2.664-1.373 3.043-1.373 3.98.001 1.074.394 1.99 1.18 2.744a3.914 3.914 0 0 0 1.965 1.033c.387.08 1.194.081 1.567.002 1.118-.237 2.198-.889 3.345-2.022l.435-.43.445.438c1.153 1.133 2.222 1.779 3.336 2.014.372.079 1.179.078 1.566-.002 1.513-.312 2.716-1.463 3.052-2.917.191-.829.116-1.609-.248-2.558-.334-.874-1.833-4.026-3.511-7.382-1.784-3.568-2.024-3.992-2.577-4.541a2.55 2.55 0 0 0-1.311-.718c-.333-.066-1.094-.075-1.389-.017m1.002 1.156c.57.107 1.015.464 1.419 1.14.31.52 3.212 6.316 3.954 7.9l.712 1.52c.373.794.758 1.74.813 2 .073.343.071.916-.005 1.24a2.79 2.79 0 0 1-.985 1.499c-1.491 1.121-3.197.697-5.119-1.273l-.386-.395.353-.465c1.409-1.865 2.13-3.706 1.962-5.014-.095-.742-.371-1.324-.861-1.814-.628-.628-1.398-.898-2.414-.845-.537.027-.829.096-1.236.291-.736.351-1.292 1.025-1.533 1.857-.123.423-.152 1.251-.062 1.733.202 1.071.923 2.493 1.959 3.861l.298.393-.487.483c-.906.9-1.485 1.306-2.252 1.581a3.114 3.114 0 0 1-1.153.192c-.44 0-.768-.075-1.162-.265-.905-.436-1.5-1.41-1.5-2.454 0-.655.15-1.078 1.122-3.165 1.157-2.486 3.938-8.094 4.432-8.938.498-.851 1.251-1.226 2.131-1.062m.214 6.701c.465.122.859.428 1.117.868.5.855.148 2.412-.912 4.031-.296.452-.751 1.079-.784 1.079-.037 0-.642-.835-.88-1.213-.285-.453-.635-1.147-.77-1.526-.201-.561-.28-1.015-.264-1.509.013-.417.024-.474.147-.723.249-.505.676-.871 1.171-1.005.288-.077.881-.078 1.175-.002" fill-rule="evenodd"/></svg>