<svg viewBox="0 0 24 24" xmlns="http://www.w3.org/2000/svg"><path d="M5.448 9.409c-.064.249-.273.461-.489.496-.203.032-.203.078 0 .11.209.034.417.241.494.494.037.12.06.157.063.099.005-.12.134-.368.24-.464a.788.788 0 0 1 .274-.126c.189-.05.182-.066-.049-.118-.175-.038-.409-.303-.45-.509l-.035-.171-.048.189M1.3 11.505c-.369.96-.679 1.779-.69 1.82-.017.067.006.075.202.075h.22l.17-.44.169-.44h1.698l.169.44.17.44h.216c.119 0 .216-.016.216-.036 0-.027-1.111-2.956-1.326-3.494-.041-.104-.058-.11-.294-.11h-.25l-.67 1.745m2.82.075v1.82h.48V9.76h-.48v1.82m2.28 0v1.82h2.28v-.48h-1.8V11.8h1.48v-.48H6.88v-1.08h1.68v-.48H6.4v1.82m-3.865-.458c.164.428.31.81.326.848.026.065-.02.07-.641.07s-.667-.005-.64-.07l.33-.861c.166-.435.307-.785.314-.778.007.007.147.363.311.791m10.325-.403c-.437.065-.844.384-1.048.821l-.112.24-.012 1.49-.012 1.49h.484V13.033l.119.1c.308.259.881.341 1.298.185.271-.102.596-.388.722-.635.307-.606.133-1.357-.4-1.723a1.416 1.416 0 0 0-1.039-.241m3.021.005a1.348 1.348 0 0 0-.372.155 1.712 1.712 0 0 1-.212.121c-.009 0-.017-.054-.017-.12v-.12h-.48v2.64h.474l.013-.79c.012-.757.017-.797.113-.966a.908.908 0 0 1 .591-.453l.209-.05v-.23c0-.257.009-.251-.319-.187m1.556-.004c-.356.061-.69.276-.897.578-.368.538-.311 1.228.141 1.718.34.369.851.526 1.323.407.253-.064.649-.296.691-.404.012-.033-.044-.107-.139-.182l-.16-.127-.088.08a.922.922 0 0 1-1.426-.24l-.12-.21 1.069-.02 1.069-.02-.007-.329c-.005-.255-.028-.378-.104-.543a1.249 1.249 0 0 0-1.352-.708m2.473 0c-.456.08-.798.481-.729.853.064.337.334.54.869.652.326.068.481.14.568.264.089.127.077.247-.037.383-.228.271-.804.235-1.076-.067l-.075-.083-.172.124c-.099.071-.163.146-.152.176.039.102.436.336.672.397.465.119.835.043 1.119-.231.25-.241.322-.531.201-.818-.122-.293-.304-.407-.85-.532-.45-.104-.608-.196-.608-.354 0-.175.036-.24.174-.311.252-.131.656-.063.84.141l.074.082.156-.104c.086-.056.156-.126.156-.154 0-.028-.058-.1-.13-.161a1.22 1.22 0 0 0-1-.257m2.286-.001a.877.877 0 0 0-.565.314.652.652 0 0 0-.153.64c.06.223.272.39.622.49l.484.139c.254.073.353.177.348.363-.012.42-.679.539-1.083.193l-.158-.135-.166.127c-.091.07-.165.14-.165.157 0 .077.402.323.651.399.81.246 1.573-.283 1.39-.963-.085-.316-.338-.485-.923-.618-.417-.094-.558-.185-.558-.36 0-.188.105-.299.32-.337a.777.777 0 0 1 .642.148l.138.115.149-.105c.082-.059.15-.127.15-.153.001-.061-.277-.279-.445-.35a1.324 1.324 0 0 0-.678-.064m-13.251.091c.016.028.233.315.482.638.249.324.453.608.453.632 0 .024-.204.308-.453.632-.249.323-.466.61-.482.638-.023.038.035.05.243.048l.272-.002.36-.474c.247-.326.374-.463.405-.437.025.02.196.234.379.476l.334.439h.551l-.112-.15a95.24 95.24 0 0 0-.507-.66l-.394-.51.394-.51c.217-.28.445-.578.507-.66l.112-.15h-.551l-.334.439a7.466 7.466 0 0 1-.379.476c-.031.026-.158-.111-.405-.437l-.36-.474-.272-.002c-.208-.002-.266.01-.243.048m-3.696 1.28.011 1.29.23.012.23.012V10.8h-.481l.01 1.29m8.242-.876c.368.154.566.465.568.889.001.247-.015.309-.12.479a.948.948 0 0 1-1.642-.031.96.96 0 0 1 .403-1.325c.15-.079.615-.086.791-.012m4.46.008a.749.749 0 0 1 .464.548l.027.11H16.755l.028-.09c.147-.469.728-.752 1.168-.568" fill-rule="evenodd"/></svg>