<svg viewBox="0 0 24 24" xmlns="http://www.w3.org/2000/svg"><path d="M8.525 2.276c-.03.019-.055.079-.055.134 0 .081.417.883.735 1.415l.075.125-.332.187c-1.3.729-2.149 1.852-2.346 3.103-.045.285-.056.917-.018 1.017.022.057.535.063 5.397.063h5.373l.028-.225a3.09 3.09 0 0 0 .003-.53c-.115-1.363-.914-2.552-2.256-3.353l-.406-.243c-.047-.028.009-.155.284-.652.5-.9.488-.873.438-.983-.055-.119-.167-.12-.273-.004-.045.05-.249.392-.452.761-.204.369-.383.678-.398.688-.015.009-.195-.037-.4-.102-.589-.19-1.208-.28-1.922-.28-.83-.001-1.451.095-2.116.325-.138.048-.266.071-.284.052a18.332 18.332 0 0 1-.419-.734c-.442-.797-.499-.864-.656-.764m1.239 3.255a.515.515 0 0 1 .192.254c.052.147.05.176-.02.318a.488.488 0 0 1-.233.233c-.142.07-.171.072-.318.02-.328-.114-.442-.503-.218-.744.178-.192.389-.221.597-.081m4.895-.034c.239.1.334.427.193.666-.069.117-.268.237-.392.237s-.323-.12-.392-.237c-.138-.234-.047-.564.185-.664.163-.072.239-.072.406-.002M4.5 8.555c-.221.101-.39.251-.533.475-.253.398-.25.366-.238 3.274l.011 2.636.125.264c.153.322.359.535.646.666.185.085.259.097.491.081.563-.041.991-.48 1.118-1.149.055-.294.054-4.874-.002-5.177-.091-.489-.362-.875-.738-1.051-.253-.118-.644-.127-.88-.019m14.12.019c-.376.176-.647.562-.738 1.051-.056.303-.057 4.883-.002 5.177.086.452.333.828.675 1.03.16.093.229.108.505.108.232 0 .361-.021.47-.074.235-.118.467-.37.604-.66l.126-.266.011-2.639c.011-2.565.009-2.647-.071-2.91-.224-.737-.949-1.112-1.58-.817M6.56 12.773c0 3.488.008 4.039.061 4.219.086.29.415.639.748.792l.251.116.98-.012c.539-.007 1.703 0 2.587.015l1.607.026.014 1.366c.014 1.313.018 1.374.106 1.595.26.652.835.984 1.413.816.258-.076.545-.309.697-.569.197-.337.215-.493.216-1.906v-1.31l-1.19-.013c-.73-.009-.525-.013.53-.011 1.705.003 1.722.002 1.948-.089.303-.122.6-.396.74-.68l.112-.228.011-4.07.01-4.07H6.56v4.013m2.2 6.419c0 .999.013 1.32.06 1.501.118.452.322.739.656.921.268.146.529.174.823.088.311-.09.645-.415.784-.762.095-.235.097-.267.109-1.63l.012-1.39H8.76v1.272" fill-rule="evenodd"/></svg>