<svg viewBox="0 0 24 24" xmlns="http://www.w3.org/2000/svg"><path d="M15.46 2.565c-.797.116-1.768.644-2.368 1.288a4.092 4.092 0 0 0-.754 1.122c-.25.528-.341.884-.367 1.434-.026.56-.041.545.467.478 1.441-.192 2.69-1.32 3.175-2.869.186-.593.256-1.52.113-1.493l-.266.04m-.62 4.581c-.379.075-.829.214-1.4.432-1.378.525-1.293.527-2.815-.057-.773-.296-.969-.336-1.645-.334-.737.002-1.162.1-1.836.426-1.521.734-2.474 2.13-2.789 4.087-.067.413-.068 1.773-.002 2.24.361 2.558 1.54 5.048 3.144 6.64.684.679 1.078.874 1.763.874.427 0 .629-.057 1.698-.474.536-.209.858-.269 1.442-.267.603.003.872.065 1.648.383.659.27.95.343 1.374.343.903.002 1.599-.452 2.477-1.616.595-.789 1.115-1.661 1.443-2.423.161-.374.338-.867.338-.942 0-.027-.058-.072-.128-.101-.276-.115-.868-.544-1.175-.852a3.821 3.821 0 0 1-.823-1.169c-.396-.844-.488-1.987-.233-2.88.245-.857.878-1.743 1.631-2.285.138-.099.246-.195.24-.213a3.695 3.695 0 0 0-.232-.301c-.556-.676-1.391-1.184-2.336-1.423-.247-.062-.486-.085-1.004-.095a8.813 8.813 0 0 0-.78.007" fill-rule="evenodd"/></svg>