<svg viewBox="0 0 24 24" xmlns="http://www.w3.org/2000/svg"><path d="M2.454 5.242a1.372 1.372 0 0 0-.979.821L1.38 6.3v11.4l.097.24c.123.308.461.655.743.763.195.075.431.077 9.677.087 10.313.012 9.733.024 10.096-.206.218-.137.431-.399.537-.661l.09-.223.012-5.46c.008-3.61-.002-5.566-.03-5.773-.05-.379-.143-.601-.345-.825a1.313 1.313 0 0 0-.756-.398c-.283-.053-18.783-.055-19.047-.002m19.177.493c.218.095.428.34.485.565.061.241.062 11.091.002 11.374a.854.854 0 0 1-.508.593c-.182.07-.58.073-9.61.073s-9.428-.003-9.61-.073a.886.886 0 0 1-.506-.567c-.062-.245-.062-11.152 0-11.397a.917.917 0 0 1 .41-.53 1.31 1.31 0 0 1 .366-.095c.132-.015 4.416-.026 9.52-.023 8.967.005 9.286.008 9.451.08M7.214 8.977c-.46.144-.814.593-.814 1.032 0 .157.001.157.13.129.519-.112.91-.569.91-1.065 0-.17.005-.168-.226-.096M9.4 11.738v2.422h.76v-1.64h.575c.647 0 .906-.038 1.209-.177.738-.338 1.081-1.259.774-2.08-.111-.296-.438-.649-.745-.805l-.233-.118-1.17-.012-1.17-.012v2.422m2.156-1.7c.329.17.484.45.483.871-.001.318-.085.53-.284.719-.216.205-.409.252-1.04.252h-.555V9.963l.43-.015c.571-.019.792.001.966.09m-4.696.281c-.198.066-.398.12-.445.121-.047 0-.209-.047-.36-.104-.708-.268-1.433.069-1.657.77a3.093 3.093 0 0 0-.062 1.383c.085.381.282.791.56 1.167.402.544.608.626 1.121.449.381-.132.619-.133.959-.005.146.055.324.1.395.099.315-.001.703-.392 1.01-1.016l.176-.358-.193-.13a1.168 1.168 0 0 1-.119-1.835l.163-.147-.133-.138a1.284 1.284 0 0 0-.805-.36c-.201-.014-.32.007-.61.104m7.26.296c-.432.125-.752.393-.88.735-.125.334-.129.33.261.33.289 0 .345-.011.366-.07a.9.9 0 0 1 .333-.39c.166-.086.58-.076.787.018.204.092.294.25.323.566l.021.23-.136.021a9.553 9.553 0 0 1-.595.046c-.547.029-.798.077-1.04.2-.359.182-.521.453-.519.868.001.417.203.749.574.941.175.091.255.107.545.107.473 0 .793-.148 1.05-.486l.11-.145v.574h.72v-1.293c0-1.48-.018-1.598-.283-1.885-.248-.27-.568-.393-1.057-.408-.247-.007-.469.008-.58.041m2.255.087c.024.061.816 2.257 1.104 3.058l.15.42-.07.215a1.014 1.014 0 0 1-.195.339c-.109.11-.154.125-.405.139l-.282.016.011.286.012.285.273.012c.563.024.941-.183 1.191-.652.114-.214 1.408-3.744 1.506-4.11.017-.063-.018-.07-.365-.07-.212 0-.385.009-.385.02 0 .05-.851 2.763-.875 2.789-.014.015-.223-.61-.465-1.39l-.438-1.419h-.395c-.341 0-.392.009-.372.062m-1.065 2.096c-.028.302-.159.543-.382.699-.344.242-.95.168-1.107-.135-.13-.252-.027-.533.242-.661.137-.065.536-.113 1.113-.135l.155-.006-.021.238" fill-rule="evenodd"/></svg>