<svg viewBox="0 0 24 24" xmlns="http://www.w3.org/2000/svg"><path d="M1.62 8.757a.806.806 0 0 0-.616.583c-.061.222-.061 5.098 0 5.32a.83.83 0 0 0 .408.51l.168.09h20.84l.189-.111a.862.862 0 0 0 .3-.3l.111-.189V9.34l-.111-.189a.862.862 0 0 0-.3-.3l-.189-.111-10.34-.006c-5.687-.003-10.394.007-10.46.023m20.876.179c.073.03.185.124.249.207l.115.151v5.412l-.115.151c-.236.31.786.282-10.625.294-7.242.007-10.281-.003-10.43-.033a.9.9 0 0 1-.332-.146c-.249-.209-.238-.077-.238-2.984V9.332l.091-.135a1.01 1.01 0 0 1 .226-.226l.135-.091h10.395c8.798 0 10.416.009 10.529.056M5.75 10.158c-.21.133-.35.363-.35.576 0 .136.002.137.137.107.288-.065.5-.31.564-.653.026-.137.021-.148-.069-.148-.053 0-.18.053-.282.118m6.21.462c0 .418.01.5.06.5.05 0 .06-.082.06-.5s-.01-.5-.06-.5c-.05 0-.06.082-.06.5m2.56-.32c0 .169-.044.231-.1.14-.014-.022-.085-.04-.159-.04-.345 0-.421.602-.092.717.09.032.146.027.235-.019.067-.035.116-.043.116-.019 0 .023.027.041.06.041.05 0 .06-.082.06-.5s-.01-.5-.06-.5c-.044 0-.06.047-.06.18m3.44.32c0 .418.01.5.06.5.047 0 .06-.055.06-.252 0-.271.042-.348.187-.348.122 0 .173.111.173.377 0 .172.014.223.06.223.048 0 .06-.06.06-.297 0-.335-.05-.423-.24-.423a.283.283 0 0 0-.177.063c-.057.057-.063.044-.063-.14 0-.154-.015-.203-.06-.203-.05 0-.06.082-.06.5m-9.84.02v.48h.283c.26 0 .293-.01.4-.117.102-.102.117-.146.117-.343a.915.915 0 0 0-.041-.302c-.067-.126-.257-.198-.517-.198H8.12v.48m9.32-.32c0 .044-.027.08-.06.08a.06.06 0 0 0-.06.06c0 .033.027.06.06.06.047 0 .06.055.06.252 0 .143.021.273.048.3.069.069.232.061.232-.012 0-.033-.025-.06-.056-.06-.074 0-.104-.089-.104-.303 0-.15.012-.177.08-.177.044 0 .08-.027.08-.06s-.036-.06-.08-.06c-.053 0-.08-.027-.08-.08 0-.044-.027-.08-.06-.08s-.06.036-.06.08m-8.73.1c.104.121.114.257.031.417-.067.13-.132.163-.324.163H8.28v-.731l.17.023a.395.395 0 0 1 .26.128m.508.078c-.133.134-.135.375-.003.528.213.248.585.077.585-.27 0-.321-.359-.48-.582-.258m.703-.068c0 .017.043.174.094.35.072.247.111.323.171.332.065.009.092-.035.158-.26l.079-.272.075.272c.064.233.087.27.157.26.067-.01.1-.077.175-.347.051-.184.084-.344.073-.355-.06-.06-.137.052-.182.267-.029.135-.063.234-.077.221a1.333 1.333 0 0 1-.087-.251c-.048-.172-.082-.227-.138-.227-.056 0-.087.052-.129.22-.031.121-.07.235-.088.253-.018.018-.056-.085-.084-.23-.042-.208-.068-.263-.125-.263-.04 0-.073.013-.072.03m1.199.33c0 .293.011.36.06.36.047 0 .06-.055.06-.252 0-.272.041-.348.189-.348.116 0 .171.13.171.403 0 .148.015.197.06.197.088 0 .086-.568-.003-.657-.086-.087-.322-.082-.374.007-.039.067-.041.067-.042 0 0-.038-.028-.07-.061-.07-.049 0-.06.067-.06.36m1.298-.262c-.139.14-.138.411.003.543.215.202.579.048.579-.245 0-.354-.348-.532-.582-.298m.852-.055c-.038.023-.07.067-.07.099 0 .066.102.079.14.018.037-.06.203-.048.259.018.073.089.013.142-.159.142-.089 0-.182.027-.219.065-.093.093-.061.261.062.33.091.051.119.05.23-.006.07-.034.127-.046.127-.026s.027.037.06.037c.096 0 .085-.565-.013-.654-.081-.073-.309-.086-.417-.023m2.101.036c-.255.237-.106.654.232.654.191 0 .317-.15.317-.377 0-.158-.018-.204-.105-.273-.134-.105-.334-.107-.444-.004m.749.281c0 .333.006.36.08.36.072 0 .08-.027.08-.255 0-.279.05-.36.208-.338.085.012.093.035.104.303.01.257.02.29.09.29.07 0 .078-.029.078-.294 0-.234-.015-.307-.073-.36-.085-.077-.29-.087-.359-.018-.037.037-.048.037-.048 0 0-.026-.036-.048-.08-.048-.074 0-.08.027-.08.36m2.738-.262c-.191.191-.091.575.168.64.121.03.318-.038.35-.122.026-.068-.068-.074-.184-.012-.11.059-.272-.014-.272-.123 0-.072.026-.081.24-.081h.24v-.12c0-.266-.343-.381-.542-.182m-9.26.079c.083.1.064.309-.035.389-.146.118-.298.006-.292-.215.005-.147.073-.231.189-.231.05 0 .112.026.138.057m3.194-.009c.026.026.048.116.048.199 0 .294-.318.354-.38.072-.05-.228.184-.419.332-.271m1.684.09c.048.101.048.132-.001.22-.064.114-.209.153-.297.08-.071-.059-.076-.324-.008-.392.085-.085.244-.037.306.092m1.279-.015c.123.22-.063.466-.258.339-.106-.07-.131-.244-.054-.387.06-.112.238-.085.312.048m3.477-.075c.099.099.053.152-.132.152-.121 0-.18-.017-.18-.052 0-.078.085-.148.18-.148.046 0 .106.022.132.048m-5.592.272c0 .048-.146.2-.192.2a.288.288 0 0 1-.11-.06c-.077-.059-.077-.061 0-.12.087-.067.302-.082.302-.02m-9.14.14c-.238.084-.481.362-.563.643-.139.48-.006 1.108.348 1.637.296.443.446.513.817.383.289-.102.372-.103.684-.005.193.061.278.069.388.038.178-.049.419-.324.592-.674.118-.24.122-.261.056-.3a.806.806 0 0 1-.422-.722c0-.229.12-.502.272-.622.135-.107.093-.179-.191-.328-.261-.136-.49-.143-.831-.023l-.25.088-.25-.088c-.287-.101-.425-.106-.65-.027m9.789.703c-.413.08-.641.464-.471.793.081.156.208.23.57.328.375.102.434.131.513.252.143.218-.118.448-.469.414-.198-.019-.392-.146-.392-.257 0-.035-.054-.053-.16-.053-.192 0-.21.074-.07.281.13.191.345.289.642.291.325.002.516-.065.666-.236.105-.119.122-.17.122-.363 0-.203-.013-.235-.138-.354-.105-.098-.224-.153-.484-.222-.19-.05-.388-.125-.441-.167-.154-.121-.123-.314.066-.411.229-.119.518-.054.629.14.056.1.094.121.215.121.143 0 .146-.003.115-.114-.058-.201-.121-.284-.273-.36a1.02 1.02 0 0 0-.64-.083m-5.667.127c-.118.287-.662 1.82-.662 1.866 0 .032.051.045.15.036.146-.012.152-.018.245-.283l.095-.272.382.012.381.011.099.27c.099.27.099.27.254.27.084 0 .154-.008.154-.018 0-.017-.641-1.803-.701-1.952-.02-.05-.072-.07-.185-.07-.141 0-.164.014-.212.13m6.978.25c0 .165-.008.18-.1.18-.084 0-.1.019-.1.12 0 .1.016.12.095.12.095 0 .096.003.112.525.016.515.018.527.127.62.08.069.159.095.288.095.171 0 .178-.005.178-.12 0-.099-.016-.12-.092-.12-.165 0-.188-.068-.188-.548v-.452h.14c.129 0 .14-.01.14-.12s-.011-.12-.14-.12c-.139 0-.14-.001-.14-.18v-.18h-.32v.18m-6.623.395c.079.217.143.41.143.43 0 .019-.136.035-.303.035-.227 0-.299-.013-.283-.05.011-.027.079-.225.151-.439.072-.213.135-.384.14-.379.006.005.074.187.152.403m.943.765v.98h.32v-.694l.1.094c.15.141.475.158.658.033.219-.149.3-.325.299-.652-.002-.317-.065-.473-.259-.636-.098-.083-.167-.105-.325-.105-.189 0-.433.095-.433.169 0 .017-.018.031-.04.031-.022 0-.04-.045-.04-.1 0-.088-.017-.1-.14-.1h-.14v.98m1.64 0v.98h.28v-.728l.141.124a.404.404 0 0 0 .33.124c.39 0 .609-.27.609-.749 0-.319-.081-.505-.28-.641-.224-.153-.642-.098-.757.1-.034.058-.041.048-.042-.06-.001-.122-.01-.13-.141-.13h-.14v.98m5.118-.89c-.216.146-.298.326-.298.653 0 .239.016.308.106.444.146.219.341.306.64.285.284-.021.419-.109.544-.353.179-.349.073-.83-.226-1.029-.192-.127-.577-.127-.766 0m1.322.65v.74h.32v-.503c0-.276.017-.535.038-.574.048-.088.259-.18.341-.149.047.018.061-.008.061-.115 0-.131-.007-.139-.136-.139-.104 0-.162.03-.24.123l-.104.123v-.123c0-.114-.01-.123-.14-.123H18v.74m1.156-.65c-.398.265-.415 1.002-.031 1.282.121.088.404.13.611.091.156-.029.424-.255.424-.358 0-.108-.248-.085-.36.035-.191.203-.614.06-.648-.22l-.012-.1.532-.011.533-.011-.027-.189c-.057-.4-.282-.609-.658-.609-.17 0-.263.023-.364.09m-8.357.209c.243.126.27.628.044.83-.139.124-.236.138-.397.054-.139-.072-.206-.217-.206-.447 0-.401.25-.596.559-.437m1.681.055c.2.2.199.606-.003.789-.11.1-.363.1-.474 0-.107-.097-.177-.357-.143-.535.035-.191.219-.368.38-.368.085 0 .163.037.24.114m4.861.014c.098.117.106.151.091.405-.013.243-.029.288-.126.372a.394.394 0 0 1-.428.054c-.139-.074-.208-.27-.189-.531.014-.2.035-.256.126-.334.167-.144.388-.13.526.034m2.441-.03c.054.054.098.135.098.18 0 .077-.024.082-.36.082-.336 0-.36-.005-.36-.082 0-.252.426-.375.622-.18" fill-rule="evenodd"/></svg>