<svg viewBox="0 0 24 24" xmlns="http://www.w3.org/2000/svg"><path d="M4.5 6.019c-.604.111-1.198.339-1.314.505-.067.095-.094.556-.042.693.037.096.197.077.622-.075.584-.209.977-.277 1.452-.251.624.034.91.169 1.083.511.113.224.177.599.178 1.051.001.279-.006.31-.069.292-.354-.106-.852-.163-1.41-.162-.573.001-.644.009-.94.112-.745.258-1.18.74-1.302 1.442-.152.869.247 1.65 1.007 1.973.235.1.298.109.795.109.426.001.586-.015.76-.075a2.564 2.564 0 0 0 1.1-.694l.12-.129.115.219c.169.323.408.58.539.58.174 0 .726-.392.726-.515 0-.034-.067-.215-.149-.403l-.15-.342-.024-1.58c-.021-1.322-.036-1.626-.095-1.86-.255-1.008-.967-1.462-2.282-1.455a5.003 5.003 0 0 0-.72.054m13.886.002c-.34.086-.773.327-1.01.564-.296.297-.427.586-.448.994-.029.551.152.998.544 1.343.249.219.535.346 1.435.636.505.162.824.288.933.367a.72.72 0 0 1 .179 1.003c-.315.477-1.46.576-2.459.213-.701-.254-.72-.249-.72.201 0 .252.013.308.099.41.121.144.393.264.898.397.322.086.478.103.983.106.658.005.987-.059 1.454-.286.295-.143.683-.528.822-.816.293-.603.207-1.341-.208-1.801-.233-.258-.564-.424-1.379-.691a22.731 22.731 0 0 1-.889-.305c-.24-.105-.451-.276-.519-.42-.095-.199-.069-.556.051-.725.292-.41 1.287-.475 2.242-.145.385.133.419.138.48.077.08-.08.088-.553.012-.693-.062-.114-.354-.263-.732-.374-.388-.113-1.411-.145-1.768-.055m-10.119.126c-.015.014-.027.082-.027.15.001.207 1.662 5.622 1.752 5.713.064.064.151.084.434.099.408.023.671-.032.737-.154.024-.046.283-1.084.575-2.307l.53-2.224.226.938.541 2.252c.244 1.017.334 1.333.401 1.4.07.07.144.088.406.1.457.021.665-.017.743-.137.073-.111 1.774-5.554 1.774-5.679.001-.151-.075-.178-.51-.178-.452 0-.541.027-.622.191-.03.06-.313 1.12-.63 2.356-.316 1.236-.581 2.242-.588 2.235a306.86 306.86 0 0 1-.968-4.074c-.168-.719-.156-.708-.75-.708-.422 0-.461.007-.547.093-.101.101-.103.109-.788 3.037-.204.875-.383 1.577-.397 1.56-.014-.016-.256-.948-.538-2.07-.605-2.404-.64-2.526-.74-2.579-.083-.045-.971-.057-1.014-.014M6.2 9.451l.26.049.012.292c.038.937-.525 1.51-1.532 1.558-.336.016-.374.01-.579-.098a.638.638 0 0 1-.333-.333c-.107-.202-.114-.245-.1-.565.014-.294.033-.371.124-.51.136-.204.367-.36.639-.429.245-.063 1.096-.043 1.509.036m13.6 4.131c-.62.113-1.4.468-1.462.665-.051.161.05.184.55.124.636-.077 1.682-.086 1.92-.016.29.084.333.155.326.54-.007.37-.102.73-.42 1.581-.239.638-.255.738-.119.757.136.02.618-.483.859-.893.44-.751.752-1.951.628-2.413-.053-.198-.161-.266-.555-.349-.34-.072-1.323-.07-1.727.004m-17.878.396c-.083.099-.011.204.35.511a14.866 14.866 0 0 0 11.588 3.45c2.208-.286 4.472-1.111 6.045-2.203.37-.257.415-.308.415-.476 0-.104-.169-.26-.281-.26-.039 0-.32.097-.625.215-2.281.887-4.433 1.322-6.794 1.373a18.975 18.975 0 0 1-4.12-.33c-1.99-.368-4.265-1.178-5.928-2.112-.413-.231-.565-.271-.65-.168" fill-rule="evenodd"/></svg>