<svg viewBox="0 0 24 24" xmlns="http://www.w3.org/2000/svg"><path d="M12.362 3.841c-.691.196-1.285.368-1.32.382-.036.016.488.21 1.281.476l1.342.45 1.236-.416a52.748 52.748 0 0 0 1.251-.431c.016-.016-2.256-.761-2.432-.798-.06-.012-.604.123-1.358.337m6.278.003c-.693.197-1.287.369-1.32.382-.033.013.548.227 1.291.476l1.35.452 1.266-.432 1.267-.431-.197-.063-1.26-.406a23.826 23.826 0 0 0-1.1-.339c-.02.002-.604.164-1.297.361m-7.99 2.682.01 1.966 1.317.474c.724.261 1.331.474 1.35.474.018 0 .033-.896.033-1.991v-1.99l-1.33-.45a54.757 54.757 0 0 0-1.36-.45c-.017.001-.026.886-.02 1.967m4.5-1.513-1.309.447-.001 1.99c0 1.567.011 1.99.05 1.988.028-.001.635-.214 1.35-.472l1.3-.47.01-1.968c.009-1.562 0-1.967-.04-1.965-.027.001-.639.203-1.36.45m1.81 1.517.001 1.97 1.286.46c.707.253 1.31.466 1.339.473.045.011.054-.334.054-1.983V5.455l-1.312-.448a58.13 58.13 0 0 0-1.34-.447c-.015 0-.028.886-.028 1.97m4.49-1.521-1.29.442v1.997c0 1.629.01 1.995.052 1.985.029-.007.632-.22 1.34-.473l1.287-.46V6.53c.001-1.552-.01-1.969-.049-1.966-.028.002-.631.202-1.34.445M2.8 9.382l-1.32.378c-.011.004.589.211 1.333.461l1.352.454 1.254-.427c.69-.235 1.252-.431 1.248-.434-.02-.02-2.503-.813-2.532-.809-.019.002-.62.172-1.335.377m6.52-.065c-.605.171-1.208.343-1.34.383l-.24.071 1.355.453 1.356.453 1.255-.426c.691-.235 1.233-.439 1.205-.454a96.917 96.917 0 0 0-2.476-.794c-.008.001-.51.143-1.115.314m-8.16 2.729v1.975l1.311.47c.72.258 1.323.469 1.34.469.016 0 .029-.896.029-1.991v-1.991l-1.29-.436-1.34-.453c-.04-.014-.05.395-.05 1.957m4.49-1.512-1.29.445v1.99c0 1.095.013 1.991.03 1.991.016 0 .619-.212 1.34-.47l1.31-.47v-1.97c0-1.552-.011-1.969-.05-1.965-.027.003-.63.205-1.34.449m1.79 1.508v1.962l.13.054c.238.098 2.512.902 2.551.902.026 0 .036-.707.029-1.99l-.01-1.99-1.32-.45a58.052 58.052 0 0 0-1.35-.45c-.016 0-.03.883-.03 1.962m4.51-1.509-1.309.447-.001 1.99c0 1.567.011 1.989.05 1.988.027-.002.635-.214 1.35-.472l1.3-.468.01-1.969c.009-1.563 0-1.968-.04-1.966-.027.001-.639.203-1.36.45m-5.79 4.328-1.34.382-.16.048 1.353.453 1.354.452 1.258-.423c.692-.233 1.253-.428 1.247-.435a122.8 122.8 0 0 0-2.517-.815l-1.195.338m-1.8 2.709v1.97l1.311.47c.721.258 1.334.47 1.361.47.038 0 .046-.437.038-1.987l-.01-1.987-1.32-.452a66.163 66.163 0 0 0-1.35-.453c-.017-.001-.03.885-.03 1.969m4.51-1.517-1.309.447-.001 2.004v2.004l1.34-.481 1.34-.48v-1.974c0-1.085-.014-1.972-.03-1.97a81.77 81.77 0 0 0-1.34.45" fill-rule="evenodd"/></svg>