<svg viewBox="0 0 24 24" xmlns="http://www.w3.org/2000/svg"><path d="M11.254 2.282a3.66 3.66 0 0 0-1.171.346c-.314.151-.432.235-.701.506a2.555 2.555 0 0 0-.475.616c-.083.159-.146.29-.138.29.007 0 .21-.045.452-.1.661-.149 1.474-.192 3.247-.169 1.561.02 1.89.046 2.543.203.229.055.231.055.205-.029a1.994 1.994 0 0 0-.159-.305c-.446-.738-1.185-1.189-2.188-1.338a7.344 7.344 0 0 0-1.615-.02M9.64 5.258c-.775.134-1.623.487-2.173.905-1.016.773-1.74 1.984-2.024 3.387-.145.716-.168 1.191-.155 3.197.012 1.876.014 1.93.095 2.04a.734.734 0 0 0 .22.183c.129.066.517.07 6.421.07h6.284l.132-.09a.788.788 0 0 0 .208-.23c.073-.134.075-.237.06-2.3-.016-2.155-.016-2.161-.121-2.644-.259-1.191-.739-2.139-1.476-2.918-.727-.768-1.594-1.264-2.671-1.529l-.42-.103-2.04-.01c-1.532-.008-2.115.003-2.34.042m2.898 1.683c.737.192 1.348.812 1.52 1.543A2.127 2.127 0 0 1 13.5 10.5c-.418.418-.91.62-1.51.62a2.118 2.118 0 0 1-2.055-1.58c-.069-.257-.069-.823-.001-1.08a2.178 2.178 0 0 1 1.517-1.518c.28-.076.798-.076 1.087-.001M5.59 16.529a.617.617 0 0 0-.232.255c-.078.162-.081.228-.069 2.122L5.3 20.86l.112.229c.135.275.365.482.656.591.212.079.305.08 5.932.08 5.627 0 5.72-.001 5.932-.08.291-.109.521-.316.656-.591l.112-.229.011-1.954c.012-1.897.01-1.96-.07-2.123a.591.591 0 0 0-.236-.256l-.156-.087-6.254.001-6.255.001-.15.087" fill-rule="evenodd"/></svg>