<svg viewBox="0 0 24 24" xmlns="http://www.w3.org/2000/svg"><path d="M11.326 3.559a2.666 2.666 0 0 0-1.162.669l-.301.289-2.261.011c-2.244.012-2.263.013-2.427.1-.418.224-.615.535-.615.972 0 .448.217.78.64.976.173.081.257.085 2.192.104l2.012.02.096.284c.115.341.216.523.451.816.216.27.52.525.799.67l.21.11v9.82H8.227c-3.042 0-2.987-.004-3.304.267-.586.501-.441 1.458.271 1.787l.186.086h13.28l.18-.085c.214-.1.447-.327.545-.529a1.38 1.38 0 0 0 .088-.416c.014-.232.001-.302-.091-.489a1.297 1.297 0 0 0-.265-.354c-.317-.272-.26-.267-3.302-.267H13.08V8.58l.214-.112c.567-.296 1.072-.912 1.269-1.547l.068-.221 2.014-.02 2.015-.02.228-.112c.78-.383.798-1.452.032-1.884l-.22-.124-2.266-.012-2.267-.011-.275-.269a2.733 2.733 0 0 0-1.052-.654c-.384-.125-1.119-.142-1.514-.035M5.4 7.758a.908.908 0 0 0-.504.289c-.163.176-3.341 5.635-3.451 5.928-.323.863.364 2.039 1.598 2.737.71.401 1.59.612 2.551.61 1.992-.003 3.662-1.001 4.145-2.477.101-.307.068-.681-.088-1.011-.188-.399-3.284-5.681-3.404-5.808a.953.953 0 0 0-.847-.268m12.86.002a.866.866 0 0 0-.508.266c-.118.125-3.207 5.396-3.408 5.814-.109.228-.124.302-.124.6 0 .278.019.386.106.591.255.606.679 1.103 1.274 1.497 2.076 1.372 5.337.919 6.605-.917.411-.593.53-1.153.35-1.636-.11-.293-3.288-5.752-3.451-5.929a.912.912 0 0 0-.844-.286M6.775 12.049a130.31 130.31 0 0 1 1.185 2.05c0 .011-1.071.021-2.38.021s-2.38-.011-2.38-.025c0-.035 2.368-4.101 2.38-4.087.005.007.543.925 1.195 2.041m12.859.019a127.8 127.8 0 0 1 1.166 2.03c0 .012-1.073.022-2.383.022-1.479 0-2.379-.014-2.37-.038.049-.139 2.376-4.074 2.396-4.051.014.016.549.933 1.191 2.037" fill-rule="evenodd"/></svg>