<svg viewBox="0 0 24 24" xmlns="http://www.w3.org/2000/svg"><path d="M15.66 3.241c-.651.04-1.397.152-1.64.247-.254.099-1.17.571-1.295.667-.093.071-.089.073.36.097.867.048 1.446.277 1.935.767.437.437.665.951.804 1.806.057.348.068.611.056 1.315-.008.484-.015 1.195-.017 1.58-.004.988-.016.973.982 1.324.692.244 1.407.58 1.928.908l.384.241.253-.076c.336-.101.54-.259.829-.642.411-.546.541-.866.678-1.677a6.72 6.72 0 0 1 .299-1.21c.228-.642.309-1.027.316-1.508.008-.525-.033-.592-.741-1.211-.675-.589-1.04-.964-1.247-1.279-.466-.707-1.461-1.253-2.462-1.351-.425-.041-.714-.041-1.422.002m-7.78.917c-.245.045-.661.218-.829.346-.145.111-.215.247-.414.81a8.936 8.936 0 0 0-.375 1.461c-.056.345-.504 1.752-.652 2.045-.034.066-.23.367-.437.669-.406.593-.475.727-.534 1.038-.036.19-.029.225.121.563.178.401.265.785.225.998-.043.23-.233.469-.791.994-.486.458-.994 1.03-.994 1.121 0 .02.041.037.09.038.109.001.421.138.522.23.058.052.137.064.366.055.302-.013.509.049.554.167.016.043.088.051.315.037.276-.017.302-.011.457.102l.164.12.128-.081c.157-.1.345-.082.655.06.187.085.228.125.293.284.073.177.144.23.196.145.014-.022.093-.04.176-.04.153 0 .284.092.284.198 0 .036.026.042.09.019.05-.019.237-.034.417-.035.302-.002.34.007.501.121.167.118.179.12.313.064.223-.093.673-.082.847.02l.145.086.19-.097c.231-.117.374-.122.506-.017.1.078.101.078.172 0 .096-.106.328-.164.609-.153.126.005.413-.005.636-.024.71-.058.742-.03.708.614-.017.309-.011.497.018.547.04.071.06.06.256-.143l.212-.22-.012-1.02-.012-1.02.12-.206c.088-.15.233-.292.541-.529.424-.328.561-.496.661-.813.1-.317.665-.702 1.195-.814.462-.098.969.047 2.354.67l.448.201.222-.192c.123-.106.223-.197.223-.203 0-.006-.169-.111-.376-.233-.507-.298-.961-.503-1.66-.747-.878-.307-.96-.36-1.132-.734-.101-.22-.104-.336-.072-2.5.014-.987-.034-1.418-.226-2-.251-.762-.776-1.252-1.574-1.469-.217-.059-.42-.07-1.22-.068-.9.003-.985.01-1.36.108-.546.142-.812.169-1.068.107a4.038 4.038 0 0 1-.991-.417c-.405-.246-.807-.334-1.201-.263m1.32.995c.274.134.31.166.41.364.13.256.136.393.05 1.143-.152 1.322-.329 1.776-.787 2.021-.454.241-1.356.384-1.783.281-.223-.053-.494-.257-.591-.444a.92.92 0 0 1-.058-.346c.001-.248.02-.29.474-1.066.114-.195.277-.557.363-.805.203-.588.321-.814.517-.991.204-.185.369-.27.601-.31.273-.048.47-.01.804.153m4.022.223c.327.15.592.363.778.628.366.522.524 1.055.444 1.502-.056.313-.463 1.128-.76 1.522-.306.406-.514.553-.933.659-.461.117-.957.086-1.495-.092-.411-.137-.667-.299-.782-.496-.285-.49-.131-2.365.199-2.412.116-.017.207.058.206.168 0 .047-.039.202-.087.345-.073.22-.087.356-.089.88-.004.773.034.877.387 1.056.127.064.238.109.247.1a.58.58 0 0 0-.02-.196c-.068-.341-.093-1.251-.038-1.422.136-.425.703-1.415 1.047-1.827l.158-.19-.132.023a2.932 2.932 0 0 0-.492.2c-.198.097-.392.177-.431.176-.039 0-.091-.045-.116-.1-.038-.082-.033-.114.026-.179.099-.11.447-.301.727-.401.332-.117.83-.093 1.156.056m-5.026.076c-.232.122-.392.365-.532.81-.152.48-.301.801-.564 1.218-.247.392-.35.645-.316.78.04.161.232.307.433.33l.183.02.001-.315c.001-.414.115-.734.474-1.333.366-.611.396-.675.487-1.031.082-.319.101-.571.044-.571-.018 0-.113.042-.21.092M7.479 9.94c.845.287 1.32.705 1.319 1.16 0 .209-.143.624-.318.922-.395.672-1.712 1.615-2.26 1.617-.211 0-.535-.154-.678-.323-.271-.322-.295-.664-.083-1.177.159-.383.23-.662.321-1.259.077-.5.218-.824.406-.931.297-.169.812-.173 1.293-.009m-.859.257a.947.947 0 0 0-.244.074c-.103.056-.184.334-.277.949a4.526 4.526 0 0 1-.243.913c-.097.26-.176.517-.176.571 0 .261.206.496.491.558.146.032.18-.002.095-.095-.041-.045-.066-.14-.065-.25.001-.241.136-.836.233-1.026.06-.117.08-.235.08-.477 0-.388.05-.592.228-.93.122-.231.143-.333.066-.319l-.188.032m8.928 2.047c-.329.077-.867.405-.868.529a1.384 1.384 0 0 1-.098.256c-.118.254-.398.561-.722.793-.333.238-.45.372-.488.558-.034.167-.008 1.637.03 1.675.019.019 1.296-.2 1.619-.278.381-.091.493-.25.542-.767.057-.604.159-.854.778-1.911.186-.318.339-.594.339-.614 0-.055-.307-.166-.634-.229a3.372 3.372 0 0 0-.32-.052c-.014.002-.094.02-.178.04m1.172.898c-.365.613-.662 1.181-.723 1.381a4.062 4.062 0 0 0-.078.55c-.028.332-.055.448-.14.592-.201.344-.418.44-1.339.594-.209.034-.546.1-.749.145-.361.08-.375.088-.595.317a1.783 1.783 0 0 1-.355.296c-.112.053-.134.088-.156.249-.034.253-.19.508-.36.589-.175.083-.246.081-.454-.013l-.169-.077-.086.154c-.132.235-.298.341-.536.341-.11 0-.236-.013-.281-.03-.065-.024-.095-.003-.154.107-.237.438-.69.559-1.001.267l-.088-.083-.158.163c-.087.089-.229.2-.317.245-.212.109-.597.139-.786.06a.746.746 0 0 1-.374-.431c-.023-.093-.045-.103-.223-.103-.194 0-.198.003-.199.123a.407.407 0 0 1-.031.17c-.16.252-1.333.221-1.79-.047a1.315 1.315 0 0 1-.292-.246l-.119-.145-.116.082c-.275.196-.422.137-.671-.267l-.143-.232-.309.017c-.361.02-.506-.025-.599-.186-.057-.101-.095-.12-.268-.133a1.513 1.513 0 0 0-.212-.009c-.022.014.314.75.6 1.317.258.511.314.592.627.902.528.524.907.684 1.924.815.824.105 1.836.157 3.12.161 1.425.003 1.612-.02 2.337-.296.667-.253.858-.28 2.343-.327 1.281-.041 1.349-.047 1.556-.139.435-.194 1.152-1.089 1.616-2.018.315-.632.324-.687.313-2.037-.015-1.801.015-1.955.501-2.601.12-.16.204-.305.186-.322a5 5 0 0 0-.482-.233l-.45-.2-.32.538M2.911 14.65c-.103.159-.276.633-.263.722.011.079.271.266.372.267.023.001.16-.192.307-.429.194-.313.255-.444.225-.48-.044-.053-.399-.17-.515-.17-.037 0-.094.041-.126.09m1.163.218a.311.311 0 0 0-.163.084c-.14.166-.514.821-.484.848.041.037.334.133.349.114.006-.008.078-.14.161-.294.083-.154.222-.375.309-.491.206-.275.18-.315-.172-.261m.722.232c-.203.11-.738.923-.63.956l.301.097.248.08.344-.507.345-.506-.104-.09c-.121-.104-.343-.118-.504-.03m.951.33c-.325.407-.639.851-.616.874.021.022.66.094.839.095.116.001.29-.198.476-.543.081-.152.084-.179.035-.352-.043-.155-.08-.202-.205-.266-.241-.123-.291-.104-.529.192m1.073.52c-.217.274-.744 1.06-1.116 1.664-.255.414-.265.439-.207.527.104.159.315.293.563.357.305.08.912.084.976.007.083-.1.094-.55.028-1.087-.067-.548-.079-1.135-.028-1.488.016-.115.015-.21-.003-.21-.017 0-.114.103-.213.23m-4.36.174c.016.178.042.372.058.43l.03.106.024-.12c.098-.489.071-.74-.081-.74-.05 0-.055.052-.031.324m5.3-.299c-.163.056-.36.15-.361.171 0 .013-.018.148-.04.299-.046.318.006.962.115 1.43l.068.295.191-.24c.228-.288.384-.601.547-1.1.175-.537.174-.59-.02-.725-.159-.111-.386-.17-.5-.13m3.947.042c-.015.014-.027.168-.027.34 0 .305.003.314.09.296.05-.01.156-.029.236-.042.166-.026.193-.082.193-.411l.001-.21h-.233c-.129 0-.246.012-.26.027m-.907.093c-.067.067-.08.133-.08.415v.336l.31-.068c.181-.04.308-.088.306-.116a12.165 12.165 0 0 1-.01-.347l-.006-.3h-.22c-.167 0-.239.019-.3.08m-1.894.033c-.053.022-.106.153-.19.469-.193.732-.197.657.029.662.344.007.514-.01.542-.055.015-.024.068-.256.118-.516.069-.36.08-.484.044-.52-.056-.056-.439-.084-.543-.04m1.07.043c-.116.071-.127.098-.17.427a2.79 2.79 0 0 0-.034.363c.006.006.141 0 .3-.013l.288-.025v-.352c0-.318-.008-.357-.089-.414-.114-.079-.144-.078-.295.014m-7.069.154a7.934 7.934 0 0 0-.047.49c-.028.4.016.524.203.562l.122.025-.002-.571c-.003-.556-.005-.573-.095-.614-.14-.064-.156-.054-.181.108m.605.202c-.015.19.031.914.068 1.058.027.104.041.11.258.11.126 0 .239-.01.251-.022.012-.012.005-.096-.015-.187a3.664 3.664 0 0 1-.044-.558l-.007-.392-.202-.064-.249-.078c-.029-.009-.052.041-.06.133m.867.47c.046.55.2 1.034.382 1.199.06.054.087.038.284-.171a5.5 5.5 0 0 0 .691-.937l.108-.186-.272-.025a9.712 9.712 0 0 1-1.127-.206l-.095-.028.029.354m7.509-.014-.213.039.027.226c.054.446.372.583.521.225.067-.16.074-.352.016-.461-.046-.084-.046-.084-.351-.029m-.895.181-.267.061-.014.345c-.007.19.002.367.021.394.019.027.099.061.178.076.123.023.156.012.235-.08.112-.13.214-.46.214-.692 0-.195.014-.191-.367-.104m-1.123.16c-.083.009-.15.037-.151.063 0 .027-.018.171-.04.322-.072.494-.064.575.062.707.127.133.272.153.409.058.127-.089.21-.417.21-.826v-.353l-.17.007a6.042 6.042 0 0 0-.32.022m-1.524.341c-.207.329-.245.933-.069 1.076.189.153.553.059.745-.192.12-.158.249-.497.283-.746l.023-.168-.354-.003a3.018 3.018 0 0 1-.463-.03c-.087-.022-.12-.01-.165.063" fill-rule="evenodd"/></svg>