<svg viewBox="0 0 24 24" xmlns="http://www.w3.org/2000/svg"><path d="M2.726 6.27c-.205.962-.382 1.79-.394 1.84l-.021.09h1.495c.822 0 1.699-.019 1.949-.043 1.536-.144 2.384-.87 2.379-2.037-.003-.628-.275-1.068-.827-1.34-.483-.238-.704-.26-2.561-.26H3.099l-.373 1.75m8.14-1.66c-.076.311-.746 3.474-.746 3.526 0 .057.154.064 1.49.064.82 0 1.681-.018 1.915-.04.841-.08 1.388-.287 1.815-.686.422-.395.607-.871.572-1.473-.043-.738-.54-1.241-1.4-1.418-.252-.051-.612-.063-1.966-.063h-1.657l-.023.09m6.401 4.997c-.214.997-.388 1.828-.388 1.846.001.018.834.025 1.851.016 1.957-.018 2.022-.024 2.607-.227.652-.227 1.122-.701 1.283-1.298.095-.351.069-.883-.057-1.172-.113-.257-.446-.581-.733-.712-.497-.227-.553-.233-2.432-.25l-1.742-.016-.389 1.813m-15.158.46c-.021.033-.789 3.567-.789 3.627 0 .017.841.025 1.87.017 1.868-.015 1.87-.015 2.253-.119.501-.136.84-.311 1.12-.578.384-.366.572-.828.566-1.393-.008-.74-.476-1.262-1.333-1.486-.214-.056-.535-.07-1.962-.084-.938-.01-1.714-.003-1.725.016m7.77-.02c0 .007-.177.832-.393 1.833l-.392 1.82 1.663.011c1.044.008 1.789-.004 2-.032.714-.093 1.38-.394 1.706-.771.573-.665.601-1.71.06-2.265-.225-.231-.497-.377-.917-.493-.284-.078-.429-.085-2.016-.1-.94-.009-1.71-.011-1.711-.003m6.308 4.8c-.214.997-.389 1.828-.388 1.845.001.018.843.026 1.871.018 1.777-.015 1.887-.02 2.209-.104 1.165-.305 1.76-1.008 1.713-2.022-.02-.431-.105-.651-.353-.921-.218-.236-.513-.403-.905-.511-.295-.082-.419-.088-2.036-.102l-1.722-.016-.389 1.813M8.779 15.93c-.11.437-.763 3.537-.751 3.56.024.044 2.877.036 3.392-.01 1.261-.111 2.043-.596 2.324-1.44.1-.302.101-.867.002-1.152-.103-.295-.442-.654-.76-.804-.483-.227-.655-.244-2.503-.244H8.802l-.023.09" fill-rule="evenodd"/></svg>