<svg viewBox="0 0 24 24" xmlns="http://www.w3.org/2000/svg"><path d="M7.093 1.443a.727.727 0 0 0-.264.197c-.168.197-.276.541-.69 2.2-.167.671-.421 1.649-.564 2.172-.237.868-.26.987-.26 1.341 0 .459.223 1.566.378 1.877a6 6 0 0 1 .402 1.126l.094.372-.154.472c-.341 1.047-.503 2.254-.462 3.459.035 1.046.159 1.795.455 2.753.142.457.153.478.349.637.919.746 1.621 1.716 2.166 2.99.158.369.172.387.44.574.381.266 1.166.644 1.586.764 1.504.43 3.048.195 4.393-.667.276-.177.276-.177.437-.59.196-.503.409-.91.705-1.349.515-.762 1.157-1.477 1.608-1.791.293-.205.601-.938.732-1.74.221-1.363.029-3.744-.41-5.075a1.028 1.028 0 0 1-.059-.5 6.73 6.73 0 0 1 .401-1.493c.095-.212.16-.447.204-.732.167-1.075.15-1.416-.107-2.151-.302-.866-.543-1.235-.869-1.332-.345-.104-.657.091-.783.49l-.083.264c-.01.032-.108-.024-.267-.152-.387-.312-.671-.439-.982-.439-.588 0-.85.358-.938 1.285l-.045.465-.343.02c-.223.013-.603.087-1.083.211-.983.253-1.174.255-2.08.021-.516-.133-.758-.175-1.11-.191l-.45-.021v-.233c0-.719-.16-1.912-.339-2.537-.185-.641-.636-1.46-1.302-2.362-.243-.328-.432-.418-.706-.335m.724 2.297c.255.508.38.948.488 1.72.06.428.073.768.07 1.929-.002 1.017.009 1.401.041 1.382.024-.014.223-.17.442-.347a5.19 5.19 0 0 1 .538-.392c.228-.116.578-.093 1.304.089 1.189.297 1.403.295 2.657-.024.766-.195 1.063-.219 1.285-.106.076.039.35.237.608.441.334.262.47.349.469.299 0-.039-.027-.377-.059-.751-.063-.727-.08-1.74-.029-1.74.017 0 .219.155.45.344.23.189.491.378.579.419.31.146.696.066.825-.171.05-.09.052-.089.1.068.119.388.003 1.496-.205 1.96-.145.324-.354 1.103-.439 1.641l-.071.442.144.444c.31.96.466 2.105.466 3.422 0 .782-.059 1.407-.163 1.751-.138.453-.199.549-.517.817-.896.756-1.946 2.226-2.34 3.275-.061.161-.108.212-.296.322a4.912 4.912 0 0 1-1.192.474c-.287.072-.463.088-.952.086-.523-.002-.651-.016-1-.11-.424-.115-1.019-.377-1.308-.576-.134-.092-.195-.173-.268-.354-.406-1.006-1.381-2.389-2.113-2.994-.23-.19-.247-.217-.345-.54-.411-1.351-.492-2.973-.221-4.4.094-.494.274-1.142.414-1.486l.1-.244-.119-.497c-.134-.559-.324-1.137-.469-1.428-.133-.265-.33-1.177-.33-1.529-.001-.219.045-.454.201-1.02.111-.405.328-1.24.482-1.856l.322-1.28.042-.159.093.116c.051.064.193.317.316.563m1.323 6.513c-.555.186-.977.572-1.3 1.191-.21.405-.28.692-.28 1.158 0 .791.311 1.587.849 2.178.726.794 1.734.919 2.542.313.406-.305.765-1.652.65-2.44-.171-1.167-.666-1.954-1.459-2.317-.275-.126-.754-.165-1.002-.083m4.82 1.945c-.462.091-.78.539-.684.964.143.634.947.894 1.459.472a.812.812 0 0 0 .223-.978c-.166-.342-.592-.538-.998-.458m-3.741.093a.612.612 0 0 1 .341.586.637.637 0 0 1-.36.603c-.305.156-.734.06-.924-.205-.136-.191-.138-.597-.003-.786.203-.284.635-.374.946-.198m1.352 4.861c-.499.179-1.166.779-1.411 1.27-.122.247-.138.314-.138.598 0 .276.017.353.12.56.098.197.155.259.317.347.109.059.272.187.363.284.143.154.207.188.501.267.644.174 1.549.047 1.738-.244.045-.069.197-.191.339-.271.22-.124.275-.179.368-.364.286-.574.133-1.174-.448-1.755-.636-.636-1.238-.874-1.749-.692" fill-rule="evenodd"/></svg>