<svg viewBox="0 0 24 24" xmlns="http://www.w3.org/2000/svg"><path d="M9.371 3.673C7.958 4.502 6.802 5.189 6.802 5.2c0 .011.415.259.923.552l.923.532 1.649-.922c.908-.507 1.674-.922 1.703-.922.029 0 .795.415 1.703.922l1.649.922.923-.532c.508-.293.923-.541.923-.552.001-.032-5.126-3.019-5.195-3.027-.035-.004-1.219.671-2.632 1.5M4.38 6.542l-.96.533v2.263l.916.531c.503.292.931.531.95.531.019 0 .034-.508.034-1.13l.001-1.13.939-.514c.517-.283.948-.527.958-.543.02-.032-1.779-1.086-1.841-1.079-.02.002-.469.244-.997.538m6.7-.022c-.495.287-.904.534-.909.55-.004.017.405.268.91.558l.919.528.919-.528c.505-.29.919-.539.92-.552.001-.023-1.689-1.012-1.803-1.055-.031-.012-.461.213-.956.499m6.59.008c-.501.29-.909.537-.908.55 0 .012.41.257.91.543l.908.522.011 1.128c.005.621.021 1.129.034 1.129.013 0 .436-.238.94-.53l.916-.53-.01-1.139-.011-1.139-.916-.531a21.738 21.738 0 0 0-.94-.53c-.013 0-.433.237-.934.527M7.699 8.412l-.919.531V11.216l1.66.928 1.66.928.02 1.933.02 1.933.916.531c.503.292.928.531.944.531.016 0 .441-.239.944-.531l.916-.531.02-1.933.02-1.933 1.66-.928 1.66-.928V8.944l-.88-.512a24.342 24.342 0 0 0-.948-.534c-.043-.014-.67.315-1.717.9-.907.507-1.661.922-1.675.922-.014 0-.767-.414-1.673-.92a61.962 61.962 0 0 0-1.679-.92 19.7 19.7 0 0 0-.949.532m-4.177 5.515.001 3.013 2.549 1.487c1.401.819 2.58 1.5 2.618 1.515.066.025.07-.043.07-1.094v-1.12l-1.679-.934-1.678-.934-.002-1.927-.001-1.927-.81-.468c-.446-.257-.869-.503-.94-.546l-.13-.079.002 3.014m16.058-2.465-.96.533-.012 1.932-.012 1.933-1.608.921-1.608.922-.011 1.133c-.008.901 0 1.129.04 1.113.028-.012 1.203-.696 2.611-1.521l2.56-1.499.01-3.005c.006-1.652-.003-3.002-.02-3-.016.002-.462.244-.99.538m-12.82 2.45c0 .846.012 1.128.05 1.158.063.051 1.788 1.05 1.812 1.05.01 0 .017-.508.017-1.13l-.002-1.13-.906-.52a63.66 63.66 0 0 0-.939-.533c-.018-.008-.032.49-.032 1.105m9.511-.578-.908.526-.002 1.13c0 .622.012 1.129.029 1.127.017-.002.435-.241.93-.531l.9-.527.011-1.13c.005-.621-.004-1.127-.02-1.125-.017.003-.44.241-.94.53m-6.142 6.316.011 1.13.9.528c.495.29.922.529.949.53.028.001.464-.236.969-.528l.92-.53.001-1.131.001-1.131-.114.059c-.062.032-.485.274-.94.537l-.826.479-.926-.536a42.881 42.881 0 0 0-.94-.537c-.008 0-.01.509-.005 1.13" fill-rule="evenodd"/></svg>