<svg viewBox="0 0 24 24" xmlns="http://www.w3.org/2000/svg"><path d="M5.12 2.824c-.488.166-1.068.489-1.352.754-.455.424-.739.895-.962 1.595l-.126.392v12.843l.104.346c.165.548.492 1.141.808 1.465a3.84 3.84 0 0 0 1.008.761c.492.248.599.266 1.82.301 1.427.042 9.331.044 10.94.002l1.22-.031.421-.142a3.227 3.227 0 0 0 1.507-1.001c.258-.291.576-.903.71-1.366l.102-.352V5.561l-.125-.391c-.392-1.226-1.145-1.988-2.317-2.346l-.342-.104-6.558.001-6.558.001-.3.102m7.78 3.275c1.359.019 1.515.037 2.133.244.452.151.907.408 1.167.657.172.166.275.315.416.606.238.489.278.739.255 1.592-.02.728-.043.814-.329 1.262-.257.402-.698.814-1.079 1.009l-.157.08.157.051c.086.027.332.139.545.248.302.154.441.254.627.453.604.646.882 1.483.836 2.514-.038.835-.346 1.511-.967 2.125-.555.549-1.231.883-2.104 1.039-.44.079-2.566.134-5.33.138l-1.67.003V6.051l2.11.014c1.161.009 2.686.024 3.39.034M10.04 9.54v1.419l1.47-.023c1.302-.021 1.504-.033 1.77-.104.356-.096.471-.152.662-.319.192-.169.29-.374.344-.722.062-.4-.006-.803-.18-1.062-.134-.2-.454-.421-.71-.49-.274-.074-1.1-.118-2.226-.118l-1.13-.001v1.42m.01 4.83.01 1.65 1.7-.002c1.627-.001 1.712-.005 1.981-.088.412-.127.743-.386.909-.711.176-.342.193-1.124.034-1.542-.127-.336-.316-.53-.703-.721l-.333-.165-.834-.033a55.682 55.682 0 0 0-1.804-.036l-.971-.002.011 1.65" fill-rule="evenodd"/></svg>