<svg viewBox="0 0 24 24" xmlns="http://www.w3.org/2000/svg"><path d="M2.32 6.439c-.311.059-.561.276-.638.552-.027.097-.042 1.314-.042 3.489 0 2.716.011 3.411.058 3.72a3.977 3.977 0 0 0 3.277 3.323c.439.075 1.29.026 1.721-.097a4.676 4.676 0 0 0 1.284-.604 4.628 4.628 0 0 0 1.018-1.051l.195-.297.137.213a4.22 4.22 0 0 0 2.33 1.739c.334.102.411.11 1.06.11.591-.001.748-.014 1.007-.086 1.686-.468 2.818-1.794 2.993-3.505.201-1.984-1.122-3.712-3.18-4.151-.369-.079-1.257-.067-1.64.021a4.05 4.05 0 0 0-2.453 1.656l-.199.292-.185-.278c-1.085-1.633-3.329-2.219-5.165-1.349a4.985 4.985 0 0 0-.495.262.592.592 0 0 1-.139.082c-.013 0-.024-.775-.024-1.721 0-1.821-.006-1.887-.192-2.092-.156-.173-.481-.275-.728-.228m14.014 3.278c-.296.135-.476.583-.379.943.03.111.369.583 1.104 1.538a53.443 53.443 0 0 1 1.06 1.4c0 .012-.475.639-1.056 1.393-.581.755-1.076 1.428-1.1 1.496-.06.174-.054.456.013.585.179.342.641.55 1.001.449.229-.064.293-.135 1.292-1.429l.841-1.088.079.088c.043.048.426.538.851 1.088.86 1.114.968 1.24 1.139 1.329.17.089.527.087.73-.004.36-.162.52-.655.332-1.022-.048-.095-.537-.772-1.087-1.505l-1.001-1.334 1.018-1.332c.56-.733 1.045-1.386 1.078-1.452.282-.562-.092-1.139-.741-1.14-.309 0-.404.089-1.413 1.336-.525.649-.964 1.18-.975 1.18-.011 0-.353-.443-.76-.985-.978-1.304-1.097-1.444-1.295-1.534a.964.964 0 0 0-.731 0M6.17 11.339c.148.031.414.132.592.224.79.411 1.278 1.2 1.278 2.064 0 .443-.057.691-.247 1.081-.708 1.453-2.731 1.766-3.892.601-.934-.937-.927-2.375.015-3.31.18-.178.406-.355.552-.432a2.587 2.587 0 0 1 1.702-.228m7.21.021c.841.215 1.552.931 1.74 1.753.276 1.203-.499 2.464-1.74 2.831-.291.086-.868.096-1.18.021-.314-.076-.828-.333-1.051-.527a2.424 2.424 0 0 1-.786-2.071 2.09 2.09 0 0 1 .42-1.073 2.425 2.425 0 0 1 2.597-.934" fill-rule="evenodd"/></svg>