<svg viewBox="0 0 24 24" xmlns="http://www.w3.org/2000/svg"><path d="M11.46 3.421c-.374.028-.738.053-.81.055-.107.003-.13.02-.131.094-.001.179-.051.193-.243.068-.231-.15-.45-.187-1.322-.22l-.706-.026-.027.164c-.033.194-.081.235-.175.149-.118-.107-.356-.185-.555-.183-.24.002-1.644.177-1.675.209-.013.012-.054.32-.092.684l-.069.661.149.189c.116.148.152.232.163.382.007.106 0 .193-.016.193s-.426-.063-.911-.14c-.485-.077-.918-.14-.962-.14-.056 0-.087.034-.103.115-.023.113-.03.116-.349.142-.759.063-1.284.282-1.73.722-.491.485-.685 1.022-.646 1.791.026.5.097.713.431 1.285l.249.427-.225 1.197a37.485 37.485 0 0 0-.225 1.26c0 .047.692.975.92 1.233a3.3 3.3 0 0 0 .396.191c1.326.571 2.662.511 3.574-.163.23-.17.403-.365.661-.745.042-.061.047.088.027.828-.024.902-.024.905.081 1.22.059.175.122.333.14.352.019.019-.012.074-.069.124-.138.118-.164.446-.073.907.145.728.553 1.294 1.149 1.592.174.088.381.171.458.185.08.015.133.046.124.072-.052.138-.151.516-.138.529.008.008.426.114.929.236l.914.222.661.683.662.684.682-.699.682-.698.911-.214c.691-.161.907-.226.891-.267-.049-.129-.148-.498-.136-.507.008-.005.146-.057.307-.115.902-.326 1.447-1.147 1.447-2.177 0-.307-.009-.344-.1-.429l-.1-.093.097-.215c.118-.259.196-.679.177-.954l-.014-.201h.577c.455 0 .638.017.862.08.606.17 1.358.169 1.868-.002.318-.107.64-.301.873-.526.252-.243 1.176-1.532 1.321-1.842.232-.496.299-1.123.174-1.627a1.913 1.913 0 0 0-.392-.803l-.169-.22.453-1.3c.249-.715.453-1.31.453-1.322 0-.012-.508-.154-1.13-.316a81.407 81.407 0 0 1-1.181-.313c-.028-.01-.067.031-.09.097l-.04.114-.55.003c-.482.003-.586.016-.849.106-.165.057-.304.1-.308.096a3.773 3.773 0 0 1 .108-.385 3.14 3.14 0 0 0 .106-.387 5.584 5.584 0 0 0-.463-.038l-.453-.028.024-.243c.061-.641.113-1.55.091-1.573-.022-.022-.66-.082-.94-.089-.074-.002-.09-.019-.073-.082.017-.065.001-.08-.086-.079-.25.002-1.442.112-1.482.137-.024.015-.045.057-.045.094-.001.057-.013.055-.073-.018-.072-.085-.075-.085-.709-.033-.35.029-.639.055-.642.056a.638.638 0 0 0-.033.093l-.026.09-.046-.094c-.042-.087-.062-.092-.288-.071-.133.013-.388.035-.567.049l-.325.025-.058-.174-.058-.175-.217-.005c-.119-.003-.523.018-.897.046m1.317 1.581c.238.727.422 1.332.41 1.344-.012.012-.211.032-.443.044l-.42.021-.048-.19-.048-.191-.204.025a4.336 4.336 0 0 1-.37.025h-.165l-.035.19c-.034.187-.037.19-.214.217a4.156 4.156 0 0 1-.451.03c-.261.003-.27 0-.249-.087.024-.102.38-1.878.38-1.897 0-.007-.055-.013-.123-.013-.113 0-.122-.009-.101-.11.012-.061.042-.229.066-.375l.045-.265.586-.039c.323-.021.669-.041.77-.045l.182-.006.432 1.322m-2.738-1.13c.297.148.451.393.474.754.022.35-.05.58-.253.806l-.169.188.193.42c.163.353.183.422.128.434a3.85 3.85 0 0 1-.475-.013l-.409-.028-.129-.347a2.824 2.824 0 0 0-.164-.384c-.02-.022-.035.117-.035.328 0 .201-.013.373-.03.383-.016.01-.198.009-.404-.003l-.375-.022.026-.644c.013-.354.035-.783.048-.954.022-.296.019-.31-.061-.31-.104 0-.104-.012.005-.429l.09-.341.66.027c.611.024.678.035.88.135m6.601-.102c.001.111-.413 2.652-.436 2.676-.013.015-.251.039-.528.055l-.503.028-.175-.485c-.096-.266-.186-.462-.201-.434a3.47 3.47 0 0 0-.093.41c-.037.198-.076.408-.088.466-.02.105-.023.106-.508.138l-.521.035c-.028.001-.867-2.497-.867-2.582 0-.031.188-.058.684-.098l.304-.025.175.501c.096.275.182.493.191.484.009-.009.059-.235.11-.503.051-.267.101-.495.112-.505.037-.037.765-.08.786-.046.012.019.093.242.18.495s.167.46.179.46c.011 0 .062-.229.113-.51.051-.28.096-.513.1-.517.004-.004.205-.024.446-.044l.49-.043a.044.044 0 0 1 .05.044m-8.818.152c.325.2.393.745.129 1.028-.047.049-.077.096-.068.103l.152.106c.171.118.283.364.284.623.001.258-.161.532-.375.633-.15.071-1.487.256-1.531.211-.013-.012-.071-.433-.129-.934-.105-.906-.107-.912-.2-.902-.088.01-.092.001-.07-.16.012-.093.035-.274.049-.4.014-.126.029-.232.032-.233.003-.002.239-.036.525-.076.737-.101 1.038-.101 1.202.001m9.879.006c.007.007-.018.42-.055.917l-.067.905.26.025c.144.013.336.025.427.025h.166l-.117.389c-.064.213-.129.399-.146.413-.032.027-1.393-.053-1.424-.083-.01-.011.006-.334.036-.719.089-1.17.09-1.138-.014-1.153-.062-.009-.085-.034-.072-.08.01-.037.039-.211.065-.387l.047-.321.441.028a4.8 4.8 0 0 1 .453.041M9.24 4.76V5h.174c.198 0 .306-.087.306-.247 0-.145-.118-.233-.313-.233H9.24v.24m-2.25-.172c-.097.025-.1.323-.004.36.093.036.272-.074.286-.175.011-.075-.125-.223-.191-.208-.012.002-.052.013-.091.023m4.756.052a4.62 4.62 0 0 0-.065.32 5.196 5.196 0 0 1-.066.33c-.018.06.008.07.182.07.112 0 .203-.014.203-.03-.002-.097-.238-.739-.254-.69M7.028 5.71c.027.284.032.292.18.264.24-.045.329-.192.231-.377-.033-.06-.085-.077-.235-.077H7.01l.018.19m-1.711.491c.428.066.781.125.786.13.011.013-.487 1.827-.507 1.847-.009.009-.116-.017-.236-.058-.589-.197-1.195-.252-1.44-.13-.119.06-.14.09-.14.208 0 .18.113.246.73.429.661.196 1.083.402 1.331.65.684.684.693 1.965.019 2.715a2.294 2.294 0 0 1-.978.622c-.448.156-1.183.193-1.742.087-.321-.06-1.078-.308-1.146-.375-.028-.027.29-1.783.329-1.823.013-.012.253.059.534.158.788.278 1.26.31 1.433.097.172-.212-.008-.387-.574-.558-.969-.292-1.261-.432-1.557-.745-.257-.272-.387-.554-.446-.972-.093-.657.073-1.198.496-1.617.407-.404.831-.56 1.659-.611.426-.025.447-.031.47-.121.018-.074.044-.09.113-.074.049.011.439.075.866.141m16.13.417c.375.098.694.189.707.202.018.019-.396 1.333-.557 1.766-.031.085-.038.083-.366-.082-.823-.413-1.391-.456-1.391-.104 0 .147.084.206.726.511.65.308.922.491 1.119.751.237.314.325.602.322 1.058-.005.973-.522 1.657-1.468 1.945-.323.099-1.129.098-1.499 0a4.558 4.558 0 0 1-.921-.346l-.241-.121.061.145.06.145-.781-.03c-.43-.016-.837-.04-.905-.054-.119-.024-.135-.054-.392-.714a12.622 12.622 0 0 0-.288-.71c-.023-.023-.073.741-.073 1.13v.249l-1.41-.025a71.125 71.125 0 0 1-1.42-.033 3.825 3.825 0 0 1-.074-.354l-.065-.347H11.214l-.098.35-.097.35-.848.011-.847.011.036-.111c.046-.142.96-3.555.96-3.587 0-.013-.099-.024-.22-.024s-.22-.009-.22-.019c0-.025.278-1.219.305-1.311.019-.066.115-.07 1.465-.06l1.444.01.486 1.897c.268 1.043.496 1.88.508 1.86.012-.02.033-.379.048-.797.014-.418.036-.897.049-1.064l.024-.304-.164-.027c-.091-.014-.165-.039-.165-.055 0-.03.367-1.382.38-1.4.02-.029 2.464.115 2.6.154.364.103.745.365.905.624l.091.148.049-.258c.198-1.052 1.037-1.579 2.295-1.441.359.04.383.038.435-.037.03-.044.071-.08.092-.08.02 0 .344.08.72.178M9.99 7.25c-.01.027-.105.383-.21.79-.105.407-.207.758-.227.78-.02.022-.287.049-.592.061-.306.011-.564.029-.575.04-.01.01.015.667.056 1.459.042.792.076 1.541.077 1.666l.001.225-.57.026c-.314.014-.633.03-.71.034l-.14.009-.087-1.674c-.048-.92-.095-1.681-.105-1.691-.009-.01-.267-.002-.573.018a6.33 6.33 0 0 1-.569.024c-.016-.013.269-1.385.293-1.41.009-.009.472-.042 1.029-.073A21.828 21.828 0 0 0 8.15 7.46c.028-.01.05-.054.05-.099 0-.069.027-.082.19-.086.105-.002.424-.017.71-.033.867-.048.911-.047.89.008m5.539 1.995.011.495.25.012c.399.019.65-.16.659-.47.009-.331-.181-.489-.617-.514l-.315-.018.012.495m-3.702.267a20.14 20.14 0 0 0-.189.738c.001.017.17.03.376.03h.374l-.175-.728c-.097-.401-.18-.733-.186-.738-.005-.006-.095.309-.2.698m6.239.058c-.038.376-.247.769-.562 1.057l-.254.234.21.451c.115.248.22.461.232.473.012.012.126-.299.253-.692.127-.392.234-.718.237-.724.003-.006.251.108.55.253.789.383 1.197.436 1.344.172.095-.169-.012-.283-.467-.496-.874-.411-.989-.478-1.247-.728-.143-.137-.262-.25-.265-.25-.003 0-.017.113-.031.25m-5.485 3.221.688.71.916.217c.503.118.934.226.958.239.028.015-.054.35-.234.959l-.276.937.209.703c.115.387.24.815.279.95l.071.246-.961.233-.962.233-.684.715-.685.714-.687-.71-.687-.711-.945-.228a18.396 18.396 0 0 1-.964-.248c-.011-.01.099-.422.245-.915.145-.492.264-.931.264-.975 0-.044-.119-.475-.263-.957a26.303 26.303 0 0 1-.263-.908c0-.016.43-.133.956-.261l.957-.231.673-.709c.371-.39.681-.71.69-.711.009-.002.326.317.705.708m-4.391.986c.005.005.147.475.316 1.045l.306 1.036-.231.8c-.127.439-.252.861-.278.936l-.048.136-.241-.223c-.39-.361-.6-.844-.623-1.427l-.011-.3.275.013.275.013-.162-.193a1.826 1.826 0 0 1-.41-.804c-.058-.279-.029-.83.059-1.116l.064-.206.35.14c.192.078.353.145.359.15m3.33-.232c-.752.146-1.41.644-1.718 1.301-.437.934-.271 1.882.458 2.616.611.615 1.373.83 2.196.619a2.2 2.2 0 0 0 1.064-.601 2.26 2.26 0 0 0 .68-1.64c0-.561-.201-1.107-.562-1.528-.218-.254-.703-.571-1.03-.674-.262-.082-.875-.134-1.088-.093m4.839.125c.213.75.077 1.472-.365 1.952l-.173.188.289-.029.29-.029-.001.234a2.353 2.353 0 0 1-.247 1.024c-.133.25-.512.67-.603.669-.029 0-.156-.365-.317-.912l-.267-.912.296-1.015c.164-.558.311-1.028.329-1.046.048-.048.581-.267.658-.271.046-.002.082.047.111.147m-3.98.311a2.041 2.041 0 0 1 1.266 1.044c.128.261.135.297.135.715 0 .386-.012.462-.095.62-.149.284-.35.506-.585.648-.2.121-.218.144-.219.279-.002.268-.022.273-1.002.273-.858 0-.876-.002-.937-.089a.45.45 0 0 1-.062-.219c0-.105-.024-.142-.125-.194-.169-.088-.466-.367-.577-.542-.391-.617-.236-1.463.373-2.044.241-.23.616-.446.879-.509a2.49 2.49 0 0 1 .949.018m-1.072 1.326c-.065.065-.014.175.153.329.153.14.193.16.26.124.119-.063.098-.151-.075-.325-.144-.143-.274-.193-.338-.128m.841.125c-.165.169-.186.265-.07.327.132.071.474-.27.418-.416-.042-.108-.193-.07-.348.089m-1.227.158c-.244.043-.441.299-.441.573 0 .466.554.736.896.435.453-.398.131-1.111-.455-1.008m1.727.009c-.476.113-.561.837-.123 1.064.192.099.486.06.638-.086a.563.563 0 0 0 .163-.573c-.048-.159-.281-.404-.384-.404a.449.449 0 0 1-.109-.016.5.5 0 0 0-.185.015m-.902.991-.141.23.262.012c.144.006.271.004.28-.006.018-.017-.221-.466-.248-.466-.007 0-.076.103-.153.23" fill-rule="evenodd"/></svg>