<svg viewBox="0 0 24 24" xmlns="http://www.w3.org/2000/svg"><path d="M11.892 2.807c-.1.027-.463.395-1.607 1.628-1.367 1.474-1.491 1.597-1.652 1.636l-1.993.471-1.82.428-.97-.485c-1.011-.506-1.147-.549-1.318-.414-.281.22-.544 1.396-.545 2.429 0 .725.058 1.016.311 1.564.078.169.142.314.142.322 0 .008-.045.014-.099.014-.055 0-.159.053-.23.117l-.131.117.003.993c.003 1.148.074 1.681.313 2.35.209.586.431.947.824 1.342.506.507.894.711 1.779.931.265.066.487.126.495.132.007.007-.036.18-.096.385-.137.464-.135.575.01.716.1.098.308.156 1.972.555l1.86.445 1.343 1.368 1.342 1.367h.35l1.342-1.368 1.343-1.368 1.86-.445c2.318-.554 2.213-.486 1.982-1.27a2.593 2.593 0 0 1-.096-.386c.008-.007.248-.069.534-.137.375-.091.637-.183.94-.333.364-.18.467-.255.78-.57.413-.416.631-.767.844-1.364.238-.665.309-1.201.313-2.35l.003-.993-.131-.117c-.071-.064-.175-.117-.23-.117-.122 0-.122.002.001-.24.152-.301.284-.741.34-1.138.101-.715-.053-1.851-.362-2.678-.089-.239-.217-.344-.416-.344-.057 0-.539.218-1.072.485l-.97.485-1.48-.349-1.993-.471-.514-.121-1.476-1.59c-.917-.988-1.518-1.605-1.586-1.628a.46.46 0 0 0-.239-.004m1.51 2.473c.754.814 1.375 1.48 1.38 1.48.03 0 3.912.921 3.918.93.005.005-.249.865-.564 1.91-.315 1.045-.573 1.945-.573 2 0 .055.258.955.573 2 .315 1.045.568 1.906.563 1.912a98 98 0 0 1-1.925.466c-1.053.25-1.944.466-1.98.481-.037.015-.673.682-1.415 1.484-.741.801-1.362 1.457-1.379 1.457-.017 0-.638-.656-1.38-1.457-.742-.801-1.396-1.475-1.454-1.498a73.15 73.15 0 0 0-1.926-.464 74.39 74.39 0 0 1-1.884-.452c-.056-.025.013-.287.508-1.929.316-1.045.573-1.945.573-2 0-.055-.258-.955-.573-2a98.54 98.54 0 0 1-.565-1.91c.004-.005.852-.209 1.884-.452a75.99 75.99 0 0 0 1.981-.482c.057-.022.712-.697 1.455-1.498C11.361 4.456 11.983 3.8 12 3.8c.017 0 .648.666 1.402 1.48m-2.213 1.58a4.824 4.824 0 0 0-3.927 3.915 5.773 5.773 0 0 0 0 1.65 4.839 4.839 0 0 0 4.057 3.937c.503.074 1.369.029 1.844-.094a4.831 4.831 0 0 0 3.505-3.505c.123-.475.168-1.341.094-1.844A4.866 4.866 0 0 0 13.412 7c-.628-.194-1.555-.252-2.223-.14m-7.459.444c.38.19.696.35.703.356.03.028 1.167 3.866 1.167 3.94 0 .066-1.067 3.68-1.094 3.707a2.226 2.226 0 0 1-.267-.116c-.372-.178-.781-.596-.988-1.011a3.624 3.624 0 0 1-.352-1.02c-.067-.322-.155-1.605-.118-1.722.021-.066.049-.062.382.05.259.086.399.113.497.095.181-.034.3-.19.3-.391 0-.142-.027-.185-.272-.425-.452-.444-.695-.87-.826-1.447-.114-.499-.084-1.521.062-2.1.055-.218.07-.26.095-.26.012 0 .332.155.711.344m17.366-.021c.062.243.077.45.08 1.137.004.809 0 .851-.102 1.151a2.956 2.956 0 0 1-.747 1.178c-.277.269-.298.301-.298.457 0 .139.023.189.126.281.16.143.263.143.697-.004l.348-.118v.588c0 .915-.146 1.634-.451 2.226-.216.42-.625.838-.989 1.013l-.26.124-.037-.108c-.02-.059-.274-.895-.565-1.858l-.528-1.75.592-1.964c.326-1.08.598-1.969.605-1.975.056-.051 1.382-.694 1.413-.685.022.006.074.144.116.307M13 7.717a4 4 0 0 1 2.988 4.1c-.062 1.177-.516 1.91-1.526 2.465-.366.201-.417.259-.459.521-.024.155-.062.238-.141.305l-.106.092h-3.522l-.117-.117c-.085-.085-.117-.155-.117-.258 0-.239-.074-.337-.367-.491-.841-.442-1.307-.984-1.522-1.768-.127-.46-.125-1.489.002-1.966.115-.431.421-1.064.677-1.4.546-.718 1.36-1.266 2.19-1.474.46-.116.502-.12 1.12-.108.423.008.643.032.9.099m-2.483 2a.33.33 0 0 0-.117.278c0 .143.029.193.247.426.393.42.583.477.817.243.234-.234.177-.424-.243-.817-.233-.218-.283-.247-.426-.247a.33.33 0 0 0-.278.117m2.225.166c-.349.332-.417.476-.325.695a.39.39 0 0 0 .478.224c.131-.043.58-.471.66-.629a.39.39 0 0 0-.352-.573c-.147 0-.192.027-.461.283m-3.169.989c-.27.096-.474.255-.618.483-.389.613-.172 1.388.485 1.73.148.077.241.094.52.094.291 0 .369-.016.544-.107a1.21 1.21 0 0 0 .355-1.863c-.295-.344-.856-.491-1.286-.337m4.046-.002c-.26.093-.438.221-.583.422a1.197 1.197 0 0 0 .883 1.899c.391.028.661-.062.933-.31.279-.256.395-.513.395-.877a1.193 1.193 0 0 0-.664-1.073 1.343 1.343 0 0 0-.964-.061m-2.033 2.15-.386.58h1.6l-.386-.58c-.213-.319-.399-.58-.414-.58-.015 0-.201.261-.414.58" fill-rule="evenodd"/></svg>