<svg viewBox="0 0 24 24" xmlns="http://www.w3.org/2000/svg"><path d="M6.6 2.797c-.414.126-.615.391-.666.881l-.025.237-1.144.012-1.145.013-.203.107c-.229.121-.462.36-.566.582-.067.143-.071.567-.071 7.931v7.78l.095.209c.116.257.365.494.627.595.192.074.431.076 8.498.076s8.306-.002 8.498-.076c.262-.101.511-.338.627-.595l.095-.209v-7.78c0-7.364-.004-7.788-.071-7.931a1.403 1.403 0 0 0-.566-.582l-.203-.107-1.145-.013-1.144-.012-.025-.237a1.727 1.727 0 0 0-.087-.387.849.849 0 0 0-1.41-.236c-.178.193-.248.384-.249.675v.19H7.68v-.19c-.001-.291-.071-.482-.248-.674-.22-.239-.555-.343-.832-.259M5.928 5.19c.019.752.057.883.329 1.122.389.341 1.025.232 1.292-.223.108-.184.111-.208.124-.879l.014-.69h8.626l.014.69c.013.671.016.695.124.879.267.455.903.564 1.292.223.272-.239.31-.37.329-1.122l.017-.67h1.086c1.557 0 1.465-.094 1.465 1.498V7.12H3.36V6.018c0-1.219.009-1.272.252-1.42.119-.072.207-.078 1.213-.078h1.086l.017.67m1.952 4.89c.075.075.08.133.08.902 0 .819 0 .822-.098.92L7.764 12h-.958c-.883 0-.964-.006-1.052-.076-.093-.076-.094-.082-.094-.916 0-.77.006-.847.076-.924.074-.081.111-.084 1.07-.084.941 0 .998.004 1.074.08m3.447-.014c.066.06.073.144.073.92 0 .801-.005.859-.08.934-.076.076-.133.08-1.035.08-.905 0-.96-.004-1.06-.083l-.105-.083v-.837c0-.784.005-.842.08-.917.076-.076.133-.08 1.067-.08.862 0 .996.008 1.06.066m3.473.014c.075.075.08.133.08.917v.837l-.105.083c-.1.079-.155.083-1.06.083-.902 0-.959-.004-1.035-.08-.075-.075-.08-.133-.08-.927 0-.732.009-.857.066-.92.061-.067.148-.073 1.06-.073.941 0 .998.004 1.074.08m3.464.004c.07.077.076.155.076.924 0 .834-.001.84-.094.916-.088.07-.169.076-1.052.076h-.958l-.098-.098c-.098-.098-.098-.101-.098-.92 0-.769.005-.827.08-.902.076-.076.133-.08 1.074-.08.959 0 .996.003 1.07.084M7.867 13.247c.091.085.093.101.093.912 0 .776-.005.831-.082.913-.079.086-.104.088-1.073.088-.958 0-.995-.003-1.069-.084-.07-.077-.076-.154-.076-.924 0-.834.001-.84.094-.916.088-.07.169-.076 1.058-.076.934 0 .966.003 1.055.087m3.444-.025c.087.061.089.079.089.927 0 .748-.009.875-.066.938-.061.067-.148.073-1.06.073-.941 0-.998-.004-1.074-.08-.075-.075-.08-.133-.08-.907 0-1.113-.112-1.013 1.138-1.013.808 0 .979.01 1.053.062m3.476.025c.091.085.093.101.093.92 0 .78-.005.838-.08.913-.076.076-.133.08-1.067.08-.862 0-.996-.008-1.06-.066-.066-.06-.073-.144-.073-.938 0-.855.002-.873.089-.934.074-.052.245-.062 1.047-.062.929 0 .962.003 1.051.087m3.459-.011c.093.076.094.082.094.916 0 .77-.006.847-.076.924-.074.081-.111.084-1.07.084-.941 0-.998-.004-1.074-.08-.075-.075-.08-.133-.08-.907 0-1.113-.113-1.013 1.143-1.013.894 0 .975.006 1.063.076M7.862 16.418c.098.098.098.101.098.916 0 .745-.007.826-.076.912-.076.093-.084.094-1.007.106-1.029.014-1.125-.003-1.194-.202-.024-.069-.043-.435-.043-.838 0-.753.033-.924.189-.964.039-.01.49-.021 1.003-.023l.932-.005.098.098m3.481 0c.045.061.057.257.057.927v.849l-.108.085c-.104.082-.141.085-1.063.073-.95-.012-.957-.013-1.033-.106-.069-.086-.076-.167-.076-.912v-.818l.1-.1.1-.1.983.012c.92.011.987.017 1.04.09m3.439 0c.098.098.098.101.098.916 0 .745-.007.826-.076.912-.076.093-.083.094-1.033.106-.922.012-.959.009-1.063-.073l-.108-.085.001-.847c0-.466.013-.867.03-.89.08-.119.21-.135 1.121-.136l.932-.001.098.098" fill-rule="evenodd"/></svg>