<svg viewBox="0 0 24 24" xmlns="http://www.w3.org/2000/svg"><path d="M4.33 2.861c-.137.03-.344.104-.46.166-.278.148-.712.582-.845.842-.235.466-.224.044-.224 8.131s-.011 7.665.224 8.131c.136.268.576.708.844.844.466.236.041.224 8.151.222 6.901-.001 7.459-.007 7.703-.07.694-.181 1.284-.807 1.433-1.519.031-.15.044-2.364.043-7.62 0-8.073.011-7.653-.224-8.119-.245-.481-.848-.926-1.392-1.026-.166-.03-2.478-.042-7.62-.04-6.06.003-7.428.013-7.633.058M15.16 4.98v.82H8.84V4.16h6.32v.82m4.32 8.36v5.98H4.52V7.36h14.96v5.98M9.32 10.66v.98h2V9.68h-2v.98m3.32 0v.98h2V9.68h-2v.98m3.32 0v.98h1.96V9.68h-1.96v.98m-9.951 3.13.011.99.99.011.99.01V12.8H5.999l.01.99m3.32 0 .011.99h1.96l.011-.99.01-.99H9.319l.01.99m3.311.011v1l.99-.01.99-.011.011-.99.01-.99H12.64v1.001m3.32-.001v1h1.96v-2h-1.96v1m-9.942 2.171c-.011.028-.015.473-.009.99l.011.939.99.011.99.01V15.92h-.981c-.757 0-.986.012-1.001.051m3.311.939.011.99h1.96l.011-.99.01-.99H9.319l.01.99m3.311.01v1.001l.99-.01.99-.011v-1.96l-.99-.011-.99-.01v1.001" fill-rule="evenodd"/></svg>