<svg viewBox="0 0 24 24" xmlns="http://www.w3.org/2000/svg"><path d="M11.983 3.01c-.258.394-.926 1.999-1.198 2.878-.522 1.686-.652 2.709-.612 4.812.023 1.256.059 1.7.191 2.355.044.217.073.401.065.409-.008.009-.2-.23-.427-.529-.625-.825-.934-1.179-1.607-1.835C7.293 10.024 6.229 9.255 5 8.644c-.917-.456-1.597-.743-1.646-.694-.052.052.04.429.26 1.07.533 1.551 1.351 3.017 2.453 4.401.467.585 1.397 1.512 2.013 2.006.275.22.526.431.557.469.052.063.048.067-.04.048a16.14 16.14 0 0 0-1.337-.229c-.533-.061-2.26-.059-2.754.002-.821.103-2.186.499-2.186.635 0 .073 1.205.761 1.804 1.03a10.48 10.48 0 0 0 3.646.9c.357.024.801.056.987.071l.336.027-.416.267a8.495 8.495 0 0 0-1.533 1.278c-.338.359-.744.911-.744 1.011 0 .037.09.046.35.034.767-.033 1.51-.239 2.35-.651.889-.436 1.522-.9 2.228-1.634.236-.245.447-.445.47-.445.07 0 .048.294-.096 1.32a25.085 25.085 0 0 0-.15 1.219l-.012.238.16.029c.241.044.92.04 1.042-.007.105-.04.107-.048.082-.271a32.125 32.125 0 0 0-.265-1.409 56.46 56.46 0 0 1-.239-1.217c0-.022.293.249.65.602.725.715.918.881 1.343 1.155.856.552 2.318 1.052 3.129 1.069.174.004.33-.006.346-.023.076-.075-.207-.445-.788-1.029-.71-.714-1.026-.976-1.582-1.315-.217-.133-.369-.241-.336-.241.25-.001 1.472-.094 1.871-.142a10.462 10.462 0 0 0 4.105-1.398c.851-.509.835-.567-.237-.842-1.016-.261-1.645-.342-2.662-.343a8.805 8.805 0 0 0-2.09.209c-.304.064-.561.116-.573.116-.052 0 .062-.108.496-.468.728-.603 1.084-.937 1.554-1.46 1.554-1.727 2.692-3.724 3.197-5.611.146-.544.103-.552-.806-.15-1.503.666-2.65 1.411-3.887 2.525-.724.651-1.285 1.309-2.208 2.587-.162.223-.263.333-.272.293-.007-.035.041-.377.107-.76.184-1.07.217-1.453.217-2.556-.001-2.386-.427-4.451-1.35-6.53-.238-.536-.437-.91-.484-.91-.01 0-.045.041-.077.09" fill-rule="evenodd"/></svg>