<svg viewBox="0 0 24 24" xmlns="http://www.w3.org/2000/svg"><path d="M11.22 2.345c-1.35.141-2.354.421-3.48.973-2.881 1.41-4.789 4.013-5.326 7.262-.103.623-.104 2.171-.001 2.817.582 3.682 3.052 6.625 6.537 7.79a9.793 9.793 0 0 0 5.23.249 9.713 9.713 0 0 0 5.879-4.074 9.748 9.748 0 0 0 1.528-3.965c.102-.644.102-2.193-.001-2.817-.198-1.21-.586-2.339-1.143-3.321-1.489-2.627-4.026-4.371-7.043-4.839-.403-.062-1.831-.112-2.18-.075M8.331 8.583c.729.249.984 1.224.456 1.752-.184.184-.548.385-.696.385-.167 0-.151-.11.047-.322.281-.3.355-.499.334-.894-.02-.371-.097-.554-.271-.643-.165-.086-.349-.075-.581.033-1.051.492-2.019 2.543-1.765 3.739.121.57.348.922.715 1.104.508.254 1.246.049 1.954-.541.178-.148.186-.164.205-.411.065-.809.836-1.49 1.596-1.411.275.029.434.101.551.251a.542.542 0 0 1 .041.501c-.063.117-.293.202-.462.17-.186-.034-.218-.126-.082-.234.309-.246-.124-.544-.518-.357-.438.208-.706.983-.498 1.44.088.194.121.219.291.224.17.005.389-.239.483-.536.088-.281.252-.442.457-.448l.152-.005-.005.22a7.26 7.26 0 0 1-.02.411c-.025.322.094.336.51.06l.244-.163.115-.624c.1-.545.128-.638.224-.736.095-.097.136-.111.301-.1l.191.012-.001.18c0 .099-.015.252-.033.34l-.032.16.233-.228c.441-.431.955-.653 1.135-.491.104.095.102.337-.005.643-.045.13-.133.428-.195.662-.093.35-.105.442-.067.519.026.052.079.1.119.108.118.023.494-.187.707-.394l.199-.194v-.269c0-.413.073-.762.189-.9.132-.156.315-.249.435-.218.122.03.124.124.008.532-.136.48-.119 1.41.026 1.41.063 0 .463-.423.61-.644l.101-.153-.14-.163c-.343-.401-.287-1.121.108-1.392.278-.191.634-.137.765.116.091.176.061.664-.055.916-.083.178-.083.18-.005.193.158.025.344-.078.636-.354.374-.352.632-.483 1.004-.51.499-.036.838.168.838.503 0 .215-.049.31-.199.388-.153.078-.32.076-.438-.006l-.095-.067.132-.107c.11-.09.127-.125.104-.216-.038-.152-.247-.237-.464-.188-.214.048-.337.132-.481.332-.319.44-.315 1.208.006 1.375.102.053.128.052.236-.003.149-.078.325-.315.399-.54.136-.411.593-.597.633-.258.008.063-.044.286-.114.496-.114.341-.123.4-.083.547.024.09.098.232.164.315.134.169.149.24.058.275-.065.025-.295-.081-.444-.204-.123-.101-.294-.368-.294-.458 0-.068-.017-.064-.15.041-.23.18-.394.218-.633.147a.869.869 0 0 1-.516-.457c-.052-.102-.066-.211-.055-.446l.014-.31-.112.058a1.13 1.13 0 0 1-.312.082c-.186.022-.213.04-.373.248-.232.302-.722.759-.887.828-.319.134-.456.051-.541-.329l-.047-.211-.181.159c-.28.247-.738.457-.994.457-.178 0-.229-.018-.322-.111-.106-.106-.111-.128-.111-.5 0-.337.018-.443.138-.798.075-.225.126-.42.113-.434-.051-.051-.201.036-.406.236-.323.316-.505.619-.611 1.018-.098.37-.222.539-.434.592-.17.043-.22-.003-.22-.202 0-.099-.011-.181-.024-.181a.578.578 0 0 0-.136.08c-.208.148-.538.279-.705.28-.175 0-.375-.119-.375-.223 0-.081-.056-.07-.144.029-.263.295-.814.241-1.078-.105l-.107-.14-.273.25c-.454.414-.928.66-1.453.754-.905.162-1.758-.466-1.947-1.434-.069-.354-.031-1.112.077-1.519.464-1.768 2.034-3.164 3.136-2.789m7.432 2.615c-.073.045-.099.332-.045.495a.962.962 0 0 0 .133.252l.087.11.027-.098c.041-.147.04-.539-.002-.649-.041-.109-.126-.156-.2-.11" fill-rule="evenodd"/></svg>