<svg viewBox="0 0 24 24" xmlns="http://www.w3.org/2000/svg"><path class="st0" style="fill:none" d="M0 0h24v24H0z"/><path class="st0" d="M.023 6.684c.001.048.004.096.004.144v22.956c0 .156 0 .156.161.156h23.087c-.005.006.009.019-.01.019H.004v-.132L.005 6.765c.001-.026-.02-.062.018-.081Z" style="fill:#dcb9cb"/><path class="st0" style="fill:none" d="M7.054 2.514h24v24h-24z"/><path d="M21.434 6.543h4.043c.397.022.852.202 1.108.458.256.256.459.711.459 1.109 0 .397-.203.852-.459 1.108-.256.256-.711.437-1.108.459h-3.423c-.311.809-.715 1.301-1.414 1.712v9.029h4.837c.397.022.852.203 1.108.459.257.256.459.712.459 1.109s-.203.852-.459 1.108c-.256.256-.711.436-1.108.458H12.668c-.397-.022-.852-.202-1.108-.458a1.704 1.704 0 0 1-.459-1.108c0-.397.203-.853.459-1.109s.711-.437 1.108-.459h4.837v-9.035c-.741-.458-1.143-.948-1.418-1.706h-3.419c-.397-.022-.852-.203-1.108-.459a1.704 1.704 0 0 1-.459-1.108c0-.398.203-.853.459-1.109s.711-.436 1.108-.458h4.043c.58-.612 1.369-1.068 2.362-1.068.992 0 1.781.451 2.361 1.068Zm-.486 1-.14-.199c-.407-.578-.981-.869-1.735-.869-.755 0-1.329.291-1.737.869l-.14.199h-4.528c-.193-.022-.272.036-.401.166-.13.129-.166.208-.166.401 0 .193.036.271.166.401s.208.188.401.166h4.215l.065.401c.12.747.566 1.278 1.257 1.552l.3.118v10.67h-5.837c-.193-.022-.271.036-.401.166s-.166.208-.166.402c0 .193.036.271.166.4.129.13.208.188.401.166h12.809c.193.022.272-.036.401-.166.13-.129.166-.207.166-.4 0-.194-.036-.272-.166-.402s-.208-.188-.401-.166H19.64V10.747l.301-.118c.691-.27 1.136-.801 1.256-1.551l.064-.401h4.216c.193.022.271-.036.401-.166s.166-.208.166-.401c0-.193-.036-.272-.166-.401-.129-.13-.208-.188-.401-.166h-4.529Zm7.813 9.605h-6.569l3.285-5.636 3.284 5.636Zm-4.829-1h3.089l-1.544-2.65-1.545 2.65Zm1.545 4.202c-1.12 0-2.219-.324-3.02-.832-.812-.514-1.441-1.339-1.67-2.185-.081-.499.066-1.059.278-1.437l3.176-5.442c.26-.379.782-.709 1.236-.709.454 0 .978.334 1.236.708l3.176 5.444c.212.378.357.939.276 1.439-.228.846-.856 1.668-1.668 2.182-.801.508-1.901.832-3.02.832Zm2.485-1.677c.675-.427 1.098-.919 1.23-1.569.091-.234-.001-.427-.169-.705l-3.174-5.442c-.076-.194-.166-.212-.372-.212-.208 0-.298.016-.372.211L21.929 16.4c-.168.278-.259.47-.168.704.133.65.556 1.142 1.231 1.569.685.434 1.507.677 2.485.677s1.799-.243 2.485-.677ZM9.343 17.148l3.285-5.635 3.29 5.635H9.343Zm3.285-3.651-1.545 2.651h3.093l-1.548-2.651Zm-4.686 3.837c-.081-.501.068-1.062.278-1.438l3.175-5.441c.26-.38.783-.71 1.236-.71.455 0 .978.333 1.236.708l3.177 5.444c.212.378.358.939.276 1.44-.229.846-.858 1.667-1.671 2.181-.801.508-1.901.832-3.021.832-1.12 0-2.219-.324-3.019-.832-.811-.514-1.439-1.338-1.667-2.184Zm2.202 1.34c.685.433 1.506.676 2.484.676.979 0 1.801-.243 2.487-.677.675-.427 1.099-.919 1.233-1.57.091-.233-.001-.426-.17-.704l-3.175-5.442c-.074-.193-.165-.212-.372-.212s-.298.016-.37.21L9.084 16.4c-.168.28-.261.471-.169.703.133.651.556 1.144 1.229 1.571Z" style="fill:none"/><path d="M21.434 6.543h4.043c.397.022.852.202 1.108.458.256.256.459.711.459 1.109 0 .397-.203.852-.459 1.108-.256.256-.711.437-1.108.459h-3.423c-.311.809-.715 1.301-1.414 1.712v9.029h4.837c.397.022.852.203 1.108.459.257.256.459.712.459 1.109s-.203.852-.459 1.108c-.256.256-.711.436-1.108.458H12.668c-.397-.022-.852-.202-1.108-.458a1.704 1.704 0 0 1-.459-1.108c0-.397.203-.853.459-1.109s.711-.437 1.108-.459h4.837v-9.035c-.741-.458-1.143-.948-1.418-1.706h-3.419c-.397-.022-.852-.203-1.108-.459a1.704 1.704 0 0 1-.459-1.108c0-.398.203-.853.459-1.109s.711-.436 1.108-.458h4.043c.58-.612 1.369-1.068 2.362-1.068.992 0 1.781.451 2.361 1.068Zm-.486 1-.14-.199c-.407-.578-.981-.869-1.735-.869-.755 0-1.329.291-1.737.869l-.14.199h-4.528c-.193-.022-.272.036-.401.166-.13.129-.166.208-.166.401 0 .193.036.271.166.401s.208.188.401.166h4.215l.065.401c.12.747.566 1.278 1.257 1.552l.3.118v10.67h-5.837c-.193-.022-.271.036-.401.166s-.166.208-.166.402c0 .193.036.271.166.4.129.13.208.188.401.166h12.809c.193.022.272-.036.401-.166.13-.129.166-.207.166-.4 0-.194-.036-.272-.166-.402s-.208-.188-.401-.166H19.64V10.747l.301-.118c.691-.27 1.136-.801 1.256-1.551l.064-.401h4.216c.193.022.271-.036.401-.166s.166-.208.166-.401c0-.193-.036-.272-.166-.401-.129-.13-.208-.188-.401-.166h-4.529Zm7.813 9.605h-6.569l3.285-5.636 3.284 5.636Zm-4.829-1h3.089l-1.544-2.65-1.545 2.65Zm1.545 4.202c-1.12 0-2.219-.324-3.02-.832-.812-.514-1.441-1.339-1.67-2.185-.081-.499.066-1.059.278-1.437l3.176-5.442c.26-.379.782-.709 1.236-.709.454 0 .978.334 1.236.708l3.176 5.444c.212.378.357.939.276 1.439-.228.846-.856 1.668-1.668 2.182-.801.508-1.901.832-3.02.832Zm2.485-1.677c.675-.427 1.098-.919 1.23-1.569.091-.234-.001-.427-.169-.705l-3.174-5.442c-.076-.194-.166-.212-.372-.212-.208 0-.298.016-.372.211L21.929 16.4c-.168.278-.259.47-.168.704.133.65.556 1.142 1.231 1.569.685.434 1.507.677 2.485.677s1.799-.243 2.485-.677ZM9.343 17.148l3.285-5.635 3.29 5.635H9.343Zm3.285-3.651-1.545 2.651h3.093l-1.548-2.651Zm-4.686 3.837c-.081-.501.068-1.062.278-1.438l3.175-5.441c.26-.38.783-.71 1.236-.71.455 0 .978.333 1.236.708l3.177 5.444c.212.378.358.939.276 1.44-.229.846-.858 1.667-1.671 2.181-.801.508-1.901.832-3.021.832-1.12 0-2.219-.324-3.019-.832-.811-.514-1.439-1.338-1.667-2.184Zm2.202 1.34c.685.433 1.506.676 2.484.676.979 0 1.801-.243 2.487-.677.675-.427 1.099-.919 1.233-1.57.091-.233-.001-.426-.17-.704l-3.175-5.442c-.074-.193-.165-.212-.372-.212s-.298.016-.37.21L9.084 16.4c-.168.28-.261.471-.169.703.133.651.556 1.144 1.229 1.571Z" style="fill:none"/><path d="M31.029 6.411a6.862 6.862 0 0 1 1.95 4.786 6.752 6.752 0 0 1-1.936 4.753c-1.318 1.272-3.09 2.016-4.834 2.016-1.745 0-3.485-.745-4.768-2.002-1.257-1.284-1.984-3.006-1.984-4.767 0-1.744.744-3.5 1.999-4.8a6.733 6.733 0 0 1 4.753-1.97c1.813 0 3.535.728 4.82 1.984Zm-4.82-.984c-1.621 0-2.954.542-4.041 1.672-1.149 1.14-1.711 2.544-1.711 4.098 0 1.571.543 2.939 1.692 4.06 1.121 1.149 2.507 1.709 4.06 1.709 1.554 0 2.976-.562 4.132-1.728 1.112-1.067 1.638-2.418 1.638-4.041 0-1.608-.527-2.976-1.658-4.078-1.121-1.148-2.489-1.692-4.112-1.692Zm.017.134c1.507 0 2.949.612 3.996 1.658a5.583 5.583 0 0 1 1.409 2.436h.159l-.139.073c.127.477.193.972.193 1.469a5.61 5.61 0 0 1-1.609 3.947c-1.094 1.049-2.574 1.672-4.009 1.672-1.454 0-2.915-.613-3.961-1.658-1.044-1.045-1.675-2.523-1.675-3.961 0-1.455.642-2.918 1.672-3.992a5.636 5.636 0 0 1 3.964-1.644Zm-3.25 2.344c-.928.92-1.386 2.033-1.386 3.292 0 1.242.469 2.34 1.383 3.253.912.913 1.993 1.366 3.253 1.366 1.245 0 2.375-.443 3.309-1.386.905-.86 1.309-1.918 1.309-3.233 0-.347-.031-.679-.094-.995l-1.829.96 1.571.8-.274.446c-.415.677-1.237 1.233-2.081 1.233-.64 0-1.3-.249-1.702-.653a1.759 1.759 0 0 1-.149-.17c-.449.478-1.1.823-1.765.823-.64 0-1.301-.249-1.703-.653-.399-.401-.665-1.078-.665-1.791 0-.707.282-1.382.679-1.782.401-.405 1.052-.662 1.654-.662a2.5 2.5 0 0 1 1.83.81c.042-.053.087-.103.132-.149.402-.404 1.053-.661 1.655-.661.799 0 1.622.407 2.097 1.161l-.163-.259h.568a4.402 4.402 0 0 0-1.091-1.728c-.913-.914-1.977-1.366-3.288-1.366-1.312 0-2.371.421-3.25 1.344Zm1.883 2.899c-.044-.134-.079-.144-.156-.189-.055-.032-.046-.03-.085-.03-.185 0-.166-.009-.237.097-.08.12-.104.248-.104.515 0 .258.029.383.115.507.077.11.062.104.226.104.115 0 .12 0 .174-.035.064-.041.085-.052.136-.2l.093-.272Zm.445.358.472.24a2.788 2.788 0 0 1 .008-.492Zm.216-1.243-.066.035c.114.117.066-.035.066-.035Zm-1.932.155a.649.649 0 0 0-.046.045c-.265.266-.389.563-.389 1.078 0 .53.115.825.374 1.086.063.063.127.116.194.161a1.022 1.022 0 0 1-.15-.169c-.19-.274-.294-.704-.294-1.078 0-.365.087-.793.273-1.071.012-.017.024-.035.038-.052Zm4.888.73c-.044-.134-.079-.144-.156-.189-.055-.032-.047-.03-.086-.03-.185 0-.165-.01-.236.096-.08.12-.104.249-.104.516 0 .258.029.384.115.507.076.111.061.104.225.104.116 0 .121 0 .175-.035.064-.041.085-.052.136-.2l.093-.272Zm-1.272-.73-.046.045c-.265.267-.389.563-.389 1.078 0 .53.115.825.374 1.085.063.063.127.117.194.162a1.064 1.064 0 0 1-.15-.169c-.19-.274-.293-.704-.293-1.078 0-.365.087-.792.272-1.07l.038-.053Z" style="fill:none"/><path d="m10.756 1.373-.311.063a.942.942 0 0 0-.274.086.845.845 0 0 1-.181.082 1.15 1.15 0 0 0-.239.117c-.132.092-.12.089-.242.045-.131-.046-.452-.06-.769-.034-.316.026-.421.056-.783.228a4.46 4.46 0 0 1-.218.097c-.038.013-.074.039-.081.056-.007.016-.026.03-.043.03-.02 0-.035.008-.035.019 0 .009-.023.028-.051.041-.056.026-.118.077-.326.273a.669.669 0 0 0-.137.155c0 .041-.106.085-.241.097-.266.027-.685.329-.796.573a.714.714 0 0 1-.071.119c-.068.092-.096.33-.091.738l.006.353-.076.048c-.08.05-.189.169-.189.206 0 .012-.021.042-.045.068-.079.082-.105.199-.105.473 0 .266.013.337.099.516.08.166.066.296-.05.453a.243.243 0 0 0-.049.108.448.448 0 0 1-.048.137.922.922 0 0 0-.102.284.54.54 0 0 1-.052.15 1.182 1.182 0 0 0-.076.273 2.095 2.095 0 0 1-.086.375.784.784 0 0 0-.066.277c0 .116-.042.382-.068.43-.014.024-.026.229-.03.48-.01.48-.007.472-.149.538-.09.042-.331.259-.331.296 0 .009-.021.03-.044.045-.023.015-.042.038-.042.05 0 .026-.067.177-.127.287-.108.199-.008.718.179.929.04.046.043.077.043.487 0 .32.008.444.027.465.016.013.028.053.028.084 0 .033.008.064.019.071a.638.638 0 0 1 .067.163.613.613 0 0 0 .064.161c.05.031.086.156.087.308 0 .09.01.245.019.346l.018.182-.063.05c-.034.028-.061.062-.061.078 0 .015-.014.04-.032.053a.216.216 0 0 0-.045.094.37.37 0 0 1-.046.119c-.024.04-.029.086-.019.205.02.226.018.262-.022.339-.053.099-.053.416-.001.496.019.03.037.066.037.079 0 .012.019.043.042.069.033.036.042.075.042.178 0 .174.042.485.071.521.014.016.03.248.04.566.009.32.026.547.039.561.013.012.022.049.022.081s.01.065.022.071c.012.009.022.037.022.066 0 .027.009.056.02.064.012.007.022.06.022.119 0 .129.042.431.066.459a.558.558 0 0 1 .031.146c.008.069.024.129.034.135.011.007.019.062.019.122a.7.7 0 0 0 .076.318c.017.031.04.122.052.204.024.159.047.25.109.438.021.064.045.167.055.225a.867.867 0 0 0 .065.213.879.879 0 0 1 .065.214c.006.06.028.138.046.174l.05.102c.01.02.018.056.018.079s.01.048.021.053c.011.007.026.044.034.082.009.038.042.123.075.188l.159.326c.056.115.108.21.116.214a.394.394 0 0 1 .055.093c.023.047.064.116.091.154a.288.288 0 0 1 .051.088c0 .011.019.037.042.058.023.021.042.051.042.064 0 .014.025.048.055.076.029.027.053.062.053.079 0 .015.019.039.044.054.023.015.042.038.042.052 0 .014.037.055.081.091.043.039.133.119.197.182.066.063.148.132.183.154.036.023.083.059.108.081.037.034.138.102.386.263.093.06.252.138.284.138.015 0 .09.034.168.075a.677.677 0 0 0 .192.075c.029 0 .106.024.172.053.292.129 1.245.139 1.565.016a1.68 1.68 0 0 1 .268-.079.976.976 0 0 0 .214-.069 1.4 1.4 0 0 1 .246-.084c.071-.015.194-.056.273-.092.078-.037.149-.067.155-.067a.498.498 0 0 0 .093-.051.597.597 0 0 1 .156-.065.65.65 0 0 0 .15-.055l.225-.117c.303-.156.588-.332.728-.452.06-.05.149-.112.198-.136a.836.836 0 0 0 .15-.102c.092-.086.389-.309.411-.309.011 0 .037-.02.06-.046a.711.711 0 0 1 .116-.094.876.876 0 0 0 .123-.094c.025-.025.054-.045.064-.045a.623.623 0 0 0 .121-.086.803.803 0 0 1 .117-.086c.009 0 .058-.04.111-.088.053-.047.144-.12.203-.158.06-.039.13-.091.156-.116a.221.221 0 0 1 .06-.045c.013 0 .221-.177.356-.305.046-.044.116-.101.154-.127.037-.026.131-.101.207-.168a1.94 1.94 0 0 1 .285-.216c.004 0 .171-.159.371-.354.2-.195.397-.382.438-.414.104-.079.43-.399.43-.423 0-.009.015-.032.033-.051.067-.07.159-.201.159-.227 0-.013.026-.073.058-.131.068-.128.113-.367.114-.603 0-.097.014-.27.032-.386.06-.413.087-.773.082-1.093l-.005-.324.251-.01c.376-.012.753-.208 1.024-.53.023-.029.062-.073.087-.099.074-.076.181-.23.181-.259 0-.023.039-.109.09-.2a.521.521 0 0 0 .03-.064.979.979 0 0 1 .04-.086.605.605 0 0 0 .041-.159.59.59 0 0 1 .044-.161.927.927 0 0 0 .098-.356.73.73 0 0 1 .052-.214c.066-.102.122-.933.081-1.211-.019-.131-.016-.142.032-.19a.23.23 0 0 0 .05-.061c0-.006.029-.036.063-.064a.469.469 0 0 0 .093-.112c.016-.032.052-.094.078-.141.058-.102.106-.232.132-.352a1.03 1.03 0 0 1 .049-.161c.072-.165.094-.32.119-.82.012-.262.016-.279.061-.3.027-.011.048-.027.048-.035a.32.32 0 0 1 .065-.079c.043-.044.064-.086.064-.13 0-.035.01-.071.022-.078.026-.016.029-.41.002-.427-.01-.006-.025-.043-.032-.082-.027-.159-.041-.21-.057-.21-.015 0-.059-.152-.105-.369a.32.32 0 0 0-.047-.115c-.021-.026-.032-.165-.043-.536-.012-.368-.026-.527-.051-.602-.038-.111-.098-.229-.124-.24-.008-.004-.015-.02-.015-.037 0-.015-.063-.069-.139-.12-.108-.071-.142-.105-.151-.156a.77.77 0 0 0-.03-.108 1.921 1.921 0 0 1-.077-.264c-.008-.038-.023-.075-.034-.081-.011-.007-.02-.029-.02-.049 0-.055-.22-.251-.329-.292l-.096-.037-.015-.138c-.006-.075-.023-.142-.034-.149-.011-.007-.019-.031-.019-.056a.843.843 0 0 0-.135-.35 1.18 1.18 0 0 1-.091-.15.465.465 0 0 0-.139-.193 1.385 1.385 0 0 1-.129-.128c-.12-.136-.195-.2-.266-.229a.311.311 0 0 1-.076-.04.706.706 0 0 0-.244-.14l-.089-.026.007-.119c.004-.069-.003-.124-.016-.132-.013-.008-.024-.041-.024-.072a.215.215 0 0 0-.042-.112.216.216 0 0 1-.042-.074c-.002-.026-.314-.334-.34-.334-.011 0-.033-.014-.046-.03a.375.375 0 0 0-.126-.068 3.218 3.218 0 0 1-.24-.101c-.129-.062-.16-.067-.43-.075-.283-.009-.364-.025-.364-.073 0-.047-.131-.293-.161-.304-.018-.007-.031-.024-.031-.039s-.03-.048-.066-.071c-.034-.024-.064-.055-.064-.07 0-.015-.009-.027-.023-.027a.292.292 0 0 1-.093-.053.335.335 0 0 0-.084-.054c-.009 0-.037-.02-.063-.046a.641.641 0 0 0-.252-.126.555.555 0 0 1-.14-.05c-.382-.184-1.096-.276-1.444-.188l-.116.03-.09-.094c-.236-.247-.287-.266-.73-.265h-.364l-.146.072-.145.071-.091-.061a.723.723 0 0 1-.101-.077c-.043-.055-.438-.109-.579-.079m3.562 4.797c.153.056.298.131.448.232.311.207.313.211.282.725-.03.487-.031 1.994-.001 2.291.011.123.035.333.052.469.017.135.042.405.054.6.014.196.04.456.057.58a7.153 7.153 0 0 1-.001 1.426 9.718 9.718 0 0 0-.056.651c-.02.369-.031.44-.097.668a3.66 3.66 0 0 0-.075.28c0 .065-.279.652-.389.817-.375.563-.841.543-.949-.041-.079-.429-.018-.663.244-.937.341-.356.437-.622.285-.79a1.135 1.135 0 0 1-.101-.149c-.065-.113-.15-.173-.311-.221-.153-.046-.14-.072.122-.25.326-.221.453-.352.541-.564.184-.435.079-.827-.256-.97a.533.533 0 0 1-.108-.06c-.068-.059-.636-.335-.75-.365a2.879 2.879 0 0 1-.217-.065c-.465-.166-1.266-.126-1.961.101-.428.14-.476.151-.633.153a.55.55 0 0 1-.403-.133c-.296-.233-.53-.019-.322.298.06.091.061.103.049.269-.033.418.08.881.31 1.272.144.247.521.539.806.625.228.07.44.16.412.176-.029.016-.35.093-.53.127-.791.149-1.364.214-2.435.278-.488.03-1.095-.008-1.413-.088-.132-.033-.11-.054.078-.07.153-.012.45-.105.799-.25.405-.166.857-.503 1.092-.813.358-.474.413-.639.421-1.268.001-.135.004-.302.006-.37.004-.255-.226-.318-.376-.102-.135.195-.343.211-.929.069-.2-.049-.427-.103-.503-.123a7.626 7.626 0 0 0-.344-.065l-.461-.075a7.649 7.649 0 0 0-.505-.063c-.262-.02-.364-.038-.364-.063 0-.066.378-.282.576-.327.174-.041.989-.034 1.215.01.77.146.867.148 1.025.028.158-.12.162-.305.009-.479-.12-.136-.592-.446-.744-.488a1.712 1.712 0 0 1-.183-.078c-.465-.222-1.513-.222-2.017 0-.207.092-.223.07-.223-.288 0-.397.086-1.009.193-1.361.024-.076.056-.192.073-.258.052-.191.196-.607.248-.707l.046-.092.111.012c.061.005.188.038.282.071.285.098.699.089.977-.022.3-.12.31-.121.446-.089.067.017.167.036.22.043a.468.468 0 0 1 .225.11c.241.183.265.191.58.191.27 0 .283.003.365.059a.626.626 0 0 0 .498.098 1.31 1.31 0 0 1 .37-.023c.236.012.273.003.468-.111.034-.02.088-.026.161-.019a.625.625 0 0 0 .256-.032c.143-.045.148-.045.225-.006.4.201.789.145 1.431-.202.723-.391 1.074-.447 1.599-.252m-2.103 2.596c-.437.079-.923.26-1.33.498-.077.043-.202.116-.279.161-.451.259-.659.488-.664.73-.004.215.228.357.481.293.344-.086.505-.131.579-.164.18-.078.743-.143 1.019-.117.929.084 1.108.129 1.663.415.709.364 1.147.343 1.258-.059.189-.697-.617-1.524-1.644-1.688a2.845 2.845 0 0 1-.272-.054c-.116-.03-.675-.04-.811-.015m.6 1.945c.38.059 1.132.392 1.307.581.236.257.09.682-.329.961-.72.477-.774.474-.79-.049-.014-.418-.094-.631-.335-.887-.617-.654-1.951-.177-2.063.737-.04.32-.04.321-.092.321-.2 0-.399-.495-.409-1.012-.004-.289.012-.304.364-.32.322-.015.376-.025.578-.105.563-.225 1.222-.309 1.769-.227m-6.376.087c.918.138 1.006.189.444.257-.84.101-1.377.72-1.221 1.406.082.356.069.399-.099.325-.195-.084-.444-.442-.583-.84-.075-.212-.112-.796-.06-.952.074-.223.753-.31 1.519-.196m11.412.219c.4.228.549.731.467 1.579-.022.227-.053.46-.068.519l-.086.319c-.168.643-.538 1.07-1.007 1.165-.293.06-.456-.027-.502-.266a4.547 4.547 0 0 0-.055-.256c-.045-.19-.045-1.389 0-1.629.017-.093.043-.288.055-.433.025-.267.04-.328.136-.544.175-.389.747-.633 1.06-.454m-9.912.06c.257.08.603.125.837.108.266-.02.285-.002.285.264 0 .39-.306.884-.734 1.184-.281.198-.337.145-.24-.232.133-.526-.082-.979-.588-1.237-.198-.1-.175-.14.083-.14.142 0 .232.013.357.053m5.722 2.013c.095.07-.028.165-.449.355-.188.085-.401.183-.472.218a3.765 3.765 0 0 1-.539.214c-.072.021-.151.05-.176.062-.07.037-.686.209-.851.237a3.208 3.208 0 0 0-.289.066 2.62 2.62 0 0 1-.419.064 3.502 3.502 0 0 0-.365.043c-.462.111-2.697.174-3.163.089-.413-.075-1.341-.36-1.599-.491a1.578 1.578 0 0 0-.168-.07c-.15-.049-.18-.237-.043-.271.08-.02.413.01.547.048.946.278 1.343.323 2.615.301.903-.016 1.185-.037 1.764-.121l.595-.088c.088-.012.204-.035.256-.053.053-.017.217-.046.366-.064.147-.019.331-.052.407-.075.077-.022.241-.061.363-.086.247-.049.592-.131.774-.185.065-.018.2-.056.3-.082.101-.026.236-.068.3-.093.139-.053.192-.057.246-.018m-8.149.082c.115.083.119.104.019.104-.128 0-.211-.09-.146-.157.022-.022.025-.02.127.053m8.205.368c0 .163-.824.713-1.395.931l-.332.128a4.41 4.41 0 0 1-.312.107 7.492 7.492 0 0 0-.29.085 4.857 4.857 0 0 1-.321.085 4.685 4.685 0 0 0-.279.072 1.945 1.945 0 0 1-.328.064 4.416 4.416 0 0 0-.375.066c-.666.157-2.787.157-3.32-.001a3.792 3.792 0 0 0-.298-.054c-.204-.028-.393-.086-.889-.266-.471-.172-.696-.363-.558-.472.086-.067.117-.061.619.099.444.141.768.216 1.105.255.137.015.319.045.408.065.231.056 1.835.057 2.141.002.11-.02.361-.05.557-.066.391-.034 1.354-.188 1.47-.237.039-.017.139-.041.221-.056.082-.014.21-.048.285-.077.076-.027.194-.065.263-.083.124-.033.381-.131.576-.221l.3-.134c.112-.05.23-.109.262-.131a.828.828 0 0 1 .177-.081c.066-.024.141-.056.167-.074.057-.041.146-.044.146-.006" fill-rule="evenodd"/></svg>