<svg viewBox="0 0 24 24" xmlns="http://www.w3.org/2000/svg"><path d="M10.465 1.421c-.129.033-.378.13-.553.216-.279.137-.334.151-.439.114-.072-.025-.312-.034-.589-.022-.439.018-.491.029-.832.179-.378.167-.793.456-.939.653-.062.084-.14.127-.289.158a1.463 1.463 0 0 0-.719.451c-.19.248-.236.418-.241.883l-.004.433-.168.175c-.262.274-.325.666-.172 1.069.104.272.102.29-.043.611-.151.332-.241.624-.371 1.199-.157.698-.186.901-.186 1.292 0 .301-.013.379-.07.427-.39.33-.489.441-.571.643-.117.288-.098.607.053.898.095.183.108.252.108.594 0 .375.077.702.237 1 .024.045.055.245.069.444.021.294.014.376-.035.432-.12.138-.166.275-.203.61-.055.507-.052.685.018.84.082.181.153.683.194 1.36.019.316.058.612.096.715.035.096.064.231.065.3.002.238.262 1.367.537 2.325.166.58.503 1.281.857 1.783.334.474.97.969 1.534 1.195.539.216.751.253 1.329.232.496-.018.552-.029 1.122-.219 1.089-.364 1.637-.664 2.726-1.49.217-.165.469-.354.56-.42.489-.356.829-.631 1.734-1.403.606-.516 1.228-1.152 1.333-1.363.14-.279.234-.94.295-2.08l.024-.445.24-.025c.338-.035.631-.183.926-.467.292-.28.433-.542.598-1.118l.151-.52c.023-.077.05-.419.061-.76l.021-.62.159-.209c.226-.295.386-.794.436-1.361.034-.387.052-.464.135-.553a.719.719 0 0 0 .136-.293c.044-.201.022-.326-.156-.904-.058-.188-.096-.458-.118-.822-.035-.61-.099-.796-.334-.976-.108-.082-.152-.161-.221-.398-.087-.302-.243-.5-.443-.563a.118.118 0 0 1-.083-.114c-.003-.466-.526-1.195-1.028-1.43-.189-.088-.209-.11-.21-.228-.003-.203-.093-.373-.298-.561-.259-.239-.648-.408-.938-.409-.317 0-.392-.029-.451-.171-.193-.466-.909-.852-1.758-.948a2.073 2.073 0 0 0-.541-.003c-.187.035-.2.031-.347-.102a1.084 1.084 0 0 0-.254-.177c-.17-.065-.794-.047-.95.028-.132.063-.143.062-.285-.026-.188-.116-.586-.142-.915-.059m4.066 4.852c.552.28.502.098.519 1.887.012 1.239.033 1.712.106 2.42.07.676.086 1.014.07 1.46-.054 1.421-.15 1.94-.472 2.568-.379.737-.798.926-1.028.463a.935.935 0 0 1-.095-.461c-.002-.316.044-.425.312-.735.2-.231.298-.417.296-.564-.002-.144-.255-.457-.417-.516-.078-.028-.142-.07-.141-.093.001-.023.088-.101.195-.173.3-.204.476-.402.563-.637.095-.252.102-.406.026-.583-.075-.177-.188-.27-.585-.482-.919-.492-1.67-.546-2.827-.206-.259.077-.52.139-.578.139-.059 0-.21-.054-.335-.12-.275-.145-.368-.15-.425-.026-.033.074-.026.132.035.27a.706.706 0 0 1 .061.356c-.035.381.191 1.089.443 1.387.145.171.482.387.73.469.112.036.237.09.276.119.065.047.042.061-.204.119-1.033.246-2.924.404-3.692.309-.381-.047-.616-.119-.396-.122.174-.002.748-.197 1.072-.364.54-.28.995-.736 1.201-1.204.078-.178.097-.299.111-.736.015-.451.008-.532-.05-.59-.092-.091-.11-.087-.298.07-.265.221-.304.22-1.424-.032a12.442 12.442 0 0 0-.94-.164c-.811-.105-.774-.096-.713-.17.029-.035.161-.115.293-.177.227-.108.27-.114.78-.114.32 0 .67.025.86.061.176.034.415.064.532.068.179.004.228-.011.315-.098.21-.21.113-.421-.326-.708-.579-.378-1.093-.512-1.805-.469-.224.014-.518.06-.66.105-.396.124-.37.158-.344-.469.027-.634.089-.954.321-1.65.19-.57.201-.578.591-.462.31.092.662.079 1.017-.037.286-.094.316-.096.538-.044.13.03.302.106.384.168.125.095.203.118.473.14.186.016.401.062.504.108.161.073.225.078.62.052.242-.017.482-.053.533-.081a.762.762 0 0 1 .241-.063 4.22 4.22 0 0 0 .287-.04.524.524 0 0 1 .288.037c.2.084.571.078.835-.012.119-.041.387-.161.596-.267.528-.266.645-.299 1.045-.288.319.008.371.022.686.182M11.86 8.857a4.922 4.922 0 0 0-1.144.504c-.421.243-.636.428-.722.623-.097.219-.051.356.147.439.153.064.276.043.919-.155.228-.07.376-.086.8-.084.749.004 1.168.089 1.736.354.739.344.992.383 1.21.188.112-.1.13-.145.146-.361.016-.217.002-.279-.109-.504-.242-.493-.803-.87-1.52-1.021-.515-.109-1.043-.103-1.463.017m1.32 1.955c.35.121.73.311.891.447.33.277.121.772-.48 1.132-.302.181-.459.237-.513.183-.024-.024-.058-.204-.077-.401-.04-.424-.101-.586-.307-.815-.215-.239-.432-.326-.805-.325-.265.001-.338.019-.594.145-.444.22-.635.489-.716 1.012-.02.129-.044.17-.099.17-.17 0-.359-.51-.36-.971 0-.254.006-.273.103-.31.056-.021.197-.039.312-.039.129 0 .348-.047.567-.121.772-.263 1.516-.301 2.078-.107m-6.605.01c.409.063.684.132.654.163a2.71 2.71 0 0 1-.343.074c-.59.104-.959.336-1.149.723-.103.211-.107.24-.081.62.032.465.006.49-.256.253-.237-.214-.431-.638-.483-1.053-.089-.721.022-.829.858-.838.218-.002.578.024.8.058m11.261.196c.338.175.485.537.487 1.203.004 1.178-.355 2.042-.957 2.31-.254.112-.516.11-.61-.006-.126-.156-.172-.504-.168-1.285.004-.846.082-1.505.207-1.749.204-.401.724-.637 1.041-.473m-9.808.084c.128.035.409.073.626.086l.394.024-.015.264c-.02.34-.137.581-.439.904-.242.259-.467.403-.53.34-.021-.021-.017-.129.01-.265.068-.34.056-.533-.049-.755-.104-.218-.233-.354-.495-.516a.724.724 0 0 1-.17-.125c0-.044.452-.015.668.043m5.652 2.037c0 .082-.109.146-.704.417-1.503.685-3.087.96-5.264.914-.881-.018-.981-.036-1.872-.333-.611-.204-.78-.294-.78-.417 0-.096.01-.1.24-.096.132.003.463.061.736.131.745.189 1.11.219 2.362.193 1.129-.023 1.396-.051 2.822-.303.49-.086 1.832-.409 2.08-.501.214-.078.38-.081.38-.005m-8.154.06c.075.063.081.079.027.08-.108.002-.193-.043-.193-.103 0-.077.054-.07.166.023m8.194.358c0 .067-.399.387-.722.579-.64.381-1.655.719-2.785.929-.561.105-.657.111-1.793.112-1.09.002-1.244-.007-1.68-.09-.458-.088-1.184-.307-1.44-.436-.268-.135-.387-.338-.227-.389.04-.013.277.04.527.116 1.216.374 2.437.467 3.932.301 1.712-.19 2.414-.369 3.548-.902.541-.255.64-.289.64-.22" fill-rule="evenodd"/></svg>