<svg viewBox="0 0 24 24" xmlns="http://www.w3.org/2000/svg"><path d="M12.32 2.846c-.299.204-.28-.107-.28 4.484v4.11h4.045c2.979 0 4.087-.012 4.202-.047a.653.653 0 0 0 .418-.462c.034-.182-.041-1.106-.126-1.551-.71-3.725-3.83-6.444-7.579-6.606-.522-.022-.545-.02-.68.072M9.088 4.099C5.857 4.77 3.276 7.265 2.465 10.5c-.649 2.589-.041 5.353 1.646 7.493.291.368.99 1.069 1.369 1.371 1.223.978 2.825 1.64 4.439 1.835.502.061 1.526.05 2.087-.023a9.006 9.006 0 0 0 2.868-.899c.524-.274 1.1-.663 1.179-.796a.585.585 0 0 0 .01-.513c-.032-.059-1.337-1.386-2.9-2.948l-2.843-2.84V8.86c0-2.809-.015-4.371-.041-4.467a.674.674 0 0 0-.181-.27c-.176-.154-.361-.159-1.01-.024M15.5 16.043c1.584 1.585 2.929 2.908 2.988 2.94a.777.777 0 0 0 .295.057c.181 0 .199-.011.546-.35 1.182-1.154 2.031-2.74 2.372-4.429.112-.556.108-.708-.026-.878-.185-.236.08-.223-4.683-.223H12.62l2.88 2.883" fill-rule="evenodd"/></svg>