<svg viewBox="0 0 24 24" xmlns="http://www.w3.org/2000/svg"><path d="M4.666 9.058C3.354 10.655 2.28 11.979 2.28 12c0 .021 1.074 1.345 2.386 2.942 1.918 2.333 2.395 2.893 2.434 2.851.027-.029.286-.446.576-.927.351-.58.516-.889.491-.92-.019-.025-.749-.924-1.622-1.997L4.96 11.998l1.585-1.949c.872-1.072 1.603-1.97 1.623-1.997.026-.032-.131-.325-.491-.92a25.904 25.904 0 0 0-.577-.925c-.039-.042-.523.525-2.434 2.851m12.165-2.753c-.71 1.142-1.032 1.705-.999 1.747.02.027.75.926 1.622 1.998L19.039 12l-1.585 1.95c-.872 1.073-1.602 1.971-1.622 1.998-.026.032.131.325.491.92.291.479.551.896.577.925.039.042.522-.524 2.434-2.851 1.312-1.596 2.386-2.92 2.386-2.941 0-.034-4.538-5.587-4.72-5.776-.071-.073-.075-.071-.169.08m-5.95 5.585c-.91 3.108-1.663 5.691-1.673 5.741l-.018.09 1.053-.01 1.053-.011 1.671-5.7c.919-3.135 1.671-5.713 1.672-5.73 0-.016-.473-.03-1.051-.03h-1.052l-1.655 5.65" fill-rule="evenodd"/></svg>