<svg viewBox="0 0 24 24" xmlns="http://www.w3.org/2000/svg"><path d="M11.344 3.299a2.277 2.277 0 0 0-1.028.618c-.439.437-.66.911-.703 1.506-.08 1.101.688 2.162 1.765 2.436.306.078.858.078 1.164 0a2.392 2.392 0 0 0 1.535-1.263c.187-.4.261-.779.232-1.193-.064-.922-.678-1.723-1.572-2.051-.3-.11-1.087-.14-1.393-.053M3.737 6.377a2.716 2.716 0 0 0-1.001.506c-.548.475-.832 1.082-.83 1.777.002.68.208 1.174.693 1.664.743.751 1.776.92 2.731.447.208-.103.375-.23.59-.447.474-.479.682-.987.683-1.666.002-1.002-.609-1.847-1.598-2.209-.332-.121-.91-.154-1.268-.072m15.623-.029a2.928 2.928 0 0 0-.825.316c-1.063.637-1.444 1.971-.884 3.096.167.337.639.816.976.993.946.494 2.022.328 2.777-.428.465-.466.69-1.002.69-1.645 0-1.303-1.084-2.377-2.374-2.354a3.396 3.396 0 0 0-.36.022m-8.959 2.516a1.848 1.848 0 0 0-1.259 1.274c-.045.175-.062.445-.062 1.007v.769l-.21.068a9.746 9.746 0 0 0-.604.241l-.394.173-.22-.238A1.83 1.83 0 0 0 6.09 11.6c-.351.051-2.36.477-2.531.536a1.826 1.826 0 0 0-1.03.944c-.246.51-.237.663.129 2.423.22 1.056.341 1.548.423 1.727.24.523.772.915 1.379 1.016.256.043.326.038.78-.058l.5-.104.118.148c.279.349.946.967 1.299 1.202 2.904 1.939 7.534 1.763 10.177-.387.246-.199.671-.649.832-.879l.06-.086.516.105c.47.097.542.102.797.059.397-.066.8-.274 1.056-.544.338-.358.404-.55.746-2.182.275-1.313.304-1.495.29-1.806-.013-.303-.034-.385-.166-.651a1.79 1.79 0 0 0-.777-.815c-.202-.108-.454-.175-1.397-.373a44.323 44.323 0 0 0-1.381-.275 1.83 1.83 0 0 0-1.563.559l-.221.239-.333-.153a9.255 9.255 0 0 0-.603-.249l-.27-.095-.001-.761c-.001-.418-.019-.839-.041-.936a1.891 1.891 0 0 0-1.362-1.362c-.101-.023-.755-.039-1.536-.038-1.067.001-1.407.014-1.579.06m5.231 4.272c.176.089.206.12.189.195-.012.049-.13.611-.264 1.249-.273 1.304-.294 1.572-.158 1.976.225.668.681 1.055 1.455 1.237.195.045.366.093.379.106.044.044-.528.546-.916.805-.784.522-1.828.905-2.937 1.076-.58.09-1.667.121-2.24.063-1.483-.149-2.807-.624-3.74-1.344-.245-.189-.65-.582-.625-.608.009-.008.189-.059.401-.111.447-.111.71-.243.96-.483.227-.217.36-.427.463-.733.137-.407.111-.708-.176-2.064-.193-.907-.244-1.212-.209-1.247.05-.051.764-.373.828-.373.021 0 .038.14.038.312 0 .557.149.954.494 1.319.241.255.457.39.791.494.218.067.383.075 1.635.075s1.417-.008 1.635-.075c.327-.102.552-.24.769-.472.367-.393.516-.785.516-1.361v-.331l.251.094c.139.052.346.143.461.201" fill-rule="evenodd"/></svg>