<svg viewBox="0 0 24 24" xmlns="http://www.w3.org/2000/svg"><path d="M11.06 2.444c-1.571.146-3.016.651-4.279 1.494-.645.432-1.008.737-1.602 1.347a9.646 9.646 0 0 0-2.177 3.431 9.503 9.503 0 0 0-.279 5.714c.668 2.606 2.586 4.946 5.057 6.171a9.164 9.164 0 0 0 3.883.987c2.733.101 5.429-1.013 7.366-3.044 1.346-1.41 2.145-3.064 2.458-5.084.114-.739.123-2.079.018-2.8-.312-2.139-1.186-3.924-2.642-5.398-1.388-1.404-3.121-2.334-4.997-2.68a10.544 10.544 0 0 0-2.806-.138m2.095 1.778a7.802 7.802 0 0 1 5.783 4.066c.847 1.604 1.113 3.554.738 5.412-.456 2.261-1.994 4.216-4.179 5.311-2.448 1.227-5.386 1.073-7.657-.401a6.976 6.976 0 0 1-1.215-.969c-1.122-1.084-1.86-2.325-2.225-3.743-.691-2.678.115-5.491 2.16-7.538a7.553 7.553 0 0 1 4.402-2.156c.459-.06 1.732-.049 2.193.018m-4.46 4.875c-1.444.329-2.292 1.63-2.133 3.27.076.792.319 1.362.774 1.816.464.462 1.004.705 1.708.77.661.06 1.211-.047 1.756-.343.275-.15.918-.761 1.052-1l.071-.128-.571-.29-.597-.303c-.014-.007-.08.085-.147.204-.239.423-.577.61-1.088.602-.618-.01-1.056-.422-1.204-1.135-.073-.349-.026-1.168.082-1.451.198-.516.515-.757 1.033-.783.214-.011.344.004.479.056.219.083.497.328.617.542l.086.153.633-.328c.348-.181.633-.339.633-.352.002-.061-.257-.401-.456-.597a2.604 2.604 0 0 0-1.042-.626c-.267-.085-.416-.105-.881-.118-.386-.01-.636.002-.805.041m5.508.003c-.797.18-1.47.723-1.827 1.474-.404.852-.386 2.143.044 2.98.468.914 1.349 1.412 2.491 1.411.978-.001 1.806-.422 2.361-1.2.176-.247.18-.257.105-.314-.097-.073-1.102-.58-1.116-.563a1.886 1.886 0 0 0-.082.152c-.189.373-.431.559-.833.64a1.306 1.306 0 0 1-.921-.165c-.47-.311-.7-1.05-.592-1.904.109-.861.507-1.29 1.198-1.291.453 0 .77.177 1.008.564l.123.201.129-.077c.071-.042.349-.191.619-.33.27-.14.49-.276.49-.304 0-.093-.379-.551-.61-.736a2.879 2.879 0 0 0-.973-.498c-.333-.094-1.274-.117-1.614-.04" fill-rule="evenodd"/></svg>