<svg viewBox="0 0 24 24" xmlns="http://www.w3.org/2000/svg"><path d="M3.858 2.69c.014.116.348 3.89.744 8.389.395 4.498.732 8.19.749 8.205.016.014 1.518.522 3.339 1.128L12 21.513l3.31-1.101c1.821-.606 3.323-1.113 3.338-1.128.016-.014.354-3.715.75-8.224.397-4.51.733-8.286.746-8.39l.024-.19H3.834l.024.21m13.26 3.32c-.004.208-.18 1.865-.2 1.885-.01.01-1.08.471-2.378 1.025a190.61 190.61 0 0 0-2.42 1.043c-.035.02.926.035 2.294.036l2.354.001-.024.19c-.013.105-.132 1.468-.266 3.03a244.375 244.375 0 0 1-.258 2.921c-.015.07-.297.163-2.092.687l-2.074.607-2.094-.618a147.101 147.101 0 0 1-2.1-.627c-.008-.012-.262-2.987-.261-3.06.001-.039.234-.05 1.033-.05h1.032l.063.783c.034.43.078.797.098.814.019.018.524.153 1.121.301l1.086.27 1.164-.329c1.145-.323 1.164-.33 1.166-.434 0-.058.034-.636.075-1.285.041-.649.068-1.187.06-1.195-.008-.009-1.599-.025-3.536-.036-3.194-.019-3.521-.027-3.522-.085a72.987 72.987 0 0 0-.076-.964c-.042-.495-.07-.909-.062-.921.007-.012 1.115-.48 2.463-1.04l2.451-1.019-2.547-.01-2.547-.011-.019-.089a47.507 47.507 0 0 1-.222-1.867V5.88h10.24l-.002.13" fill-rule="evenodd"/></svg>