<svg viewBox="0 0 24 24" xmlns="http://www.w3.org/2000/svg"><path d="M2.44 6.669v4.23l.549.55.55.551-.55.551-.549.55v8.459h19.12v-8.459l-.549-.55-.55-.551.55-.551.549-.55V2.44H2.44v4.229m17.92.299v3.327l-.715.723c-.743.75-.803.838-.747 1.094.017.074.266.352.743.829l.719.718V20.36H3.64V13.659l.7-.699c.746-.745.821-.855.743-1.09-.028-.085-.289-.377-.743-.83l-.7-.699V3.64h16.72v3.328M7.275 5.786c-.045.055-.055.52-.055 2.659 0 2.437.004 2.596.072 2.664.065.065.171.071 1.26.07 1.133-.002 1.2-.006 1.445-.093.582-.207.924-.584 1.13-1.246.088-.283.093-.361.093-1.38 0-1.18-.021-1.34-.229-1.756a1.936 1.936 0 0 0-.749-.763c-.369-.187-.639-.22-1.827-.22-.961-.001-1.091.007-1.14.065m6.914-.009c-.048.048-1.687 4.834-1.762 5.147a.228.228 0 0 0 .031.18c.048.066.118.078.51.089.593.017.59.02.791-.634l.153-.499.921-.011.921-.01.173.53c.206.633.202.63.76.63.416.001.567-.034.608-.14.035-.092-1.639-5.163-1.738-5.262-.069-.069-.139-.077-.694-.077-.481 0-.63.013-.674.057M9.587 6.904a.966.966 0 0 1 .213.26c.098.173.1.194.113 1.193.014 1.068-.009 1.28-.159 1.491-.139.196-.288.245-.804.264l-.47.018V6.793l.497.014c.429.011.513.024.61.097m5.554 1.112c.167.546.296 1 .287 1.009-.009.01-.286.012-.614.006l-.598-.011.299-1.01a19.35 19.35 0 0 1 .31-.998c.006.006.148.458.316 1.004m-7.86 4.901c-.022.043-.041.267-.041.498 0 .389.007.425.089.483.075.052.253.062 1.14.062.578 0 1.051.008 1.051.019 0 .01-.518.752-1.15 1.65L7.22 17.26v.444c0 .317.016.463.055.51.05.06.236.066 1.945.066s1.895-.006 1.945-.066c.039-.047.055-.19.055-.494s-.016-.447-.055-.494c-.049-.059-.184-.066-1.21-.066-.635 0-1.155-.008-1.155-.018 0-.01.514-.74 1.143-1.623s1.162-1.658 1.184-1.722c.057-.164.027-.808-.042-.891-.049-.06-.234-.066-1.908-.066-1.792 0-1.856.003-1.896.077m5.594-.011c-.079.095-.101 5.102-.024 5.254.05.097.064.1.534.111.413.01.491.002.539-.056.045-.054.06-.364.076-1.568l.02-1.5.776 1.488c.456.875.817 1.521.875 1.567.086.067.164.078.566.078.31 0 .483-.016.515-.048.069-.069.069-5.275 0-5.344-.068-.068-1.015-.067-1.06.002-.017.028-.041.732-.052 1.566l-.02 1.516-.76-1.454c-.418-.799-.802-1.504-.854-1.566-.093-.112-.095-.112-.585-.112-.408 0-.5.011-.546.066" fill-rule="evenodd"/></svg>