<svg viewBox="0 0 24 24" xmlns="http://www.w3.org/2000/svg"><path d="M17.72 6.68v1.28h4.36V5.4h-4.36v1.28M7.2 10.24v1.281l2.17-.011 2.17-.01.011-1.27.01-1.27H7.2v1.28m10.52 0v1.28h4.36V8.96h-4.36v1.28M7.2 13.78v1.26h4.36v-2.52H7.2v1.26m5.24 0v1.26h4.4v-2.52h-4.4v1.26m5.28 0v1.26h4.36v-2.52h-4.36v1.26m-15.8 3.54v1.28h4.36v-2.56H1.92v1.28m5.28 0v1.281l2.17-.011 2.17-.01.011-1.27.01-1.27H7.2v1.28m5.24 0v1.281l2.19-.011 2.19-.01.011-1.27.01-1.27H12.44v1.28m5.28 0v1.28h4.36v-2.56h-4.36v1.28" fill-rule="evenodd"/></svg>