<svg viewBox="0 0 24 24" xmlns="http://www.w3.org/2000/svg"><path d="M11.38 4.185c-1.261.193-2.243.675-3.081 1.514a5.152 5.152 0 0 0-1.297 2.095c-.136.418-.242 1.009-.242 1.353V9.4h2.029l.02-.331c.06-.955.704-1.943 1.607-2.463.892-.515 2.127-.539 3.082-.06 1.08.542 1.703 1.591 1.702 2.867a3.172 3.172 0 0 1-1.346 2.612c-.45.323-1.075.55-1.594.581l-.24.014-.011-1.01-.01-1.01H9.96v2.04H8.442l-.011-.65-.011-.65-.65-.011-.65-.011v1.322h1.278l.011.77.011.77h1.56l.011-.77.011-.77H12v2.012l.43-.025c1.195-.068 2.447-.655 3.313-1.553a5.267 5.267 0 0 0 1.367-2.463c.099-.393.109-.498.109-1.191.001-.812-.041-1.111-.246-1.738a5.162 5.162 0 0 0-2.633-2.998c-.718-.342-1.331-.481-2.2-.502a8.808 8.808 0 0 0-.76.003M4.185 16.483a.27.27 0 0 0 .003.436.277.277 0 0 0 .452-.222c0-.141-.148-.297-.28-.297a.377.377 0 0 0-.175.083m3.04 0a.273.273 0 0 0 .175.49.273.273 0 0 0 .175-.49.377.377 0 0 0-.175-.083.377.377 0 0 0-.175.083m5.875-.03a1.42 1.42 0 0 0-.856.747c-.087.183-.104.277-.104.561 0 .304.014.369.132.608.231.471.609.715 1.146.742.444.023.719-.081 1.025-.388a1.34 1.34 0 0 0-.323-2.16 1.074 1.074 0 0 0-.553-.147 1.44 1.44 0 0 0-.467.037M1.52 17.759v1.328l.651-.014c.643-.013.654-.015.918-.145.475-.233.687-.601.685-1.188-.001-.397-.103-.673-.332-.902-.296-.296-.53-.366-1.292-.389l-.63-.019v1.329m9.8.001v1.32h.48v-2.64h-.48v1.32m-3.12-.78v.26h-.28v.4h.28v.501c0 .774.088.91.604.933l.316.014v-.398l-.185-.02c-.102-.012-.2-.046-.219-.076-.019-.03-.035-.256-.035-.504l-.001-.45h.44v-.4h-.44v-.52H8.2v.26m-5.322.051c.335.168.462.509.364.982-.087.419-.416.627-.989.627H2v-1.772l.33.027c.241.02.389.056.548.136m11.005-.041c.297.151.446.37.469.691.023.309-.065.547-.269.732-.196.177-.394.24-.684.219a.795.795 0 0 1-.657-.404c-.205-.351-.171-.747.09-1.037.292-.324.667-.395 1.051-.201m-8.251.21c-.472.086-.787.599-.681 1.107.026.125.095.295.153.379.207.299.696.439 1.037.296.134-.056.139-.055.139.03 0 .161-.145.341-.31.385a.549.549 0 0 1-.549-.156l-.125-.121-.155.159-.156.16.095.101c.053.056.192.149.309.206.188.092.249.102.511.085.364-.023.561-.137.728-.42l.112-.191.013-.99.012-.99h-.242c-.187 0-.243.014-.243.059 0 .048-.023.045-.13-.016a.725.725 0 0 0-.518-.083m4.108.076a.947.947 0 0 0-.258.18l-.098.106.145.145.145.145.123-.103c.157-.132.257-.163.425-.131.141.026.258.149.258.27 0 .062-.028.068-.23.047-.299-.031-.54.036-.72.202-.128.117-.146.158-.161.369-.016.215-.007.251.095.371.206.246.529.308.846.164.14-.063.17-.067.17-.019 0 .044.057.058.24.058h.24v-.61c0-.336-.019-.677-.042-.759a.725.725 0 0 0-.388-.452c-.196-.083-.594-.074-.79.017m5.92-.001c-.566.26-.742.996-.359 1.498a.955.955 0 0 0 1.409.097l.13-.126-.146-.15-.147-.151-.152.121c-.355.281-.762.125-.797-.305-.02-.244.005-.34.126-.478.109-.124.147-.141.311-.141a.43.43 0 0 1 .33.118l.143.118.153-.157c.149-.153.151-.159.081-.237-.232-.256-.756-.356-1.082-.207m1.8-.019c-.31.137-.511.491-.512.903-.002.586.352.959.912.96.264 0 .58-.121.717-.274.077-.087.077-.087-.076-.244l-.154-.158-.133.117a.687.687 0 0 1-.272.142c-.19.036-.421-.085-.49-.255l-.052-.127h.616c.532 0 .619-.009.641-.065.031-.083-.046-.519-.117-.653a.893.893 0 0 0-.393-.359c-.154-.059-.541-.051-.687.013m1.86.008c-.158.068-.36.247-.36.319 0 .026.064.097.143.157l.143.109.109-.104a.456.456 0 0 1 .488-.104c.105.044.197.171.197.272 0 .016-.148.028-.33.028-.385-.001-.596.081-.715.276-.092.151-.099.461-.014.625.131.254.574.354.879.198.188-.096.18-.095.18-.02 0 .047.053.06.24.06h.24v-.593c0-.851-.081-1.071-.449-1.225-.187-.078-.568-.077-.751.002m2.11-.008c-.061.032-.11.042-.11.022 0-.021-.108-.038-.24-.038h-.24v1.84h.48l.001-.59c0-.395.017-.623.051-.69.112-.222.447-.25.579-.048.056.084.072.223.083.716l.015.612h.482l-.02-.651c-.022-.741-.08-.944-.315-1.112-.169-.12-.594-.154-.766-.061m-17.31.904v.92h.48v-1.84h-.48v.92m3.04 0v.92h.48v-1.84h-.48v.92m10.784-.518c.117.044.213.146.215.228.001.036-.097.05-.358.05h-.359l.047-.103c.045-.099.201-.212.298-.215a.573.573 0 0 1 .157.04m-11.8.091c.087.075.112.136.126.31a.96.96 0 0 1-.025.325c-.095.246-.475.331-.667.15-.205-.192-.211-.573-.013-.784.125-.132.426-.133.579-.001m4.304.652c.017.011.032.062.032.113 0 .186-.425.292-.601.15-.107-.088-.08-.233.055-.29.081-.035.444-.016.514.027m9.402-.039c.132.022.15.038.15.138 0 .134-.158.236-.365.236-.242 0-.361-.215-.186-.338.097-.067.171-.074.401-.036" fill-rule="evenodd"/></svg>