<svg viewBox="0 0 24 24" xmlns="http://www.w3.org/2000/svg"><path d="M10.78 2.863a9.307 9.307 0 0 0-6.625 4.301c-.797 1.284-1.318 2.976-1.36 4.416l-.011.4 1.782.01 1.782.011.026-.431c.077-1.265.625-2.496 1.536-3.454a5.657 5.657 0 0 1 2.856-1.625c.41-.097.53-.107 1.234-.107.658-.001.844.013 1.188.088 1.75.381 3.088 1.396 3.849 2.92.624 1.249.768 2.83.381 4.191-.136.479-.553 1.322-.86 1.738-.995 1.352-2.542 2.208-4.167 2.307l-.391.024V14.12H8.439l.011 1.77.01 1.77 1.77.01 1.77.011v3.567l.37-.025c2.169-.151 3.855-.794 5.45-2.077.454-.365 1.194-1.136 1.548-1.612a9.287 9.287 0 0 0 1.731-7.049c-.445-2.764-2.02-5.084-4.383-6.456a9.516 9.516 0 0 0-3.656-1.188c-.502-.056-1.8-.044-2.28.022M3.44 16.52v1.16h2.28v2.72h2.76v-2.72H5.72v-2.32H3.44v1.16" fill-rule="evenodd"/></svg>