<svg viewBox="0 0 24 24" xmlns="http://www.w3.org/2000/svg"><path d="M11.6 2.602c-2.928.233-5.624 1.887-7.2 4.418a9.84 9.84 0 0 0-1.116 2.66c-.185.745-.247 1.218-.272 2.06a9.224 9.224 0 0 0 .708 3.9l.115.279-.757 1.867c-.417 1.027-.758 1.888-.758 1.913 0 .031.63-.041 1.983-.227l1.983-.272.467.351a9.021 9.021 0 0 0 3.313 1.592c.877.222 1.324.275 2.314.273.977-.002 1.509-.069 2.38-.3 2.909-.773 5.325-2.989 6.379-5.85.389-1.055.559-2.049.559-3.266 0-.97-.06-1.47-.279-2.342C20.305 5.23 16.144 2.24 11.6 2.602m1.82 4.769c1.059.197 1.87.55 2.519 1.096 1.096.923 1.628 2.322 1.497 3.941-.148 1.829-1.186 3.242-2.859 3.887-.977.378-1.395.423-3.887.424l-2.01.001V7.273l2.21.019c1.722.015 2.281.032 2.53.079m-2.18 4.633v2.404l.81-.018c.895-.02 1.083-.055 1.583-.291.785-.37 1.255-1.256 1.192-2.244-.052-.822-.366-1.422-.947-1.81-.492-.328-1.016-.445-2.008-.445h-.63v2.404" fill-rule="evenodd"/></svg>