<svg viewBox="0 0 24 24" xmlns="http://www.w3.org/2000/svg"><path d="M11.067 4.507c-.051.05-.031 1.833.021 1.885.068.068 1.916.068 1.984 0 .068-.068.068-1.796 0-1.864-.052-.052-1.954-.072-2.005-.021M6.142 6.929c-.051.073-.062.232-.062.92 0 .778.005.836.08.911.075.075.133.08.98.08s.905-.005.98-.08c.075-.075.08-.133.08-.937 0-.726-.01-.867-.063-.92-.053-.054-.201-.063-.998-.063-.92 0-.935.001-.997.089m2.498-.05c-.05.031-.062.188-.072.917-.012.843-.009.883.07.962.078.078.127.082.982.082.847 0 .905-.005.98-.08.075-.075.08-.133.08-.937 0-.726-.01-.867-.063-.92-.053-.054-.2-.063-.99-.062-.513 0-.954.017-.987.038m2.448.009c-.035.035-.048.304-.048.961v.913l.103.039c.056.021.484.039.951.039.703 0 .863-.011.937-.062.087-.061.089-.078.089-.959 0-.845-.004-.899-.077-.938-.115-.061-1.893-.055-1.955.007m6.422.665c-.48.725-.737 1.731-.636 2.49.049.369.197.842.334 1.067l.079.13-.194.083a4.605 4.605 0 0 1-.513.169l-.32.086-6.947.021c-6.938.021-6.947.021-7.058.103-.263.197-.275.24-.272.971.008 1.668.542 3.543 1.32 4.634.424.594 1.045 1.145 1.614 1.432.594.3 1.471.553 2.383.689.685.102 2.671.101 3.36-.002a11.77 11.77 0 0 0 1.96-.444c2.768-.911 4.686-2.754 5.947-5.715.151-.356.302-.705.334-.777.057-.129.06-.13.34-.13a3.22 3.22 0 0 0 1.587-.446c.477-.283.96-.864 1.126-1.354l.08-.237-.145-.128c-.171-.15-.456-.286-.789-.377-.295-.08-1.107-.119-1.465-.069l-.266.036-.049-.222c-.132-.595-.388-1.066-.835-1.533-.276-.289-.725-.63-.829-.63-.025 0-.091.069-.146.153M3.681 9.317c-.024.046-.041.407-.041.891 0 .672.011.83.062.903.062.088.077.089.998.089s.936-.001.998-.089c.051-.073.062-.231.062-.903 0-.484-.017-.845-.041-.891-.04-.073-.094-.077-1.019-.077-.925 0-.979.004-1.019.077m2.44 0c-.024.046-.041.407-.041.891 0 .672.011.83.062.903.062.088.077.089.997.089.797 0 .945-.009.998-.063.053-.053.063-.192.063-.902 0-.503-.017-.871-.041-.918-.04-.073-.094-.077-1.019-.077-.925 0-.979.004-1.019.077m2.48 0c-.024.046-.041.407-.041.891 0 .672.011.83.062.903.062.088.077.089.997.089.797 0 .945-.009.998-.063.053-.053.063-.192.063-.902 0-.503-.017-.871-.041-.918-.04-.073-.094-.077-1.019-.077-.925 0-.979.004-1.019.077m2.466-.05c-.051.05-.031 1.833.021 1.885.068.068 1.916.068 1.984 0 .068-.068.068-1.796 0-1.864-.052-.052-1.954-.072-2.005-.021m2.452.076c-.021.056-.039.457-.039.891 0 .649.011.804.062.877.062.088.077.089.997.089.797 0 .945-.009.998-.063.053-.053.063-.195.063-.932 0-.623-.014-.883-.048-.917-.035-.035-.318-.048-1.021-.048h-.973l-.039.103" fill-rule="evenodd"/></svg>