<svg viewBox="0 0 24 24" xmlns="http://www.w3.org/2000/svg"><path d="M10.85 2.503c-.055.064-.116.095-.16.082a2.505 2.505 0 0 0-.26-.047c-.185-.026-.19-.024-.19.077 0 .129-.064.138-.103.015-.026-.081-.036-.073-.105.089-.091.214-.126.24-.322.24-.097.001-.15.02-.15.053a.283.283 0 0 1-.056.129c-.049.067-.068.07-.169.024-.08-.036-.311-.05-.782-.047-.731.005-.87-.024-1.086-.23l-.113-.108-.091.106c-.081.093-.113.103-.277.085-.121-.014-.186-.041-.186-.076 0-.067-.033-.067-.153 0-.067.037-.214.046-.51.033-.276-.012-.435-.003-.471.027-.041.034-.071.026-.126-.035-.086-.095-.208-.103-.301-.019-.062.056-.074.052-.134-.04-.085-.128-.137-.128-.169 0-.017.07-.039.089-.071.063-.025-.02-.174-.05-.331-.065-.248-.025-.291-.041-.329-.124l-.044-.096-.181.139c-.349.266-.697.285-1.025.057l-.105-.074-.024.119a5.093 5.093 0 0 0-.05.379c-.029.283-.071.334-.111.136-.037-.187-.03-.355.015-.355A.04.04 0 0 0 2.72 3c0-.022-.045-.04-.1-.04-.091 0-.1.015-.1.174 0 .096-.011.308-.025.472-.022.256-.015.308.047.37.07.07.074.07.125.001.038-.052.065-.061.097-.029.031.031.028.216-.01.658C2.72 4.989 2.7 5.807 2.7 6.78c0 1.633.042 2.225.214 3.007.07.318.07.334-.007.65-.106.432-.057.686.18.935l.16.168-.027.33c-.015.182-.037.33-.049.33a.814.814 0 0 1-.156-.083l-.135-.084v.102c0 .062.032.119.081.146.045.023.071.06.057.081-.014.023-.058.014-.11-.022a.362.362 0 0 0-.112-.06c-.053 0-.078 1.12-.038 1.692.055.794.05.778.271.811l.181.028-.026.744c-.014.41-.036.875-.05 1.035l-.023.29h-.137c-.214 0-.236.096-.216.94.036 1.5.021 2.224-.051 2.486a3.688 3.688 0 0 0-.067.268c0 .012.067.033.15.047.382.062.37.056.37.198 0 .152.101.223.141.099.028-.09.162-.173.221-.137.022.014.035.071.029.128-.017.159.076.153.106-.007.015-.078.045-.142.068-.142.022 0 .03.034.017.075-.035.11.057.128.278.055.146-.048.218-.053.303-.021.1.038.114.033.126-.043.008-.052.036-.08.072-.071.278.07.378.083.652.084.172.001.347.02.39.042.068.037.077.028.077-.08 0-.081.02-.121.06-.121a.06.06 0 0 1 .06.059c0 .032.036.078.081.101.065.035.084.03.102-.028.079-.252.192-.263.209-.02.015.205.097.256.212.133.043-.047.111-.085.15-.085a.29.29 0 0 0 .148-.059c.1-.075.138-.076.138-.001 0 .103.225.077.26-.03.027-.082.033-.076.072.059.037.134.054.148.164.14a.338.338 0 0 0 .205-.104l.083-.095.069.105c.081.124.187.138.187.025 0-.105.094-.102.241.007.134.099.189.08.114-.041-.044-.069-.04-.094.025-.166l.076-.084.069.135c.112.217.174.247.178.084a.349.349 0 0 1 .069-.204c.06-.06.067-.059.092.012.091.254.364.453.405.294.024-.09.082-.096.185-.019.126.096.363.113.629.044.137-.035.26-.053.273-.04.013.014.116.171.23.351.126.201.226.321.26.31.03-.009.121-.024.202-.034.139-.016.147-.024.126-.13-.021-.106-.013-.115.132-.139.084-.013.184-.03.221-.038.134-.026.448.06.578.159l.132.101.066-.101c.08-.121.177-.132.177-.02 0 .051.04.097.11.124.121.047.494.022.67-.045.104-.04.107-.046.04-.095-.119-.087-.014-.113.595-.148.939-.054 1.113-.049 1.097.033-.009.05-.071.077-.23.1a1.161 1.161 0 0 0-.233.048c-.009.009.057.039.147.066.272.081.6-.057.665-.28.025-.084.017-.093-.059-.073-.071.019-.078.013-.039-.034a.183.183 0 0 1 .124-.057c.066 0 .073.019.05.143-.025.135-.021.143.068.13.07-.009.098-.042.108-.123.007-.061.031-.11.054-.11s.033.037.021.082c-.016.062-.006.077.045.062a3.7 3.7 0 0 1 .779-.104c.205 0 .247-.013.315-.1.096-.122.204-.126.455-.015.162.072.242.082.492.063.253-.019.346-.007.601.078.392.132.843.123 1.137-.021.181-.089.196-.09.267-.026.07.064.077.063.117-.012.027-.05.103-.09.203-.107.241-.04.195-.09-.109-.119-.468-.044-.446-.034-.29-.132.112-.071.199-.089.442-.089.376 0 .67.075 1.17.298l.391.175-.022-1.606c-.012-.884-.033-2.629-.046-3.877l-.025-2.27-.185-.001c-.259 0-.365-.036-.365-.121 0-.061.023-.069.14-.05l.14.022v-.236c0-.13.026-.335.057-.455.035-.135.043-.234.02-.257-.059-.06-.043-.274.039-.538.061-.197.065-.244.021-.244-.12 0-.189-.19-.167-.46.018-.229.012-.26-.056-.282-.114-.036-.218-.21-.16-.268.07-.07.055-.118-.027-.092-.053.017-.087-.006-.12-.079-.086-.188-.057-.301.118-.468l.164-.156-.084-.221a1.753 1.753 0 0 1-.085-.258c0-.02.115-.036.255-.036h.256l.025-.13c.013-.072.036-.724.05-1.451.025-1.321-.006-2.054-.12-2.832-.044-.304-.042-.353.012-.408.048-.048.062-.153.062-.451-.001-.546-.017-.587-.265-.67-.143-.047-.224-.102-.27-.182-.06-.107-.082-.116-.306-.116-.157 0-.273-.023-.333-.064-.087-.061-.096-.06-.151.02-.08.113-.248.109-.615-.016-.268-.091-.3-.094-.363-.037a.264.264 0 0 1-.183.05c-.096-.011-.126-.045-.194-.223-.054-.141-.103-.209-.15-.21-.081 0-.094.121-.026.247.087.163.007.171-.873.09-.85-.078-2.636-.108-2.786-.046-.071.028-.071.036-.01.103.083.092.082.207-.002.385-.063.131-.081.141-.252.141a1.88 1.88 0 0 0-.388.053l-.205.053-.046-.154c-.115-.386-.499-.627-1.077-.677-.232-.02-.435-.061-.531-.109-.152-.075-.158-.075-.303-.001-.215.109-.702.082-1.091-.062-.035-.013-.098.021-.15.08M6.577 5.982c.101.065.489.334.862.598.479.339.673.498.66.542-.023.074.28.384.317.324a.048.048 0 0 0-.015-.066c-.101-.062-.028-.089.077-.028.093.053.114.087.096.158-.024.095.021.119.092.048.029-.029.057-.022.093.02a.213.213 0 0 0 .146.062c.052 0 .095.019.095.042 0 .093.199.238.328.24.108.001.836.481 3.932 2.59 3.204 2.182 3.8 2.603 3.8 2.681a.21.21 0 0 0 .078.15c.106.078.01.074-.208-.009-.179-.068-.235-.057-.198.04.016.042.139.065.47.086l.449.029.784.532.785.531-.009.321c-.024.888-.49 2.272-1.05 3.117-.14.21-.14.21-.36.214-.898.016-1.446-.075-1.95-.324a1.541 1.541 0 0 1-.58-.448 88.498 88.498 0 0 0-1.125-1.222c-.638-.684-.868-.957-.854-1.011.011-.044-.019-.109-.076-.163-.058-.055-.096-.07-.096-.039 0 .029-.059-.034-.131-.138a1.21 1.21 0 0 0-.217-.248c-.081-.053-.085-.051-.065.036.018.082.011.078-.063-.027a.504.504 0 0 1-.084-.24c0-.13-.291-.541-.439-.62-.133-.071-.097.024.084.22.117.127.156.199.136.249-.023.059-.067.029-.265-.181-.215-.228-.293-.334-.593-.808-.086-.135-.089-.136-.072-.03.01.061.014.11.009.11-.008 0-.619-.659-1.539-1.66-.122-.132-.181-.206-.131-.164.077.066.09.067.09.012 0-.118-.173-.269-.344-.299-.153-.027-.302-.177-2.449-2.469C5.79 7.398 4.766 6.284 4.773 6.264c.016-.053.528-.306.743-.368.107-.031.328-.049.531-.043.305.01.368.025.53.129m10.388.049c.213.101.915.618.915.674 0 .027-.033.039-.074.028-.09-.023-.136.072-.102.21.028.11.096.092.096-.025 0-.043.018-.078.04-.078.058 0 .057.008-.14 1.262-.099.63-.18 1.162-.18 1.182 0 .061-.19.04-.214-.024-.013-.033-.069-.06-.125-.06-.084 0-.101-.019-.101-.111 0-.108-.096-.29-.152-.288a.234.234 0 0 0-.088.04c-.051.034-.045.051.039.117.055.042.089.087.076.1-.019.019-2.84-2.11-3.087-2.33-.067-.059-.01-.08.82-.295a53.863 53.863 0 0 0 1.292-.349c.46-.136.775-.153.985-.053m-8.886 9.754c1.016.982 1.832 1.798 1.814 1.814-.018.016-.615.212-1.326.437-.994.315-1.305.399-1.347.364-.041-.034-.079-.029-.157.022-.057.037-.103.048-.103.025A.09.09 0 0 1 7 18.38a.102.102 0 0 0 .04-.078c0-.049-.035-.052-.307-.026-.026.002-.053.032-.06.067-.016.078-1.614-1.082-1.657-1.203-.055-.157-.013-.43.119-.773C5.332 15.856 6.171 14 6.205 14c.015 0 .859.803 1.874 1.785" fill-rule="evenodd"/></svg>