<svg viewBox="0 0 24 24" xmlns="http://www.w3.org/2000/svg"><path d="M5.432 5.133c-1.49.972-2.705 1.779-2.7 1.795.004.015.849.702 1.877 1.526l1.869 1.499-1.883 1.507c-1.036.829-1.868 1.523-1.849 1.541.019.019 1.247.825 2.729 1.793l2.695 1.758 1.895-1.579c1.042-.869 1.895-1.593 1.895-1.61 0-.016-1.224-.784-2.719-1.706-1.496-.923-2.72-1.689-2.72-1.703C6.52 9.913 11.933 6.583 12 6.583c.067 0 5.48 3.331 5.479 3.371 0 .015-1.224.78-2.72 1.703-1.495.922-2.719 1.69-2.719 1.706 0 .017.853.741 1.895 1.61l1.895 1.579 2.695-1.758c1.482-.967 2.71-1.774 2.729-1.793.019-.018-.81-.71-1.85-1.541L17.52 9.952l1.87-1.496c1.028-.823 1.874-1.509 1.879-1.526.007-.024-5.325-3.523-5.424-3.559-.014-.005-.877.701-1.919 1.57C12.884 5.809 12.018 6.52 12 6.52c-.018 0-.884-.711-1.926-1.579-1.042-.869-1.903-1.579-1.914-1.577-.011.001-1.239.797-2.728 1.769m5.584 9.738-1.923 1.595-.923.766-.775-.508c-.426-.279-.797-.521-.825-.538-.039-.024-.05.1-.05.57v.6L9.26 19c1.507.905 2.754 1.638 2.77 1.629a873.27 873.27 0 0 0 2.76-1.647l2.73-1.632v-1.192l-.11.06c-.06.033-.434.274-.83.536-.597.395-.73.468-.78.427-.366-.299-3.641-3.011-3.702-3.066-.08-.072-.095-.062-1.082.756" fill-rule="evenodd"/></svg>