<svg viewBox="0 0 24 24" xmlns="http://www.w3.org/2000/svg"><path d="M10.9 2.604a9.457 9.457 0 0 0-5.459 2.581c-1.439 1.37-2.442 3.267-2.777 5.255-.431 2.554.22 5.168 1.821 7.308.377.503 1.264 1.39 1.767 1.767 1.868 1.397 4.125 2.084 6.335 1.928 2.436-.172 4.617-1.19 6.266-2.924 2.472-2.6 3.27-6.409 2.044-9.754-1.236-3.368-4.288-5.769-7.837-6.164-.426-.048-1.761-.045-2.16.003m2.338.819c3.501.512 6.347 3.09 7.175 6.497.182.747.238 1.238.238 2.08 0 1.423-.263 2.577-.872 3.82a8.65 8.65 0 0 1-9.495 4.676c-3.266-.653-5.913-3.189-6.697-6.416-.186-.765-.24-1.237-.238-2.1.002-1.092.124-1.843.455-2.805 1.349-3.922 5.335-6.352 9.434-5.752M11 4.001a9.858 9.858 0 0 0-1.52.344c-.831.271-1.85.83-2.56 1.404-.392.317-1.081 1.03-1.374 1.423a8.079 8.079 0 0 0-.412 9.048c.409.668 1.172 1.536 1.783 2.028.64.516 1.469 1.001 2.138 1.252l.274.103-.022-.092c-.059-.238-1.369-6.502-1.563-7.471-.273-1.363-.321-1.742-.289-2.28.043-.724.264-1.346.646-1.814.345-.424 1.035-.79 1.774-.941.249-.051.321-.079.26-.099-.28-.093-.769-.151-1.445-.173-.702-.023-.77-.031-.77-.096 0-.156.186-.301.507-.394.354-.103.36-.093-.162-.307l-.317-.13.176-.052c.118-.036.407-.052.876-.05.626.002.742.013 1.094.108.697.187 1.367.539 1.75.92.193.192.273.242.465.291.33.085.774.304.965.476.512.463 1.072 1.507 1.354 2.522.099.359.11.463.111 1.049.001.557.009.647.061.632l.82-.218c.418-.11.921-.256 1.118-.322.275-.094.427-.122.662-.122.501 0 .88.158.88.367 0 .118-.244.334-.555.49-.378.19-1.476.618-2.225.867-.618.206-.655.213-1.08.213-.242 0-.599-.009-.793-.019l-.353-.018-.115.128c-.153.171-.186.362-.096.552.14.296.612.485 1.317.527.505.03 1.039-.032 1.825-.211.728-.166 1.125-.211 1.214-.137.034.028.061.104.061.169 0 .442-1.44.989-2.48.942-.647-.029-1.939-.36-2.63-.672l-.25-.113-.03.108c-.057.205-.02.976.068 1.407.069.335.365 1.309.5 1.644.021.053-.018.073-.209.111a1.78 1.78 0 0 0-.387.124l-.152.077-.185-.093c-.638-.322-1.314-.555-1.554-.535-.151.012-.151.012-.179.232-.015.121-.011.553.009.96.052 1.033.13 1.453.278 1.5.119.037.539-.124 1.143-.439l.562-.293.398-.003c.464-.003.806-.084.913-.214.066-.081.072-.14.052-.531a4.364 4.364 0 0 0-.048-.526c-.022-.073.028-.122.347-.344.799-.552 1.252-.766 1.372-.647.147.148.236.832.212 1.63-.019.658-.065.854-.207.89-.114.028-.623-.102-1.192-.304-.244-.088-.452-.151-.461-.142-.009.009.111.259.268.556l.284.538.369-.111a8.066 8.066 0 0 0 4.692-3.71c1.602-2.758 1.392-6.268-.529-8.838-.285-.382-.929-1.054-1.334-1.391-1.031-.86-2.331-1.458-3.748-1.724-.409-.076-1.955-.113-2.372-.056m2.097 4.576c-.118.051-.297.236-.297.306 0 .018.077-.002.17-.044.112-.051.259-.077.43-.077.171 0 .318.026.43.077.204.093.215.06.037-.112a.713.713 0 0 0-.77-.15m-3.964.179c-.223.057-.479.234-.548.379-.073.154-.082.296-.025.385.031.048.039.042.039-.032.001-.056.077-.168.197-.288a.993.993 0 0 1 .856-.301l.208.026-.124-.083c-.141-.094-.417-.133-.603-.086m4.206 1.217c-.343.343-.116.866.376.867.149 0 .197-.022.33-.155.13-.131.155-.182.155-.322 0-.336-.194-.523-.542-.523-.157 0-.206.02-.319.133m.694.197c.011.095-.002.11-.092.11-.11 0-.165-.08-.125-.183.041-.108.202-.054.217.073m-4.539-.048c-.165.05-.363.279-.397.459a.672.672 0 0 0 .232.586.714.714 0 0 0 .671.041c.198-.109.337-.389.301-.604-.061-.359-.447-.589-.807-.482m.614.303c.036.095-.042.195-.152.195-.098 0-.143-.091-.101-.202.031-.08.221-.074.253.007" fill-rule="evenodd"/></svg>