<svg viewBox="0 0 24 24" xmlns="http://www.w3.org/2000/svg"><path d="M4.74 2.616c-.441.109-.688.346-.806.777-.071.255-.074.59-.074 7.207 0 6.555.004 6.953.072 7.172.077.251.301.509.525.606.331.143 6.948 2.922 7.113 2.987.247.097.613.097.86 0 .459-.18 6.98-2.929 7.126-3.003a.986.986 0 0 0 .513-.592c.067-.217.071-.635.071-7.17 0-6.617-.003-6.952-.074-7.207-.122-.443-.389-.689-.858-.788-.319-.068-14.192-.057-14.468.011m12.221 2.465c.278.092.452.249.599.537l.14.274V7.82l-.53.011-.53.011v-.783c0-1.044-.008-1.06-.533-1.058-.313.002-.4.042-.465.215-.027.071-.042.933-.042 2.468 0 2.569.002 2.593.221 2.676.14.053.512.051.633-.004.168-.077.186-.184.186-1.138V9.32h1.086l-.013 1.11-.013 1.11-.108.206c-.264.499-.6.629-1.574.607-.565-.013-.662-.026-.848-.109a1.056 1.056 0 0 1-.554-.588c-.072-.186-.076-.345-.076-2.996 0-2.757.001-2.803.084-2.98.167-.361.44-.567.847-.641.255-.047 1.314-.017 1.49.042M8.72 5.58v.5H7.36v2.04h1.28v1H7.36v2.2h1.36v1H6.28V5.08h2.44v.5m2.837-.437c.268.079.523.311.648.588.094.207.095.221.095 1.652v1.443l-.12.235a1.1 1.1 0 0 1-.611.543c-.082.026-.387.055-.679.065l-.53.019v2.632H9.28V5.08h1.033c.821 0 1.076.013 1.244.063M13.92 8.7v3.62h-1.08V5.08h1.08V8.7m-3.56-1.32v1.34h.261c.144 0 .323-.026.398-.057.21-.088.228-.207.214-1.397l-.013-1.033-.112-.097c-.098-.084-.152-.096-.43-.096h-.318v1.34m-2.303 6.818.225.129-.165.196c-.09.109-.172.197-.182.197-.01 0-.089-.036-.175-.08-.323-.165-.72-.07-.863.205a.81.81 0 0 0 0 .63c.13.25.494.38.758.27.128-.054.145-.077.145-.203V15.4h-.44v-.44h.96V15.995l-.269.132c-.248.122-.3.133-.65.133-.348 0-.4-.01-.599-.12a1.182 1.182 0 0 1-.509-.593 1.51 1.51 0 0 1-.05-.387 1.098 1.098 0 0 1 .692-1.04c.166-.065.272-.078.551-.066.301.013.375.032.571.144m9.394-.027c.126.057.229.125.229.15 0 .039-.237.399-.262.399a4.83 4.83 0 0 1-.232-.102c-.249-.114-.492-.12-.558-.013-.075.119.002.19.3.276.434.126.583.198.714.347.097.111.118.17.118.336 0 .222-.039.322-.191.485-.258.276-.881.307-1.357.067-.148-.075-.275-.156-.282-.18-.007-.023.056-.12.139-.213l.151-.17.201.104c.275.143.569.176.692.077.176-.143.079-.216-.513-.389-.305-.089-.475-.203-.542-.365-.152-.363.017-.731.404-.879.243-.093.705-.06.989.07m-6.951.952c.242.573.446 1.059.454 1.081.008.024-.105.035-.295.028l-.309-.012-.07-.18-.07-.18-.441-.011-.44-.012-.072.202-.073.201h-.619l.181-.43c.1-.237.299-.708.441-1.049.143-.34.268-.633.278-.65.011-.017.149-.031.307-.031l.288.001.44 1.042m1.502-.773.268.424.097.155.262-.425.263-.424h.628v2.2h-.558l-.011-.65-.011-.65-.276.41c-.152.225-.29.41-.306.41-.017 0-.149-.185-.294-.41l-.263-.41v.65l-.001.65h-.56v-2.2h.591l.171.27m3.678-.03v.24h-1.16v.36h1.04v.48h-1.04v.36h1.16v.52h-1.72v-2.2h1.72v.24m-5.952.52-.124.311c-.046.117-.084.22-.084.23 0 .011.108.019.24.019.166 0 .239-.015.238-.05a2.36 2.36 0 0 0-.116-.33c-.108-.263-.117-.274-.154-.18m3.775 4.562-1.556.514-1.463-.501a65.96 65.96 0 0 1-1.481-.518c-.009-.009 1.35-.015 3.02-.013l3.037.004-1.557.514" fill-rule="evenodd"/></svg>