<svg viewBox="0 0 24 24" xmlns="http://www.w3.org/2000/svg"><path d="M10.92 2.524a9.574 9.574 0 0 0-5.661 2.735 9.424 9.424 0 0 0-2.788 6.721c-.004 2.585.968 4.942 2.788 6.761 2.33 2.331 5.638 3.284 8.877 2.557 3.197-.718 5.862-3.134 6.908-6.262a9.67 9.67 0 0 0 .199-5.397 9.484 9.484 0 0 0-2.502-4.38 9.521 9.521 0 0 0-5.709-2.737c-.449-.048-1.672-.047-2.112.002m2.49 1.777c1.194.211 2.464.787 3.46 1.569l.09.07-5.512 5.512-5.511 5.511-.21-.281c-.274-.367-.613-.926-.598-.987.006-.027 1.631-2.625 3.611-5.774l3.6-5.726.36.022c.198.012.518.049.71.084m4.753 2.869c.119.141.569.825.712 1.084.487.878.857 2.121.911 3.061l.022.385-5.053 3.18a10566.53 10566.53 0 0 1-5.74 3.611l-.686.432-.254-.148a11.198 11.198 0 0 1-.934-.635c-.075-.059.172-.313 5.42-5.561a1514.49 1514.49 0 0 1 5.513-5.499c.007 0 .047.04.089.09m1.398 6.865c-.26 1.019-.834 2.112-1.572 2.99-1.838 2.188-4.651 3.194-7.443 2.662l-.354-.067 4.713-2.968c2.592-1.632 4.719-2.961 4.726-2.954.007.007-.024.159-.07.337" fill-rule="evenodd"/></svg>