<svg viewBox="0 0 24 24" xmlns="http://www.w3.org/2000/svg"><path d="m9.959 4.906-3.244 5.382-1.15 1.907 2.127 1.259 3.244 1.918 1.116.66.184-.112c.101-.061 1.534-.907 3.184-1.88 1.65-.973 3.022-1.79 3.05-1.816.038-.036-.65-1.207-3.148-5.355-1.759-2.92-3.214-5.338-3.234-5.373-.027-.049-.531.758-2.129 3.41m-4.42 8.612c.021.035 5.902 8.329 6.262 8.832l.15.21 3.219-4.53c1.77-2.491 3.213-4.537 3.206-4.545-.007-.008-1.436.825-3.175 1.852a377.488 377.488 0 0 1-3.217 1.887c-.03.011-1.487-.826-3.238-1.862a301.045 301.045 0 0 0-3.208-1.882c-.012 0-.012.017.001.038" fill-rule="evenodd"/></svg>