<svg viewBox="0 0 24 24" xmlns="http://www.w3.org/2000/svg"><path d="M6.12 7.427c-.693.109-1.26.299-1.74.582-1.453.855-2.307 2.332-2.307 3.991a4.587 4.587 0 0 0 3.822 4.538c.449.078 1.233.08 1.672.003a4.63 4.63 0 0 0 3.773-3.849 4.608 4.608 0 0 0-3.917-5.249c-.292-.041-1.086-.051-1.303-.016m10.68-.004-.34.06c-.803.139-1.667.581-2.297 1.177-1.104 1.043-1.635 2.613-1.382 4.085a4.612 4.612 0 0 0 6.039 3.611 4.616 4.616 0 0 0 2.866-2.873c.17-.504.237-.923.237-1.483 0-.963-.243-1.763-.784-2.58-.619-.936-1.702-1.674-2.819-1.919-.287-.063-1.308-.115-1.52-.078" fill-rule="evenodd"/></svg>