<svg viewBox="0 0 24 24" xmlns="http://www.w3.org/2000/svg"><path d="M16.21 10.177c-.276.302-.373.569-.381 1.049-.003.204.007.383.022.398.015.015.055.004.089-.024.07-.058.08-.053.115.062.019.062-.005.105-.098.174-.068.05-.113.101-.1.114.012.013.059-.01.103-.05.078-.071.08-.07.08.051a.244.244 0 0 1-.106.207c-.058.046-.094.095-.079.11.014.015.048.005.074-.021a.162.162 0 0 1 .093-.047c.08 0 .015.197-.093.281-.056.044-.089.092-.074.107.014.015.048.005.074-.021.072-.072.111-.056.111.046 0 .051-.045.135-.1.187-.114.107-.139.208-.027.106.041-.036.086-.054.1-.039.107.106-.133.373-.336.373-.157 0-.156.116.002.289.094.102.128.119.156.076.025-.038.04-.041.051-.007.012.035.045.036.127.004.139-.052.239-.054.209-.005s-.259.163-.325.163c-.07 0-.109.139-.072.25.017.049.026.12.021.156-.006.037.009.079.032.093.064.039.05.101-.022.101-.042 0-.056.022-.04.063a.483.483 0 0 1 .024.14c0 .06.028.077.127.077.07 0 .16.03.2.066.069.063.073.06.073-.072 0-.14.091-.316.139-.268a.907.907 0 0 1 .049.253c.015.143.045.236.081.25.122.047.149-.065.15-.628l.001-.557.13-.134c.158-.163.175-.31.035-.31-.052 0-.115-.024-.14-.054-.031-.038-.042-.402-.035-1.21.01-1.1.005-1.174-.085-1.536a4.212 4.212 0 0 0-.123-.433c-.02-.037-.088.012-.232.17m-12.69 2.58c0 1.362.014 2.083.04 2.083.022 0 .04-.041.04-.091 0-.18.106-.269.322-.269.144 0 .198.015.198.057 0 .031.054.069.12.083.066.014.12.052.12.083 0 .031.032.057.072.057.04 0 .093.021.119.047.086.086.102-.079.076-.79-.014-.382-.011-.702.007-.713.017-.011.185.227.373.528.334.536.45.65.456.448.005-.166.015-.2.057-.2.022 0 .04.046.04.101 0 .056.027.112.06.125.033.012.06.056.06.096s.044.124.099.186l.098.112.002-.17c.001-.162.007-.17.121-.17.111 0 .12.011.125.15.002.083.013.118.023.08.019-.076.172-.098.172-.025 0 .032.017.03.058-.004.032-.026.075-.038.096-.025.02.013.059-.03.085-.094.047-.114.036-.135-.395-.697a10.307 10.307 0 0 1-.444-.602c0-.013.028-.023.062-.023.118 0 .363-.155.528-.334.219-.237.306-.529.282-.944-.029-.505-.244-.818-.712-1.038-.217-.103-.235-.104-1.29-.117l-1.07-.014v2.084m3.265-2.045c-.009.016-.019.766-.021 1.668a542.5 542.5 0 0 1-.007 2.03l-.004.39h.124c.105 0 .123-.015.123-.1 0-.084.019-.1.118-.1.064 0 .128.017.141.038.013.021.095.005.192-.039.236-.108.269-.101.269.056 0 .172.133.224.262.103.063-.059.115-.073.211-.053.114.022.127.015.128-.07 0-.052.017-.121.037-.154.032-.05.041-.049.064.01.056.145.178.052.178-.134 0-.114.279-.111.308.003.041.155.092.077.092-.14V14H7.84v-.72h1.08v-.92H7.84v-.76h1.12v-.9l-1.079-.008c-.594-.004-1.087.005-1.096.02m5.815 1.606c0 1.048.014 1.646.04 1.662.022.014.04-.008.041-.048.001-.056.016-.048.068.036a.318.318 0 0 0 .159.13c.077.02.092.05.092.183 0 .15.007.159.119.159.134 0 .184.105.152.322-.014.093-.004.116.039.1.032-.012.101-.033.154-.047.056-.014.096-.053.096-.094a.18.18 0 0 1 .06-.121c.049-.04.06-.169.06-.685v-.635h1.16v-.92h-1.16v-.68h1.28v-1H12.6v1.638m4.961.341c.003 1.523.014 1.982.051 1.969.026-.009.046-.042.044-.073-.003-.043.059-.06.245-.069.222-.01.251-.002.27.072.015.056.054.082.125.082.066 0 .104.022.104.06 0 .033.035.06.078.06.042 0 .088.018.102.04.076.123.099-.031.109-.729l.011-.77.293.46c.485.759.527.8.527.525 0-.089.018-.172.04-.186.024-.015.04.046.04.158 0 .179.057.248.092.112.01-.038.021-.012.023.06.003.087.025.13.065.13a.06.06 0 0 1 .06.06c0 .129.076.051.088-.09.011-.137.023-.151.142-.163.125-.012.13-.007.135.14.002.084.013.121.023.083.021-.081.095-.091.164-.022.037.037.048.037.048-.002 0-.027.03-.044.066-.038.041.008.079-.028.103-.096.033-.099-.003-.159-.409-.69l-.445-.582.112-.041.153-.056c.142-.052.378-.281.478-.466.095-.175.121-.277.134-.542.032-.606-.159-.955-.658-1.202l-.31-.153-1.053-.014-1.053-.014.003 1.987m3.239-.081c0 1.222.014 1.906.04 1.922.022.014.04.005.04-.02s.018-.034.04-.02c.07.043.043.14-.04.14-.059 0-.08.027-.08.1 0 .084.019.1.12.1.107 0 .12-.013.12-.12 0-.11.011-.12.14-.12.101 0 .14.018.14.063 0 .054.02.051.135-.02a.565.565 0 0 1 .24-.083c.093 0 .105.015.105.14 0 .129.01.14.12.14.084 0 .12-.019.12-.065 0-.053.03-.062.158-.044.153.02.16.016.207-.125.026-.08.056-.123.065-.096.031.092.12.051.143-.065.038-.191.292-.213.379-.033.035.073.043.05.045-.142l.003-.23h-1.16v-.72h1.08v-.92h-1.08v-.76H23v-.92h-2.2v1.898M.96 12.36c0 1.431.008 1.64.06 1.64.033 0 .061-.032.063-.07.003-.056.008-.058.026-.01.027.07.168.2.217.2.019 0 .034.071.034.157 0 .149.007.159.13.17.129.013.13.016.142.243.012.222.055.294.102.17.031-.08.105-.076.17.01.047.062.054.05.055-.1 0-.093.019-.17.041-.17.025 0 .04-.247.04-.66v-.66h1.2v-.88H2.08v-.72h1.24v-.96H.96v1.64m8.32.414v2.055l.1-.019a.152.152 0 0 0 .125-.115c.018-.072.051-.095.137-.095.066 0 .131.029.155.07.022.038.041.051.042.029.001-.058.216-.179.317-.179.056 0 .084.025.084.078 0 .042.018.089.041.102.022.014.03.042.017.063-.012.02.023.037.08.037.064 0 .102-.022.102-.06 0-.069.008-.07.21-.023.137.032.15.027.151-.051 0-.113.077-.226.105-.156.037.089.128.053.141-.056.007-.058.042-.124.077-.146.089-.056.276-.001.276.081 0 .047.012.055.043.024.023-.023.037-.112.03-.198l-.013-.155-.57-.011-.57-.011v-.758h1.08v-.88h-1.08v-.758l.55-.011.55-.011.011-.45.012-.45H9.28v2.054m6.84-1.374c0 .044-.017.08-.039.08-.021 0-.057-.036-.081-.08-.036-.068-.03-.08.039-.08.054 0 .081.026.081.08m.154.116c.038.024.041.042.01.061-.05.032-.124-.004-.124-.059 0-.047.043-.048.114-.002m-11.048.097c.145.075.214.217.214.44 0 .295-.175.445-.577.492l-.223.026v-1.062l.234.021c.128.012.286.049.352.083m14.06.01c.151.078.194.173.194.429 0 .179-.018.235-.101.318-.104.105-.364.19-.577.19h-.122v-1.05l.247.028c.137.015.298.054.359.085m2.172.002c.058.022.058.029-.005.075-.055.041-.079.04-.121-.002-.028-.029-.052-.063-.052-.075 0-.03.097-.029.178.002M9.72 11.76c0 .017-.027.042-.06.054-.041.016-.06-.002-.06-.054s.019-.07.06-.054c.033.012.06.037.06.054m11.306-.018c.013.034.013.072 0 .085-.035.035-.149-.069-.123-.112.034-.055.097-.041.123.027m-13.377-.001c.07.027.045.285-.032.315-.067.025-.115-.04-.055-.077.029-.018.023-.056-.018-.118-.078-.12-.032-.172.105-.12m-.269.059c.014.022.016.04.006.04a.406.406 0 0 0-.083.024c-.047.018-.057.008-.039-.04.028-.073.079-.083.116-.024m8.938.203c-.024.046-.052.076-.062.066-.028-.028.029-.149.07-.149.02 0 .017.038-.008.083m-.054.18a.381.381 0 0 0-.024.1c0 .062-.081.041-.107-.027a.084.084 0 0 1 .031-.099c.086-.055.127-.044.1.026M7.48 12.2c0 .022-.019.04-.042.04-.024 0-.032-.018-.018-.04.014-.022.033-.04.042-.04.01 0 .018.018.018.04m2.72.023c0 .037-.027.058-.067.05-.1-.02-.114-.113-.016-.113.049 0 .083.026.083.063m11-.006c0 .009.011.045.024.08.036.092-.053.077-.104-.017-.034-.064-.03-.08.019-.08.033 0 .061.008.061.017m-11.492.329c-.012.012-.06.009-.107-.006-.067-.021-.076-.038-.039-.082.039-.047.055-.047.107.005.033.033.051.071.039.083m-2.595.027c.014.074-.024.084-.108.031-.063-.04-.022-.136.049-.113.025.009.052.046.059.082m2.827-.013c.014.022-.016.04-.068.039-.074 0-.08-.008-.032-.039.074-.048.07-.048.1 0m-2.58.04c0 .022-.028.04-.062.04-.035 0-.052-.018-.038-.04.014-.022.042-.04.062-.04a.04.04 0 0 1 .038.04m8.94.033c0 .073-.078.059-.094-.015-.008-.042.007-.06.04-.049.03.01.054.039.054.064m-14.66.388c0 .054-.042.074-.105.049-.014-.005-.032-.091-.04-.19l-.014-.18.079.131c.044.072.08.157.08.19m14.612-.208c.011.029-.013.073-.052.098-.058.036-.078.032-.097-.016-.013-.034-.013-.079-.001-.099.034-.054.127-.044.15.017m3.028.051c0 .023-.065.045-.144.048-.118.005-.136-.004-.099-.049.053-.064.243-.063.243.001m3.14.057c-.011.017-.056.022-.101.01-.064-.016-.071-.032-.035-.076.035-.042.06-.045.101-.011.03.025.045.059.035.077M8.4 12.9a.06.06 0 0 1-.058.06c-.066 0-.112-.057-.074-.094.048-.048.132-.026.132.034m10.16.24c.041.049.038.06-.015.06-.036 0-.065-.027-.065-.06s.007-.06.015-.06.038.027.065.06m-8.8.095c0 .051-.117.141-.146.112-.041-.041.02-.147.085-.147.033 0 .061.016.061.035m11.414.025c-.025.066-.078.079-.111.026-.026-.044.014-.086.082-.086.03 0 .043.026.029.06m-19.183.14c.01.092.007.094-.044.03-.031-.038-.084-.07-.119-.07-.035 0-.075-.019-.09-.043-.017-.028.02-.038.108-.03.109.011.136.032.145.113m5.368.047c.001.068-.099.193-.154.193-.045 0 0-.296.049-.328.051-.032.104.037.105.135m9.058.166c-.014.037-.044.067-.066.067-.022 0-.029-.028-.015-.063a.395.395 0 0 0 .024-.108c0-.031.013-.032.041-.004.023.023.03.072.016.108m-9.337.052c0 .032-.042.055-.1.055-.108 0-.111-.004-.077-.092.027-.073.177-.042.177.037m10.98-.025a.091.091 0 0 1-.072.039c-.029 0-.024-.016.012-.039.077-.05.091-.05.06 0m-2.071.24c.003.044-.011.08-.031.08-.044 0-.051-.094-.011-.133.036-.037.035-.037.042.053m2.45.041c-.027.016-.037.05-.022.075.016.024.002.044-.03.044-.053 0-.107-.08-.107-.158 0-.017.047-.022.104-.011.067.013.086.03.055.05m-2.137.222c-.076.056-.22.082-.169.031.048-.048.207-.121.227-.104.011.009-.015.042-.058.073m-.182.078c.068.127.002.223-.097.141-.049-.04-.058-.123-.026-.232.012-.041.079.007.123.091m.081.962c0 .134.014.215.032.187.036-.057.03-.361-.008-.399-.014-.013-.025.082-.024.212" fill-rule="evenodd"/></svg>