<svg viewBox="0 0 24 24" xmlns="http://www.w3.org/2000/svg"><path d="M11.129 3.661c-.689.157-1.399.608-1.783 1.131-.209.285-5.204 8.843-5.177 8.87.006.007.12-.025.251-.069a3.98 3.98 0 0 1 2.672.086c.905.377 1.708 1.174 2.086 2.071.134.319.262.768.262.923 0 .048.015.087.034.087.019 0 .293-.445.608-.99.525-.905 4.275-7.323 4.47-7.65.046-.077.142-.311.215-.52.123-.359.131-.411.131-.94 0-.524-.008-.583-.126-.922-.344-.993-1.039-1.678-2.032-2.003-.4-.131-1.202-.168-1.611-.074m6.531 5.215c-.618.167-1.05.43-1.498.911-.263.283-.453.593-1.961 3.202-1.905 3.297-1.883 3.25-1.912 4.054-.015.422-.004.558.067.84.269 1.066.985 1.837 2.046 2.204.357.123.409.131.938.131.528 0 .581-.008.94-.131.659-.227 1.182-.602 1.536-1.101.171-.239 3.15-5.363 3.356-5.769.836-1.654-.02-3.702-1.792-4.284-.439-.145-1.293-.173-1.72-.057M4.975 14.258a3.183 3.183 0 0 0-2.195 1.797c-.201.439-.272.78-.269 1.285.014 2.204 2.24 3.665 4.294 2.818 1.556-.642 2.316-2.455 1.687-4.027-.325-.812-1.064-1.506-1.912-1.796-.272-.092-.399-.111-.84-.121-.342-.008-.604.007-.765.044" fill-rule="evenodd"/></svg>