<svg viewBox="0 0 24 24" xmlns="http://www.w3.org/2000/svg"><path d="M3.82 7.699c-1.346.298-2.358 1.238-2.767 2.569-.099.32-.108.41-.108.992 0 .582.009.672.107.991.407 1.323 1.407 2.267 2.719 2.568 1.187.271 2.507-.071 3.31-.859.429-.422.706-.893.904-1.543.1-.325.11-.417.112-1.017.002-.363-.01-.692-.026-.73-.027-.066-.138-.07-1.74-.06l-1.711.01-.011.69-.011.69H6.56v.094c0 .161-.247.597-.458.809-.241.241-.618.436-1.002.517a1.772 1.772 0 0 1-.88 0c-.442-.094-.757-.27-1.101-.617-.464-.467-.638-.889-.639-1.546 0-.618.202-1.108.635-1.539.468-.466.997-.665 1.665-.627.427.024.713.124 1.019.356l.212.16.514-.512.513-.512-.089-.095c-.288-.309-1.055-.683-1.62-.791-.366-.07-1.187-.069-1.509.002M10.6 11.3v3.18h.8v-2.55l.87-.019c.765-.016.901-.029 1.125-.107.468-.162.86-.479 1.096-.887.313-.541.303-1.291-.025-1.85-.146-.25-.544-.603-.837-.743-.365-.174-.641-.203-1.899-.204H10.6v3.18m2.529-2.338c.41.114.751.594.751 1.058 0 .477-.341.933-.793 1.059-.081.022-.494.041-.917.041h-.77v-2.2h.79c.435 0 .857.019.939.042m2.835 1.099a2.48 2.48 0 0 0-.42.17c-.204.109-.664.519-.664.591.001.021.155.133.345.25l.344.212.136-.159c.289-.338.886-.494 1.326-.348.25.083.556.346.654.561.04.089.074.254.074.367l.001.206-.233-.095c-.602-.243-1.443-.213-2.01.07-.569.285-.819.696-.788 1.298.029.572.332.999.902 1.269.254.12.295.127.73.127.44 0 .473-.006.727-.131.174-.086.335-.207.467-.351l.201-.221.012.292.012.291.39.011.39.012v-1.492c-.001-1.6-.012-1.705-.212-2.091-.176-.341-.507-.619-.948-.8-.248-.101-1.127-.125-1.436-.039m2.792.228.897 2.039.823 1.867-.477 1.027a38.43 38.43 0 0 0-.5 1.102c-.023.071.001.076.373.076.272 0 .41-.016.436-.05.043-.056 2.653-6.051 2.683-6.16.017-.064-.022-.07-.417-.07h-.435l-.557 1.39c-.307.765-.592 1.469-.634 1.566l-.077.177-.647-1.557-.646-1.556-.448-.011-.448-.012.074.172M17.5 12.46l.24.12-.005.209c-.01.385-.387.839-.837 1.009-.603.228-1.27-.063-1.328-.577-.04-.356.153-.627.574-.804.211-.089.283-.098.676-.088.397.01.464.023.68.131" fill-rule="evenodd"/></svg>