<svg viewBox="0 0 24 24" xmlns="http://www.w3.org/2000/svg"><path d="M1.42 8.776a.831.831 0 0 0-.438.435c-.057.15-.063.471-.053 2.856l.011 2.686.12.17a.965.965 0 0 0 .28.253l.16.084 10.44.011c11.67.012 10.646.038 10.915-.276a1 1 0 0 0 .181-.335c.03-.119.044-.983.044-2.67 0-2.765-.001-2.779-.249-3.019-.282-.273.663-.251-10.86-.249-8.511.001-10.453.011-10.551.054m21.191.183a.87.87 0 0 1 .227.246c.08.143.082.197.082 2.792 0 2.847.007 2.752-.207 2.951-.243.227.526.212-10.733.212-9.217 0-10.359-.007-10.49-.062a.637.637 0 0 1-.375-.348c-.074-.144-.076-.257-.066-2.803l.011-2.653.115-.151a.893.893 0 0 1 .28-.227c.16-.072.475-.074 10.588-.065l10.423.009.145.099m-14.677.963c-.167.107-.269.325-.236.503.036.188.236.407.402.438.294.055.58-.147.58-.408v-.135h-.24c-.187 0-.24.013-.24.06 0 .044.047.06.18.06.201 0 .215.024.101.17-.098.125-.262.159-.428.09-.151-.063-.213-.166-.213-.352 0-.28.317-.478.537-.334.082.054.102.055.142.007.037-.045.023-.068-.074-.119a.515.515 0 0 0-.511.02m.946.418v.5h.28c.222 0 .28-.012.28-.06 0-.046-.051-.06-.22-.06H9v-.32h.2c.151 0 .2-.015.2-.06s-.049-.06-.2-.06H9V10h.22c.193 0 .22-.01.22-.08 0-.072-.027-.08-.28-.08h-.28v.5m.701-.462c-.043.07.017.122.141.122h.118v.42c0 .393.005.42.08.42s.08-.027.08-.417v-.418l.13-.012c.083-.008.13-.035.13-.073 0-.047-.068-.062-.327-.072-.195-.006-.337.006-.352.03m1.179.459c0 .425.01.503.061.503.052 0 .06-.072.05-.487-.008-.345-.026-.491-.061-.503-.038-.013-.05.102-.05.487m.28-.419c0 .067.026.082.14.082h.14v.42c0 .347.01.42.06.42.05 0 .06-.073.06-.417v-.418l.13-.012c.083-.008.13-.035.13-.073 0-.048-.068-.062-.33-.072-.309-.011-.33-.006-.33.07m1.332-.002a.511.511 0 0 0 .092.92c.208.073.353.035.522-.134.117-.117.134-.16.134-.339 0-.175-.019-.225-.131-.348-.169-.183-.419-.224-.617-.099m.948.424c0 .412.01.5.059.5.046 0 .06-.078.07-.379l.011-.38.233.38c.166.269.256.379.312.379.073 0 .077-.027.066-.49-.009-.404-.022-.49-.071-.49-.049 0-.059.066-.057.37.002.203-.001.37-.006.37s-.094-.14-.199-.31c-.227-.369-.293-.45-.364-.45-.042 0-.054.108-.054.5M2.718 9.906c-.001.019.445.47.99 1.002l.992.968.298-.296c.164-.164.29-.304.28-.314-.01-.009-.544-.315-1.187-.68-1.111-.631-1.369-.759-1.373-.68m10.166.158c.102.092.137.31.074.462-.096.231-.421.282-.599.093-.156-.166-.102-.514.096-.614.111-.057.335-.026.429.059M2.54 10.21c-.035.244-.006 3.697.032 3.735.017.017.476-.413 1.019-.957L4.58 12l-.98-.98c-.539-.539-.992-.98-1.007-.98-.016 0-.039.077-.053.17m2.569 1.461-.309.311.331.329.33.329.42-.25c.357-.213.421-.267.432-.362.007-.062-.008-.138-.033-.168-.039-.047-.806-.5-.847-.5-.008 0-.154.14-.324.311m2.858.005a1.095 1.095 0 0 0-.716.908c-.081.781.707 1.376 1.475 1.115.352-.12.634-.538.634-.94V12.6H8.32v.28h.729l-.026.11c-.07.292-.328.47-.683.47a.717.717 0 0 1-.653-.352c-.147-.222-.153-.614-.014-.838.207-.332.706-.457 1.051-.263l.155.087.103-.096.104-.097-.113-.091c-.135-.109-.452-.211-.65-.209a1.448 1.448 0 0 0-.356.075M14.04 12.7v1.02h.32v-2.04h-.32v1.02m2.44 0v1.02h.32v-.76h.23c.323-.001.51-.062.669-.221a.605.605 0 0 0 .035-.819c-.161-.192-.327-.24-.819-.24h-.435v1.02m1.56 0v1.02h.32v-2.04h-.32v1.02m-.643-.681c.192.099.224.346.068.527-.084.098-.129.113-.38.127l-.285.016v-.729h.242c.134 0 .292.026.355.059M3.69 13.09c-.534.534-.97.986-.97 1.005 0 .078.255-.049 1.368-.681.645-.366 1.18-.672 1.19-.681.019-.017-.562-.613-.597-.613-.012 0-.458.437-.991.97m6.321-.69a.685.685 0 0 0-.382 1.124c.279.331.842.306 1.094-.048.094-.132.145-.438.102-.611-.078-.31-.48-.54-.814-.465m1.514.002a.73.73 0 0 0-.439.322c-.124.181-.11.554.029.749.256.36.818.38 1.104.04.423-.501-.049-1.256-.694-1.111m1.461.016c-.418.15-.583.587-.373.986.172.325.602.461.848.268l.112-.088-.024.178c-.05.373-.432.481-.668.189-.055-.068-.077-.071-.172-.028-.14.064-.137.122.011.271.301.301.755.262 1.018-.089.075-.102.083-.176.094-.908l.013-.797h-.143c-.1 0-.142.018-.142.061 0 .053-.011.054-.09.004a.548.548 0 0 0-.484-.047m2.03-.021a.616.616 0 0 0-.415.346c-.229.462.092 1.014.59 1.016a.697.697 0 0 0 .518-.206l.09-.097-.12-.07c-.116-.069-.123-.069-.225.011-.148.117-.374.11-.491-.013l-.09-.097.173-.076c.096-.041.304-.128.463-.193.249-.102.286-.129.265-.198a.65.65 0 0 0-.758-.423m3.882.004a.675.675 0 0 0-.236.157l-.115.12.134.057c.123.051.144.049.243-.024.143-.106.368-.071.462.072.083.127.066.14-.125.097-.361-.081-.741.137-.741.426 0 .231.254.454.518.454.141 0 .344-.092.375-.169.011-.028.022-.01.024.039.002.076.025.09.143.09h.14v-.497c0-.477-.004-.502-.104-.621a.852.852 0 0 0-.17-.159c-.108-.058-.417-.081-.548-.042m.862.01c0 .009.117.282.26.607.143.326.26.614.26.641 0 .027-.063.186-.14.353a3.7 3.7 0 0 0-.14.325c0 .013.069.023.153.023h.153l.334-.77.427-.98.092-.21h-.347l-.172.44c-.095.243-.182.431-.194.42a5.864 5.864 0 0 1-.188-.431l-.168-.409-.165-.012c-.091-.007-.165-.005-.165.003m-9.368.319c.098.081.169.295.143.427-.077.385-.586.444-.734.085a.45.45 0 0 1 .239-.575.478.478 0 0 1 .352.063m1.555.037c.178.167.156.517-.041.655-.138.096-.375.074-.485-.045-.138-.148-.162-.308-.074-.487.126-.258.397-.314.6-.123m1.523.015c.13.148.126.447-.008.592-.23.248-.622.059-.622-.3 0-.197.05-.295.191-.373a.355.355 0 0 1 .439.081m1.887-.076.094.066-.1.053a4.84 4.84 0 0 1-.306.133l-.205.081v-.083c0-.112.212-.316.328-.316.052 0 .137.03.189.066m4.02.438c.087.034.08.07-.041.213-.081.097-.135.123-.252.123-.228 0-.323-.155-.181-.297.063-.063.349-.087.474-.039" fill-rule="evenodd"/></svg>