<svg viewBox="0 0 24 24" xmlns="http://www.w3.org/2000/svg"><path d="M9.412 2.322a1.546 1.546 0 0 0-.711.644c-.103.189-.147.4-.38 1.814l-.263 1.6-1.639.022c-1.811.023-1.789.02-2.188.302-.671.473-.724 1.539-.106 2.117.384.359.376.357 2.005.371 1.315.011 1.43.017 1.431.08.001.037-.201 1.296-.448 2.796l-.45 2.729-1.681.011-1.682.012-.253.137c-.702.381-.95 1.199-.574 1.897.138.257.437.52.719.633.219.087.282.091 1.622.105 1.282.012 1.392.019 1.377.081-.01.037-.114.666-.233 1.397-.196 1.218-.211 1.349-.168 1.552.068.326.202.562.439.78.299.272.578.371.991.348.39-.021.642-.13.901-.389.309-.309.341-.418.632-2.17l.265-1.591h2.051c1.31 0 2.051.014 2.051.039 0 .022-.1.638-.222 1.37-.237 1.42-.241 1.501-.091 1.901.099.265.416.597.693.728.273.128.698.155.99.063.414-.13.808-.525.914-.915.025-.091.156-.841.291-1.666l.246-1.5 1.619-.022c.971-.014 1.669-.04 1.741-.065.579-.202.953-.658 1.006-1.229a1.408 1.408 0 0 0-.779-1.372l-.228-.112-1.444-.02-1.443-.02.452-2.72c.249-1.496.453-2.751.454-2.79.001-.065.105-.07 1.619-.07 1.53 0 1.631-.004 1.836-.081a1.39 1.39 0 0 0 .89-.999c.16-.628-.178-1.296-.804-1.588l-.24-.112-1.412-.014-1.413-.013.022-.107c.07-.337.423-2.595.423-2.706 0-.072-.038-.254-.084-.403-.071-.23-.122-.311-.33-.518-.33-.33-.594-.433-1.046-.411-.268.014-.361.038-.573.152a1.381 1.381 0 0 0-.609.624c-.055.115-.169.687-.35 1.773L14.98 6.4h-2.05c-1.127 0-2.05-.015-2.05-.032 0-.018.1-.635.222-1.37.166-1 .216-1.391.197-1.547-.052-.444-.402-.918-.812-1.102-.276-.123-.798-.137-1.075-.027m5.091 6.988c-.022.109-.903 5.446-.903 5.475 0 .008-.928.015-2.063.015H9.474l.022-.11c.023-.11.904-5.448.904-5.476 0-.007.928-.014 2.063-.014h2.063l-.023.11" fill-rule="evenodd"/></svg>