<svg viewBox="0 0 24 24" xmlns="http://www.w3.org/2000/svg"><path d="M6.835 3.04a5.864 5.864 0 0 0-3.008 1.164C2.262 5.379 1.416 7.206 1.493 9.24c.059 1.545.586 2.876 1.577 3.978.171.189 2.028 1.947 4.129 3.905 4.119 3.841 4.007 3.746 4.551 3.842.181.032.319.032.5 0 .545-.096.432-.001 4.552-3.842 2.1-1.958 3.958-3.716 4.129-3.907 1.112-1.237 1.652-2.785 1.575-4.516a5.907 5.907 0 0 0-1.003-3.098c-.865-1.297-2.318-2.234-3.883-2.503-.516-.088-1.465-.089-1.96-.001a6.183 6.183 0 0 0-2.08.781c-.416.256-.714.494-1.17.936l-.41.397-.41-.397c-.456-.442-.754-.68-1.17-.936a6.021 6.021 0 0 0-3.585-.839" fill-rule="evenodd"/></svg>