<svg viewBox="0 0 24 24" xmlns="http://www.w3.org/2000/svg"><path d="M3.84 2.565c0 .128 1.438 16.474 1.462 16.622l.021.127 3.328 1.109 3.329 1.109 3.348-1.107 3.349-1.107.021-.129c.023-.143 1.463-16.527 1.462-16.639 0-.066-.415-.07-8.16-.07H3.84v.085M17.108 6.11c-.013.126-.055.586-.094 1.02l-.071.79h-3.912c-2.151 0-3.911.005-3.911.01l.08.97c.044.528.08.992.08 1.03 0 .066.205.07 3.74.07 2.965 0 3.74.01 3.74.05 0 .199-.573 6.255-.594 6.274-.014.014-.963.281-2.107.595l-2.082.571-2.098-.58-2.098-.579-.106-1.355-.129-1.606-.023-.25h1.019c.788 0 1.018.011 1.018.05-.001.102.132 1.531.143 1.544.007.008.522.152 1.145.321l1.132.307 1.133-.307a35.113 35.113 0 0 0 1.145-.321c.007-.008.061-.518.119-1.134.059-.616.117-1.205.13-1.31l.023-.19H7.419l-.252-2.89c-.139-1.59-.263-2.985-.275-3.1l-.023-.21h10.262l-.023.23" fill-rule="evenodd"/></svg>