<svg viewBox="0 0 24 24" xmlns="http://www.w3.org/2000/svg"><path d="M18.453 5.37c.069.291.114.596.091.619-.051.051-.28-.223-.282-.336-.004-.223-.285-.272-.516-.091-.084.067-.106.118-.106.251a.653.653 0 0 1-.077.293c-.134.219-.006.212.247-.013.083-.073.174-.133.203-.133.084 0 .276.225.26.306-.018.095-.158.123-.641.129-.385.005-.388.004-.44-.105-.051-.106-.069-.112-.513-.155A25.168 25.168 0 0 1 16 6.062l-.22-.029.266.163c.146.09.277.195.292.233.038.1-.099.198-.349.247-.439.086-.531.072-.59-.086l-.049-.13-.05.231c-.06.282-.126.358-.437.509-.264.128-.239.145.111.074.244-.049.307-.031.229.063-.05.059-.159.101-.473.182-.139.036-.185.073-.252.204-.045.089-.407.493-.805.899-.398.406-.712.738-.697.738.015 0 .1-.037.189-.083.188-.095.688-.153.731-.084.015.025 0 .098-.034.164-.103.199-.179.598-.207 1.093-.015.258-.016.47-.004.47.013 0 .227-.154.475-.343.479-.364.832-.576 1.094-.658.088-.028.286-.115.44-.194l.31-.158c.017-.008.03.036.03.098 0 .209.29.52.76.814l.14.088-.294-.026c-.235-.021-.291-.016-.277.026.04.125.51.242 1.152.288l.341.024.691-.663c.442-.424.712-.655.749-.641.032.012.254.158.495.325.944.653 1.069.601.966-.398-.075-.729-.162-.915-.591-1.265-.137-.111-.26-.239-.274-.283-.017-.053.019-.171.102-.335.09-.177.135-.33.149-.51.02-.242.015-.263-.09-.36-.084-.077-.119-.157-.141-.322-.061-.446-.226-.612-.246-.247l-.012.225-.152-.204a.842.842 0 0 0-.365-.298c-.163-.072-.265-.158-.426-.359a2.327 2.327 0 0 0-.229-.264c-.009 0-.007.041.005.09M4.82 7.807c-.272.051-.799.314-1.028.512-.103.09-.267.284-.365.432-.816 1.235-.443 3.038.762 3.68 1.044.556 2.362.281 3.033-.634.081-.11.141-.207.133-.214a9.762 9.762 0 0 0-.419-.216l-.404-.202-.152.183c-.102.122-.24.223-.416.307-.235.111-.304.125-.625.125-.327 0-.386-.012-.628-.132-.423-.208-.67-.576-.753-1.118-.115-.752.179-1.416.752-1.698.243-.12.302-.132.629-.132.321 0 .39.014.625.125.176.084.314.185.416.307l.152.183.404-.202c.222-.111.411-.208.419-.216.029-.027-.284-.419-.458-.571a2.658 2.658 0 0 0-.981-.505 3.217 3.217 0 0 0-1.096-.014m4.628.034c-1.056.276-1.728 1.21-1.728 2.399 0 .754.219 1.302.719 1.801.347.347.59.489 1.024.6 1.108.283 2.203-.206 2.692-1.201a2.781 2.781 0 0 0-.005-2.439c-.172-.355-.638-.823-.99-.995a2.585 2.585 0 0 0-1.712-.165m-7.968.36v.402l.45-.012.45-.011.011-.39.012-.39H1.48v.401m16.247-.005c.31.089.635.245.802.385.064.055.13.099.146.099a.694.694 0 0 0 .167-.145.905.905 0 0 1 .662-.294c.295-.001.349.072.33.447-.011.208-.044.35-.115.492l-.099.2-.271-.006c-.315-.008-.441-.072-.538-.276-.036-.076-.078-.138-.094-.138-.015 0-.035.108-.045.241-.009.132-.036.259-.059.282-.03.03-.233-.029-.678-.195-.776-.291-1.063-.358-1.652-.386a3.888 3.888 0 0 1-.472-.038c-.017-.016.564-.477.759-.603.309-.198.628-.216 1.157-.065m-7.027.622c.272.133.548.437.667.734.076.191.091.303.091.688 0 .385-.015.497-.091.688a1.488 1.488 0 0 1-.679.739c-.2.097-.275.111-.608.111-.327.001-.411-.013-.603-.103-.295-.138-.499-.349-.651-.671-.107-.229-.126-.318-.139-.669-.029-.745.213-1.236.742-1.509.345-.179.915-.182 1.271-.008m5.197.405c.086.086.079.124-.035.199-.18.118-.374-.036-.237-.188.082-.091.188-.095.272-.011m1.254-.02c.125.043.194.137.13.176-.042.026-.47-.128-.503-.182-.031-.051.222-.047.373.006M1.48 10.98v1.7h.92v-3.4h-.92v1.7m15.432-1.532c.106.106.018.472-.115.472-.072 0-.157-.182-.157-.338 0-.102.071-.182.16-.182.035 0 .086.022.112.048m3.28 0c.12.12-.005.377-.132.272-.098-.082-.054-.32.06-.32.013 0 .046.022.072.048m-10.356.403c-.176.119-.243.253-.221.442.06.503.762.559.908.073a.463.463 0 0 0-.211-.525c-.172-.105-.309-.102-.476.01m-4.789.062c-.15.141-.198.352-.115.512.105.203.218.275.43.275.159 0 .214-.021.315-.117.317-.304.123-.783-.318-.783-.154 0-.214.022-.312.113m14.153.13c0 .074.23.277.315.277.173 0 .14-.105-.075-.235-.154-.093-.24-.108-.24-.042m-1.54.517c-.031.051-.142.051-.22 0-.045-.029-.021-.039.092-.039.092-.001.143.015.128.039m-1.933.271c-.03.01-.13.094-.223.187-.128.128-.254.2-.517.295-.58.21-.816.369-.885.597-.037.12.035.116.185-.01.066-.055.146-.1.178-.1s.181.123.331.273c.218.219.356.315.688.478.248.121.517.291.668.421.138.12.303.229.366.242.211.042 1.127 1.055 1.183 1.309.012.056.111.194.221.307l.198.205v.304c0 .641-.142 1.547-.285 1.822-.116.222-.2.769-.186 1.211l.011.38.22-.168c.379-.29.684-.779 1.061-1.702a5.572 5.572 0 0 0 .427-1.746c.056-.625.006-1.372-.124-1.836-.113-.402-.137-.66-.074-.78.109-.209.834-.47 1.491-.537.157-.016.433.003.792.056.744.109 1.079.107 1.308-.009.349-.176.457-.538.232-.777-.098-.105-.103-.105-.49-.011-.215.052-.394.039-1.963-.141-.793-.091-1.585-.133-1.533-.081.011.011.39.073.842.137.452.065.98.155 1.173.201.339.081.618.209.618.285 0 .02-.004.037-.01.036-.006 0-.154-.028-.33-.061-.453-.085-1.829-.118-2.6-.062-.73.053-.983.088-1.6.222-.561.121-.801.153-.901.122-.13-.042-.092-.092.164-.222.385-.194 1.044-.399 1.737-.541l.64-.131-.78-.003c-.848-.004-1.608-.058-1.958-.139a.9.9 0 0 0-.275-.033M.88 15.571v1.389h.358l.011-.887.011-.886.817.896c.45.494.832.903.85.91.018.008.033-.609.033-1.37V14.24h-.398l-.011.887-.011.886-.736-.816c-.405-.45-.779-.862-.83-.916l-.094-.099v1.389m3.529-1.33c-.235.048-.55.227-.698.395a1.88 1.88 0 0 0-.227.362c-.089.19-.104.276-.104.602 0 .333.014.41.112.62a1.31 1.31 0 0 0 1.766.639c.259-.122.474-.351.617-.654.09-.194.105-.278.105-.605 0-.326-.015-.412-.104-.602-.147-.313-.324-.498-.609-.635a1.394 1.394 0 0 0-.858-.122m2.611-.006c-.569.15-.838.74-.513 1.126.13.155.378.28.816.413.542.165.688.299.619.571-.029.117-.22.241-.422.275-.118.02-.161.053-.214.164-.105.22-.095.229.215.207.51-.037.837-.339.838-.775.002-.396-.196-.568-.936-.815-.272-.091-.526-.2-.565-.243-.115-.127-.092-.312.056-.444.104-.093.164-.114.326-.114.188 0 .205-.009.305-.161.059-.088.096-.171.084-.183-.039-.039-.483-.054-.609-.021m1.62.185v.18h2v-.36h-2v.18m2.36-.003v.183h.574c.531 0 .584.007.71.091.25.169.31.467.145.713-.128.19-.285.231-.899.234l-.53.002v1.32h.36V16l.33.001.33.001.264.469.264.469.206.012c.113.007.206 0 .206-.014 0-.026-.332-.631-.485-.884l-.077-.126.141-.088c.349-.215.475-.776.261-1.158a1.097 1.097 0 0 0-.273-.3l-.174-.122-.676-.013-.677-.014v.184m-5.913.266c.353.181.511.464.512.919.001.248-.018.341-.104.514a.909.909 0 0 1-1.63 0c-.086-.173-.105-.266-.104-.514.001-.446.141-.708.479-.899a.982.982 0 0 1 .847-.02M9.44 16.06v.9h.4v-1.8h-.4v.9m-4.92-.62a.277.277 0 0 0-.08.16c0 .044.036.116.08.16.044.044.116.08.16.08a.277.277 0 0 0 .16-.08.277.277 0 0 0 .08-.16.277.277 0 0 0-.08-.16.277.277 0 0 0-.16-.08.277.277 0 0 0-.16.08m1.95.869c-.082.034-.15.078-.15.098 0 .075.143.249.297.361l.16.115.086-.168.086-.169-.161-.153a2.48 2.48 0 0 0-.165-.149c-.001.002-.07.031-.153.065" fill="#20092d" fill-rule="evenodd"/></svg>