<svg viewBox="0 0 24 24" xmlns="http://www.w3.org/2000/svg"><path d="M12.826 2.042c-.443.111-.502.233-.476.978l.02.56-2.952 7.66c-1.624 4.213-2.978 7.777-3.009 7.92-.069.316-.044.853.052 1.14.291.866.869 1.405 1.748 1.627.963.244 2.082-.249 2.584-1.137.065-.116 1.436-3.648 3.046-7.85 1.68-4.385 2.972-7.7 3.031-7.78.057-.077.253-.288.437-.468.363-.358.392-.433.275-.713-.253-.605-2.019-1.552-3.467-1.859-.447-.094-1.075-.133-1.289-.078m1.214.476c.864.188 1.852.599 2.526 1.05.336.225.634.514.634.615 0 .026-.131.181-.292.342a5.695 5.695 0 0 0-.396.435c-.061.081-1.324 3.313-3.009 7.7-1.598 4.158-2.961 7.674-3.028 7.813a2.513 2.513 0 0 1-.357.503 1.927 1.927 0 0 1-2.455.288c-.61-.391-.975-1.2-.864-1.916.032-.204.821-2.304 2.983-7.93 1.617-4.208 2.958-7.752 2.981-7.875a3.99 3.99 0 0 0 .029-.651c-.012-.425-.012-.427.088-.458.153-.048.757-.004 1.16.084m-.57.365c-.219.127.092.468.72.789.896.459 1.926.694 2.171.496.085-.07.086-.078.025-.196-.173-.335-1.289-.899-2.114-1.069-.35-.071-.698-.08-.802-.02m.667 6.682c-.334.347-.925.805-1.237.959-.209.103-.541.213-.96.317-.734.183-1.026.312-1.431.635-.537.427-.471.288-1.964 4.177-.742 1.932-1.367 3.611-1.389 3.73-.116.63.295 1.376.924 1.674.234.111.298.123.64.123.344 0 .405-.012.65-.128.304-.144.613-.429.728-.672.109-.231 4.224-10.951 4.209-10.966-.007-.007-.083.061-.17.151m-3.336 2.716c.027.052.018.096-.035.162-.083.102-.177.087-.244-.04-.035-.065-.028-.097.036-.161.088-.088.183-.073.243.039m1.136 1.102c.074.074.083.301.015.369-.082.082-.3.058-.37-.041-.084-.12-.078-.215.018-.311s.251-.104.337-.017m-1.612 1.24c.116.06.235.262.235.4 0 .125-.132.341-.243.399-.219.113-.504.056-.622-.123-.087-.134-.088-.418-.002-.541.138-.197.403-.254.632-.135m-.843 1.099c.11.11.087.268-.054.373-.103.077-.12.079-.22.023-.15-.084-.174-.322-.041-.414.122-.086.216-.081.315.018m.991 2.03c.016.111-.056.208-.153.208-.105 0-.173-.104-.143-.222.022-.088.045-.101.154-.09.1.009.132.033.142.104" fill-rule="evenodd"/></svg>