<svg viewBox="0 0 24 24" xmlns="http://www.w3.org/2000/svg"><path d="M20.68 7.649c-.092.049-.101.079-.112.364-.011.296-.051.412-.89 2.599l-.879 2.288-.301.288c-.685.657-1.507 1.043-1.616.757-.134-.352.543-1.478 1.574-2.618.785-.868.914-1.081.762-1.25-.139-.153-.626-.07-1.1.188-.109.059-.198.123-.198.141 0 .048.044.04.16-.026.148-.084.2-.073.2.045 0 .12-.165.408-.594 1.035-.72 1.054-1.1 1.49-1.664 1.91-.767.571-1.269.663-1.21.221.058-.431.768-1.531 1.53-2.371.643-.708.816-.936.845-1.116.033-.204-.032-.264-.286-.264-.308 0-.888.218-1.024.385-.052.063-.049.067.023.038l.188-.076c.261-.104.188.125-.256.801-.504.768-.979 1.397-1.338 1.774-.315.328-.374.463-.108.244.082-.068.155-.118.162-.111a.472.472 0 0 1-.049.161c-.165.395-.147.749.045.9.362.285 1.052.023 1.8-.683.171-.161.296-.257.279-.213-.26.666-.237.991.078 1.123.408.17.983-.076 1.689-.724.2-.183.28-.237.255-.173l-.367.954c-.182.473-.339.944-.349 1.046-.039.403.221.838.611 1.02.469.219 1.064.039 1.316-.397.053-.093.649-1.609 1.324-3.369.675-1.76 1.263-3.283 1.306-3.384.043-.102.15-.254.236-.338.198-.193.207-.323.035-.495-.444-.443-1.728-.86-2.077-.674m.78.214c.332.078 1.028.428 1.158.581l.105.125-.143.138a1.754 1.754 0 0 0-.198.226c-.03.048-.626 1.572-1.323 3.387a213.486 213.486 0 0 1-1.342 3.446c-.288.565-1.083.61-1.453.083-.095-.135-.124-.223-.136-.421-.016-.246 0-.292 1.312-3.705 1.288-3.349 1.328-3.463 1.312-3.688-.015-.209-.009-.233.066-.247.11-.021.351.007.642.075m-.406.158c-.032.084.074.182.346.318.37.185.861.293.947.208.134-.135-.577-.514-1.076-.575-.158-.019-.194-.011-.217.049m-9.083 1.294c-.319.11-.632.338-1.072.781-.639.645-1.09 1.28-1.52 2.144-.28.562-.605.926-1.222 1.367-.41.293-.725.442-.98.464-.171.015-.22.003-.314-.078-.496-.427.713-1.946 1.3-1.632.052.028.077.084.077.172 0 .263-.491.583-.996.65-.14.019-.196.041-.169.068.049.049.447-.023.749-.136.258-.097.556-.354.614-.53.091-.276-.081-.458-.467-.493-.513-.047-1.036.165-1.456.59-.303.306-.437.591-.441.943-.003.277.095.448.327.568.155.08.224.091.519.078a1.37 1.37 0 0 0 .64-.153c.336-.155.764-.461 1.178-.842.153-.141.263-.22.246-.176-.074.187-.224.842-.224.975.001.235.071.422.206.547.099.093.12.101.095.038-.068-.177-.069-.48-.003-.798.098-.464.104-.469.307-.266.277.277.761.482 1.138.484.249 0 .561-.107.655-.226.114-.146.103-.208-.015-.081a.496.496 0 0 1-.197.129c-.225.056-.765-.196-1.157-.539-.185-.163-.188-.204-.012-.176.175.029.66-.079.943-.21.388-.179.68-.537.68-.832 0-.106-.03-.163-.128-.246-.113-.095-.154-.106-.353-.091-.322.023-.623.186-1.007.545l-.329.307.235-.34c.509-.735.863-1.164 1.42-1.72.609-.607.918-.831 1.199-.869.128-.017.167-.007.187.046.11.284-.932 1.294-1.771 1.717-.226.114-.299.186-.185.185.103 0 .618-.288.99-.553.877-.624 1.293-1.223 1.127-1.621-.107-.256-.415-.328-.814-.19m9.217 1.746c-.279.264-.384.321-.771.42-.395.101-.559.183-.758.377-.152.15-.212.285-.776 1.759-.565 1.475-.61 1.613-.594 1.807.049.589.778.838 1.183.405.057-.061.443-1.013 1.003-2.474 1.018-2.652.966-2.516.954-2.514a6.05 6.05 0 0 0-.241.22m-15.052.155c-.243.243-.153.556.138.485.242-.06.448-.414.326-.561-.092-.111-.314-.074-.464.076m8.365.174c-.061.06-.169.227-.241.37-.348.688-1.533 2-1.807 2-.121 0-.039-.21.23-.585.444-.619.517-.801.419-1.036-.12-.288-.527-.32-.862-.068-.19.143-1 .933-1 .975 0 .075.078.017.492-.362.464-.425.682-.59.807-.611.161-.027.097.124-.219.511-.393.483-.56.797-.559 1.052.002.214.06.308.23.367.175.061.396-.01.675-.217.271-.2.755-.701 1.012-1.047.265-.357.272-.352.062.041-.946 1.776-1.811 2.747-2.727 3.063-.267.092-.66.107-.882.035a1.24 1.24 0 0 1-.774-.809c-.022-.083-.057-.141-.077-.129-.02.012-.012.099.018.201.187.622.627.909 1.402.915a2.25 2.25 0 0 0 1.117-.264c.739-.376 1.444-1.147 1.86-2.036.087-.185.268-.669.402-1.076.135-.407.29-.808.345-.892.097-.147.266-.251.339-.206.06.037.197-.061.197-.142 0-.179-.297-.212-.459-.05m-8.821.608c0 .02.018.048.04.062.123.076-.036.415-.343.732-.263.271-.234.352.042.117l.198-.169-.154.28c-.201.364-.602.976-.838 1.28-.524.671-1.332 1.344-1.851 1.54-.631.238-1.371-.096-1.541-.696-.061-.214-.113-.271-.113-.122.001.304.334.741.682.894 1.225.541 2.92-.457 3.875-2.281.272-.519.376-.883.356-1.242-.014-.236-.031-.295-.109-.358-.098-.079-.244-.101-.244-.037m14.192.152c-.016.084-.087.079-.105-.008-.007-.036.015-.062.053-.062.041 0 .061.026.052.07m-9.04.1c.075.157-.05.428-.263.569-.356.235-.9.364-1.022.242-.037-.037-.067-.088-.067-.113 0-.077.547-.579.771-.709.274-.158.502-.154.581.011m9.568.431c0 .095-.106.149-.168.087-.062-.062-.008-.168.087-.168.055 0 .081.026.081.081m-.703.502a.205.205 0 0 1-.037.321c-.093.06-.107.06-.2 0-.115-.076-.129-.205-.034-.311.081-.09.188-.094.271-.01m-.397.54c0 .07-.022.097-.079.097-.094 0-.134-.134-.055-.185.083-.052.134-.018.134.088m.42.815c0 .031-.017.068-.037.08-.048.03-.096-.045-.063-.098.037-.06.1-.048.1.018" fill-rule="evenodd"/></svg>