<svg viewBox="0 0 24 24" xmlns="http://www.w3.org/2000/svg"><path d="M7.74 2.764a4.615 4.615 0 0 0-1.418.419c-1.178.565-2.031 1.592-2.39 2.877l-.112.4v11.08l.112.4c.417 1.495 1.535 2.667 2.968 3.112.541.168.779.204 1.36.205 1.007.002 1.829-.259 2.645-.84.269-.191.793-.702.939-.914l.093-.136.421.403c.817.78 1.33 1.091 2.201 1.335 1.044.292 2.13.188 3.141-.3 1.172-.567 2.011-1.582 2.368-2.867.102-.367.111-.454.111-1.118 0-.664-.009-.751-.111-1.118a5.3 5.3 0 0 0-.629-1.387c-.095-.141-.63-.717-1.193-1.285L17.223 12l1.023-1.03c.563-.568 1.098-1.144 1.193-1.285a5.3 5.3 0 0 0 .629-1.387c.102-.367.111-.454.111-1.118 0-.664-.009-.751-.111-1.118a5.233 5.233 0 0 0-.627-1.38c-.504-.743-1.339-1.378-2.229-1.696-.865-.309-2.029-.313-2.915-.012-.683.233-1.24.592-1.919 1.238l-.442.42-.087-.126c-.127-.185-.596-.652-.849-.844a4.374 4.374 0 0 0-2.28-.901c-.428-.045-.528-.044-.98.003" fill-rule="evenodd"/></svg>