<svg viewBox="0 0 24 24" xmlns="http://www.w3.org/2000/svg"><path d="M4.437 3.21c.128.269.333.692.457.939l.226.45v14.789l-.457.936-.457.936 5.684.01c3.126.006 5.69.004 5.698-.004.02-.021 1.012-3.495 1.012-3.545 0-.028-1.223-.041-3.72-.041H9.16V2.72H4.205l.232.49m6.943.711a8.695 8.695 0 0 0-1.21.166l-.21.046V5.47l.32-.075a7.304 7.304 0 0 1 1.94-.182c1.012.036 1.776.195 2.641.55a7.297 7.297 0 0 1 4.387 5.324c.078.389.091.578.091 1.333.001.764-.011.941-.092 1.338a7.191 7.191 0 0 1-1.322 2.957l-.281.372c-.055.075-.726 2.359-.702 2.387.007.008.145-.085.305-.206 1.865-1.405 3.043-3.382 3.375-5.667.104-.714.064-2.125-.08-2.801-.369-1.739-1.167-3.193-2.428-4.423-1.573-1.535-3.581-2.388-5.814-2.47a9.963 9.963 0 0 0-.92.014m-.14 2.081a8.033 8.033 0 0 0-1.08.213l-.18.054-.01 5.305-.01 5.306h6.836l.245-.29c1.478-1.748 1.936-4.036 1.233-6.162-.745-2.256-2.735-3.95-5.134-4.37-.436-.076-1.487-.107-1.9-.056M4.125 8.82a9.532 9.532 0 0 0-.673 2.009c-.103.481-.109.572-.11 1.571-.002 1.113.017 1.303.204 2.06.145.584.317 1.06.57 1.58l.224.46.01-2.03a457.88 457.88 0 0 0 0-4.06l-.01-2.03-.215.44" fill-rule="evenodd"/></svg>