<svg viewBox="0 0 24 24" xmlns="http://www.w3.org/2000/svg"><path d="M4.02 4.602c-.801.12-1.436.59-1.799 1.331-.232.472-.305.761-.303 1.207.004 1.506 1.339 2.804 3.327 3.236l.104.023.021.61c.022.619.077.96.232 1.431.096.294.339.815.497 1.07l.106.17-.093.035c-.68.26-1.632.671-1.702.736-.101.093-.121.325-.039.432.06.078.203.157.285.157.033 0 .478-.171.988-.38s.949-.38.974-.38c.026 0 .132.099.237.22.167.194.401.409.858.789l.13.109-.547.728c-.302.4-.565.774-.586.831-.084.228.161.478.414.422.095-.021.222-.162.633-.701.283-.372.549-.723.591-.781l.077-.105.203.124c.317.195 1.16.584 1.512.697 1.212.391 2.091.431 3.18.145.67-.176 1.591-.565 2.044-.865.084-.056.169-.095.19-.087.022.008.301.359.622.781.635.836.693.883.943.754.152-.079.224-.24.171-.384-.021-.057-.287-.434-.591-.838l-.553-.735.237-.2c.13-.11.394-.358.586-.553l.348-.353.939.381c.517.21.978.381 1.025.381.11 0 .319-.209.319-.319a.436.436 0 0 0-.225-.356 53.68 53.68 0 0 0-.853-.352 40.013 40.013 0 0 1-.753-.311 2.525 2.525 0 0 1 .174-.317c.428-.712.654-1.48.686-2.338.014-.368.038-.579.067-.587.874-.264 1.593-.6 2.103-.984.822-.62 1.28-1.454 1.283-2.336.002-.447-.071-.735-.304-1.211a2.339 2.339 0 0 0-1.544-1.276c-.37-.099-1.074-.087-1.514.025-.357.091-1.116.432-1.408.634-.257.177-.728.625-.893.849l-.145.197-.276-.139c-1.024-.516-2.219-.746-3.858-.745-1.653.002-3.025.269-4.078.796l-.278.139-.095-.114c-.333-.405-.45-.528-.724-.762-.37-.317-1.181-.73-1.665-.848-.388-.095-.955-.131-1.28-.083m1.197.698c.383.111.805.311 1.147.543.239.162.876.815.876.898 0 .028-.044.079-.098.114-.334.219-.851.807-1.136 1.294a5.398 5.398 0 0 0-.543 1.497l-.025.146-.239-.055a5.635 5.635 0 0 1-1.238-.492C3.512 9 2.955 8.455 2.77 8.08c-.32-.649-.329-1.216-.029-1.828.249-.508.653-.861 1.135-.994.33-.091.948-.072 1.341.042m14.889-.044c.622.165 1.132.711 1.313 1.406.211.812-.163 1.693-.993 2.334a5.667 5.667 0 0 1-.679.402c-.444.225-1.091.471-1.132.43a1.629 1.629 0 0 1-.076-.294c-.209-1.019-.687-1.875-1.418-2.538-.177-.16-.321-.304-.321-.32 0-.066.631-.694.838-.834.333-.226.761-.43 1.131-.54.388-.115 1.001-.136 1.337-.046m-6.82.865c1.538.154 2.654.6 3.483 1.392.388.372.629.706.85 1.18.332.712.47 1.618.385 2.52-.059.623-.158.98-.425 1.527-.581 1.192-1.703 2.25-3.119 2.943l-.48.235-.027-.291c-.085-.903-.718-1.555-1.62-1.668-.927-.116-1.704.273-2.063 1.031-.091.195-.124.332-.144.61l-.026.359-.4-.18a7.12 7.12 0 0 1-2.24-1.556c-.49-.499-.819-.959-1.079-1.513-.243-.517-.34-.901-.379-1.501-.066-1.017.08-1.845.453-2.578C7.186 7.2 8.756 6.335 11 6.126c.545-.05 1.801-.053 2.286-.005M8.74 11.835c-.49.128-.797.6-.698 1.076a.927.927 0 0 0 1.305.645.924.924 0 0 0 .423-1.216c-.185-.376-.65-.604-1.03-.505m5.909.09c-.552.273-.658 1.032-.204 1.463a.908.908 0 0 0 1.514-.481.92.92 0 0 0-.499-.992 1.078 1.078 0 0 0-.811.01m-2.146 2.694c.43.127.741.485.813.936.048.301.023.368-.176.462-.278.132-.699.193-1.36.198-.553.004-.661-.005-.792-.07-.209-.105-.284-.263-.252-.535.074-.629.579-1.047 1.267-1.049.166-.001.391.025.5.058" fill-rule="evenodd"/></svg>