<svg viewBox="0 0 24 24" xmlns="http://www.w3.org/2000/svg"><path d="M11.751 4.058c-4.263.664-7.76 1.217-7.771 1.229-.012.012.275 1.123.639 2.469.364 1.347.661 2.465.661 2.486 0 .023-.561.038-1.444.038H2.391l.024.09c.044.174 2.946 9.084 2.963 9.102.01.009 1.562-.21 3.45-.488 1.888-.278 3.455-.505 3.482-.505.039.001.05.297.05 1.345 0 1.264.004 1.343.07 1.319.038-.014 1.863-.848 4.055-1.853l3.985-1.828.566-3.401c.311-1.871.565-3.426.565-3.457-.001-.048-.19-.053-1.241-.032l-1.24.024v-.148c0-.081.144-1.822.32-3.868l.32-3.73c0-.035-1.047.122-8.009 1.208m5.043 3.464c.281.061.544.24.654.446.074.14.091.235.091.512 0 .388-.051.52-.304.782l-.156.162.136.066c.561.267.552 1.319-.015 1.678-.314.2-.509.235-1.28.234a25.253 25.253 0 0 1-1.15-.028l-.45-.026V9.493c0-1.448.011-1.859.05-1.873.066-.023 1.571-.128 1.938-.135.158-.003.377.014.486.037m-2.834.553v.435l-.15.024a3.793 3.793 0 0 1-.454.026c-.167 0-.467.012-.666.026l-.363.025-.017.165c-.03.289-.059.279.737.248l.713-.027v.414c0 .268-.018.437-.05.481-.043.057-.148.068-.73.077l-.68.011-.012.173c-.021.286-.018.287.857.287h.775v.438c0 .24-.014.446-.03.456-.022.013-2.42-.074-2.521-.092-.021-.004.011-3.395.032-3.416.019-.019 2-.169 2.389-.181l.17-.005v.435m-2.881-.165c-.001.039-.196.799-.435 1.69l-.433 1.62-.475.01c-.262.006-.499-.005-.527-.023-.028-.018-.141-.364-.251-.77-.241-.884-.242-.887-.26-.869a9.958 9.958 0 0 0-.159.553 48.28 48.28 0 0 1-.225.815l-.081.276-.486-.028c-.268-.015-.499-.04-.514-.056-.033-.033-.713-2.83-.713-2.93 0-.058.063-.073.424-.097.233-.016.437-.014.453.005.017.019.106.412.199.874.093.462.179.867.191.9.013.033.133-.372.268-.9l.245-.96.413-.035c.233-.019.429-.019.448 0 .019.019.136.458.26.974.123.517.23.945.236.952.007.006.127-.444.267-1L10.18 7.9l.2-.024c.11-.013.313-.026.45-.03.214-.005.25.004.249.064m4.265.513c-.045.117-.026.486.028.53.033.028.184.034.428.018.32-.02.39-.038.468-.116.124-.124.126-.347.003-.433-.13-.091-.892-.09-.927.001m-.007 1.551c-.012.03-.016.17-.009.31l.012.256.446.011c.422.011.453.006.558-.085.148-.126.157-.36.02-.471-.079-.064-.163-.075-.55-.075-.347 0-.461.013-.477.054M7.68 11.915l.82.025.011.46c.01.397.002.466-.057.51-.047.033-.224.05-.542.05H7.44v2.872l-.23.023c-.126.012-.374.028-.55.034l-.32.011-.01-1.484-.011-1.484-.545-.024c-.299-.014-.555-.036-.569-.05-.014-.013-.031-.247-.039-.518l-.014-.494.854.022c.47.011 1.223.033 1.674.047m3.38.099c.895.24 1.395.984 1.328 1.979-.029.434-.12.72-.329 1.025-.531.779-1.789 1.003-2.623.466-.679-.435-.964-1.211-.775-2.103.15-.711.583-1.174 1.27-1.359.268-.073.871-.077 1.129-.008m3.791.085c.899.19 1.425 1.004 1.275 1.971-.123.796-.583 1.273-1.386 1.436-.263.054-.357.057-.583.016-1.061-.189-1.618-1.083-1.378-2.213.197-.931 1.047-1.427 2.072-1.21m2.477.071c.035.027.295.392.578.81l.514.76.026-.38c.014-.209.027-.566.03-.794l.004-.413.417.013c.229.008.43.027.446.043.042.042-.064 2.883-.109 2.931-.021.022-.203.046-.406.053l-.368.014-.5-.692-.5-.691-.02.718-.02.718-.28.031c-.154.018-.37.027-.48.02l-.2-.011.001-.29.01-1.59.009-1.3h.392c.254 0 .415.018.456.05m-7.148.854c-.295.161-.46.453-.46.816 0 .393.239.781.544.881.222.074.589.027.778-.097.24-.16.337-.378.337-.764 0-.39-.097-.604-.346-.77-.209-.137-.657-.172-.853-.066m3.96.011a.604.604 0 0 0-.362.392c-.153.43.004.938.345 1.114.247.128.746.035.931-.173.17-.191.234-.638.132-.92-.144-.397-.648-.596-1.046-.413" fill-rule="evenodd"/></svg>