<svg viewBox="0 0 24 24" xmlns="http://www.w3.org/2000/svg"><path d="M10.92 2.726a12.6 12.6 0 0 0-2.946.654c-.507.186-1.496.671-1.94.951C4.046 5.586 2.746 7.363 2.34 9.378c-.297 1.476-.08 2.935.645 4.342.772 1.5 2.134 2.796 3.835 3.65.966.485 2.071.839 3.213 1.031.994.166 1.287.379 1.287.935 0 .121-.047.528-.104.906-.059.394-.093.744-.078.822.105.561 1.01.206 3.296-1.292 2.978-1.95 5.111-3.822 6.178-5.42 1.036-1.553 1.394-3.252 1.048-4.974-.469-2.331-2.114-4.312-4.6-5.538a9.697 9.697 0 0 0-1.934-.744c-1.274-.352-2.872-.493-4.206-.37M6.467 8.398c.236.143.231.108.253 2.042l.02 1.78.82.02c.904.022.95.034 1.064.275a.542.542 0 0 1-.045.513c-.127.193-.25.212-1.4.212-1.152 0-1.206-.009-1.375-.225-.083-.104-.084-.136-.084-2.231 0-2.346-.013-2.224.255-2.387a.448.448 0 0 1 .492.001m3.562.097.131.144v2.11c0 2.023-.004 2.116-.078 2.239a.54.54 0 0 1-.422.252.54.54 0 0 1-.422-.252c-.074-.123-.078-.216-.078-2.235V8.646l.107-.127c.138-.163.232-.202.452-.183.143.013.204.044.31.159M11.7 8.4c.032.027.494.637 1.025 1.355.532.718 1 1.34 1.041 1.384.072.077.074.047.074-1.214V8.632l.134-.134c.237-.237.532-.235.743.005l.123.14v4.225l-.091.136c-.104.154-.356.263-.515.223a.632.632 0 0 1-.199-.103c-.054-.042-.537-.673-1.072-1.401a46.955 46.955 0 0 0-1.008-1.346c-.02-.012-.035.533-.035 1.261v1.283l-.13.142a.485.485 0 0 1-.792-.075c-.074-.123-.078-.215-.077-2.208 0-1.584.012-2.104.05-2.179a.524.524 0 0 1 .499-.269c.093.01.197.04.23.068m6.544-.018a.503.503 0 0 1 .215.674c-.12.254-.227.282-1.11.297l-.792.013.012.447.011.447.826.02c.753.018.834.027.914.1.259.235.259.565 0 .8-.08.073-.161.082-.914.1l-.826.02v.92l.82.02c.881.021.931.033 1.055.243a.503.503 0 0 1-.016.509c-.141.232-.236.248-1.42.248-1.176 0-1.233-.01-1.381-.252-.074-.123-.078-.215-.077-2.208 0-1.584.012-2.104.05-2.179a.658.658 0 0 1 .185-.19c.133-.089.157-.091 1.232-.091.911 0 1.116.01 1.216.062" fill-rule="evenodd"/></svg>