<svg viewBox="0 0 24 24" xmlns="http://www.w3.org/2000/svg"><path d="M11.28 2.828c-.472.037-1.145.15-1.624.272C5.662 4.124 2.798 7.838 2.8 11.992a8.72 8.72 0 0 0 .464 2.884c1.145 3.433 4.106 5.846 7.688 6.265 4.489.525 8.644-2.264 9.904-6.649.294-1.023.415-2.341.308-3.375-.458-4.435-3.923-7.871-8.344-8.277a11.485 11.485 0 0 0-1.54-.012m2.699 2.891c.054.06.065.115.046.23-.015.083-.365 1.303-.78 2.711a126 126 0 0 0-.743 2.573c.006.008.32-.08.697-.194.377-.114.695-.198.706-.187.011.011-.046.246-.127.523l-.148.502-.225.064c-.731.209-1.227.354-1.239.363-.007.005-.226.727-.485 1.603l-.472 1.593 2.619.02c2.534.019 2.62.023 2.675.098a.358.358 0 0 1 .057.18c0 .137-.429 1.597-.502 1.71a.422.422 0 0 1-.208.13c-.175.048-7.836.06-7.861.012-.009-.016.278-1.019.637-2.227.36-1.208.648-2.203.64-2.21-.007-.007-.331.084-.719.202-.389.119-.707.204-.706.19 0-.014.069-.248.154-.521l.154-.497.714-.214c.393-.118.726-.227.74-.243.015-.017.444-1.443.954-3.17.661-2.239.952-3.165 1.012-3.23.084-.089.094-.09 1.212-.09 1.071 0 1.13.004 1.198.079" fill-rule="evenodd"/></svg>