<svg viewBox="0 0 24 24" xmlns="http://www.w3.org/2000/svg"><path d="M2.56 12v9.44h18.88V2.56H2.56V12m4.278-7.83c-.001.05-.24 2.084-.531 4.52-.516 4.311-.528 4.43-.448 4.431.044 0 .464-.047.931-.107.468-.059.861-.097.873-.084.018.018-.819 7.421-.843 7.46a2.196 2.196 0 0 1-.253.043l-.247.034v-.104c0-.056.091-1.531.202-3.277.111-1.746.197-3.181.19-3.188-.008-.007-.433.042-.946.108-.513.067-.939.115-.946.107-.017-.017.608-9.795.627-9.811a31.455 31.455 0 0 1 1.323-.217c.048-.003.069.023.068.085m9.273 1.532c.339.142.527.443.528.847.001.29-.342 3.194-.405 3.43a1.6 1.6 0 0 1-1.096 1.139c-.271.083-1.682.271-1.724.229-.021-.02.519-4.769.613-5.391l.021-.145.626-.08c.793-.102 1.24-.111 1.437-.029M13.265 7.19c-.014.699-.036 1.931-.05 2.74-.014.809-.027 1.471-.03 1.473-.003.002-.242.034-.533.072l-.527.069.024-.687.023-.688-.096.014-.241.036-.144.023-.131.669c-.072.368-.142.681-.156.697-.032.036-1.007.162-1.036.134-.022-.022 1.192-5.517 1.233-5.584.019-.03 1.316-.22 1.594-.233l.095-.005-.025 1.27M10.8 6.27c.001.051-.647 5.51-.654 5.517-.013.013-.959.133-.968.123-.004-.006.115-.82.265-1.809.149-.99.264-1.807.254-1.817-.009-.009-.029-.006-.043.009-.014.014-.219.837-.455 1.828-.236.992-.441 1.814-.455 1.828-.029.029-.384.084-.574.088l-.13.003v-1.78c0-1.137-.014-1.78-.039-1.78-.06 0-.068.067-.199 1.72-.067.847-.133 1.624-.145 1.726l-.023.186-.407.047a6.432 6.432 0 0 0-.477.067c-.054.015-.07-.005-.07-.088 0-.149.591-5.166.629-5.338l.031-.139.68-.085c.374-.047.685-.081.691-.076.006.005-.016.726-.05 1.601-.073 1.897-.074 2.048-.021 1.995.021-.021.204-.857.407-1.858.202-1 .369-1.822.371-1.826.007-.014 1.115-.161 1.252-.167.072-.003.13.009.13.025m4.31.359c-.06.009-.11.038-.111.064 0 .026-.097.839-.216 1.807-.118.968-.209 1.767-.201 1.775a.97.97 0 0 0 .245-.04c.358-.086.355-.076.558-1.768.096-.796.174-1.513.174-1.594.001-.242-.1-.297-.449-.244M12.119 8.15l-.135.66-.09.43h.294l.026-.366c.037-.523.032-.954-.011-.954-.021 0-.058.104-.084.23m6.606 3.431c.432.218.551.549.472 1.308l-.049.47-.124.02c-.263.043-.754.101-.852.101-.101 0-.103-.004-.078-.22.072-.621.073-.64.015-.716-.073-.097-.287-.095-.399.003-.126.113-.182.288-.213.665l-.028.348.138.13c.087.081.28.182.516.27.642.238.796.446.795 1.08-.001.789-.169 1.297-.555 1.682a1.78 1.78 0 0 1-1.382.509c-.715-.046-.963-.445-.862-1.391.027-.253.056-.468.066-.478.009-.009.253-.047.54-.083l.524-.065-.025.183c-.099.722-.071.859.177.852.194-.006.347-.176.398-.444.053-.278.052-.629-.001-.728-.046-.086-.367-.256-.754-.397-.51-.187-.675-.507-.629-1.215.061-.931.327-1.446.907-1.762.4-.218 1.094-.278 1.403-.122m-3.025.454a.826.826 0 0 1 .464.588c.047.208.035.37-.138 1.853-.194 1.661-.257 1.985-.444 2.281-.209.33-.548.576-.97.703-.194.059-1.638.248-1.664.219-.021-.023.628-5.509.653-5.532.041-.037 1.279-.178 1.599-.181.25-.003.382.015.5.069m-2.875.515c-.013.17-.035 1.403-.049 2.739l-.026 2.429-.125.021a10.33 10.33 0 0 1-.853.101h-.103l.028-.674.029-.673-.227.03a1.12 1.12 0 0 0-.248.052 4.433 4.433 0 0 0-.116.493l-.137.676-.041.205-.522.069a4.756 4.756 0 0 1-.535.055c-.01-.01 1.219-5.583 1.239-5.622a35.508 35.508 0 0 1 1.595-.206l.114-.005-.023.31m-3.267.14c-.001.028-.124 1.058-.273 2.29a126.413 126.413 0 0 0-.262 2.252c.01.014.622-.061.772-.095l.095-.021-.029.332c-.016.183-.04.404-.055.492l-.027.16-.97.123c-.689.087-.969.109-.969.076 0-.026.144-1.258.32-2.739.176-1.481.32-2.714.32-2.739 0-.039.378-.104 1.03-.175.027-.004.049.016.048.044m5.093.258c-.063.012-.095.054-.11.145-.051.297-.424 3.477-.41 3.491.042.042.405-.065.488-.143.13-.122.153-.251.346-1.91.164-1.407.167-1.452.096-1.53-.071-.079-.195-.094-.41-.053m-2.95 1.342a15.23 15.23 0 0 0-.121.59 19.54 19.54 0 0 1-.125.61c-.017.057.005.07.124.07.08 0 .15-.022.159-.05.04-.131.059-1.27.02-1.27-.022 0-.048.023-.057.05" fill-rule="evenodd"/></svg>