<svg viewBox="0 0 24 24" xmlns="http://www.w3.org/2000/svg"><path class="st0" style="fill:none" d="M0 0h24v24H0z"/><path class="st0" d="M.023 6.684c.001.048.004.096.004.144v22.956c0 .156 0 .156.161.156h23.087c-.005.006.009.019-.01.019H.004v-.132L.005 6.765c.001-.026-.02-.062.018-.081Z" style="fill:#dcb9cb"/><path class="st0" style="fill:none" d="M7.054 2.514h24v24h-24z"/><path d="M21.434 6.543h4.043c.397.022.852.202 1.108.458.256.256.459.711.459 1.109 0 .397-.203.852-.459 1.108-.256.256-.711.437-1.108.459h-3.423c-.311.809-.715 1.301-1.414 1.712v9.029h4.837c.397.022.852.203 1.108.459.257.256.459.712.459 1.109s-.203.852-.459 1.108c-.256.256-.711.436-1.108.458H12.668c-.397-.022-.852-.202-1.108-.458a1.704 1.704 0 0 1-.459-1.108c0-.397.203-.853.459-1.109s.711-.437 1.108-.459h4.837v-9.035c-.741-.458-1.143-.948-1.418-1.706h-3.419c-.397-.022-.852-.203-1.108-.459a1.704 1.704 0 0 1-.459-1.108c0-.398.203-.853.459-1.109s.711-.436 1.108-.458h4.043c.58-.612 1.369-1.068 2.362-1.068.992 0 1.781.451 2.361 1.068Zm-.486 1-.14-.199c-.407-.578-.981-.869-1.735-.869-.755 0-1.329.291-1.737.869l-.14.199h-4.528c-.193-.022-.272.036-.401.166-.13.129-.166.208-.166.401 0 .193.036.271.166.401s.208.188.401.166h4.215l.065.401c.12.747.566 1.278 1.257 1.552l.3.118v10.67h-5.837c-.193-.022-.271.036-.401.166s-.166.208-.166.402c0 .193.036.271.166.4.129.13.208.188.401.166h12.809c.193.022.272-.036.401-.166.13-.129.166-.207.166-.4 0-.194-.036-.272-.166-.402s-.208-.188-.401-.166H19.64V10.747l.301-.118c.691-.27 1.136-.801 1.256-1.551l.064-.401h4.216c.193.022.271-.036.401-.166s.166-.208.166-.401c0-.193-.036-.272-.166-.401-.129-.13-.208-.188-.401-.166h-4.529Zm7.813 9.605h-6.569l3.285-5.636 3.284 5.636Zm-4.829-1h3.089l-1.544-2.65-1.545 2.65Zm1.545 4.202c-1.12 0-2.219-.324-3.02-.832-.812-.514-1.441-1.339-1.67-2.185-.081-.499.066-1.059.278-1.437l3.176-5.442c.26-.379.782-.709 1.236-.709.454 0 .978.334 1.236.708l3.176 5.444c.212.378.357.939.276 1.439-.228.846-.856 1.668-1.668 2.182-.801.508-1.901.832-3.02.832Zm2.485-1.677c.675-.427 1.098-.919 1.23-1.569.091-.234-.001-.427-.169-.705l-3.174-5.442c-.076-.194-.166-.212-.372-.212-.208 0-.298.016-.372.211L21.929 16.4c-.168.278-.259.47-.168.704.133.65.556 1.142 1.231 1.569.685.434 1.507.677 2.485.677s1.799-.243 2.485-.677ZM9.343 17.148l3.285-5.635 3.29 5.635H9.343Zm3.285-3.651-1.545 2.651h3.093l-1.548-2.651Zm-4.686 3.837c-.081-.501.068-1.062.278-1.438l3.175-5.441c.26-.38.783-.71 1.236-.71.455 0 .978.333 1.236.708l3.177 5.444c.212.378.358.939.276 1.44-.229.846-.858 1.667-1.671 2.181-.801.508-1.901.832-3.021.832-1.12 0-2.219-.324-3.019-.832-.811-.514-1.439-1.338-1.667-2.184Zm2.202 1.34c.685.433 1.506.676 2.484.676.979 0 1.801-.243 2.487-.677.675-.427 1.099-.919 1.233-1.57.091-.233-.001-.426-.17-.704l-3.175-5.442c-.074-.193-.165-.212-.372-.212s-.298.016-.37.21L9.084 16.4c-.168.28-.261.471-.169.703.133.651.556 1.144 1.229 1.571Z" style="fill:none"/><path d="M21.434 6.543h4.043c.397.022.852.202 1.108.458.256.256.459.711.459 1.109 0 .397-.203.852-.459 1.108-.256.256-.711.437-1.108.459h-3.423c-.311.809-.715 1.301-1.414 1.712v9.029h4.837c.397.022.852.203 1.108.459.257.256.459.712.459 1.109s-.203.852-.459 1.108c-.256.256-.711.436-1.108.458H12.668c-.397-.022-.852-.202-1.108-.458a1.704 1.704 0 0 1-.459-1.108c0-.397.203-.853.459-1.109s.711-.437 1.108-.459h4.837v-9.035c-.741-.458-1.143-.948-1.418-1.706h-3.419c-.397-.022-.852-.203-1.108-.459a1.704 1.704 0 0 1-.459-1.108c0-.398.203-.853.459-1.109s.711-.436 1.108-.458h4.043c.58-.612 1.369-1.068 2.362-1.068.992 0 1.781.451 2.361 1.068Zm-.486 1-.14-.199c-.407-.578-.981-.869-1.735-.869-.755 0-1.329.291-1.737.869l-.14.199h-4.528c-.193-.022-.272.036-.401.166-.13.129-.166.208-.166.401 0 .193.036.271.166.401s.208.188.401.166h4.215l.065.401c.12.747.566 1.278 1.257 1.552l.3.118v10.67h-5.837c-.193-.022-.271.036-.401.166s-.166.208-.166.402c0 .193.036.271.166.4.129.13.208.188.401.166h12.809c.193.022.272-.036.401-.166.13-.129.166-.207.166-.4 0-.194-.036-.272-.166-.402s-.208-.188-.401-.166H19.64V10.747l.301-.118c.691-.27 1.136-.801 1.256-1.551l.064-.401h4.216c.193.022.271-.036.401-.166s.166-.208.166-.401c0-.193-.036-.272-.166-.401-.129-.13-.208-.188-.401-.166h-4.529Zm7.813 9.605h-6.569l3.285-5.636 3.284 5.636Zm-4.829-1h3.089l-1.544-2.65-1.545 2.65Zm1.545 4.202c-1.12 0-2.219-.324-3.02-.832-.812-.514-1.441-1.339-1.67-2.185-.081-.499.066-1.059.278-1.437l3.176-5.442c.26-.379.782-.709 1.236-.709.454 0 .978.334 1.236.708l3.176 5.444c.212.378.357.939.276 1.439-.228.846-.856 1.668-1.668 2.182-.801.508-1.901.832-3.02.832Zm2.485-1.677c.675-.427 1.098-.919 1.23-1.569.091-.234-.001-.427-.169-.705l-3.174-5.442c-.076-.194-.166-.212-.372-.212-.208 0-.298.016-.372.211L21.929 16.4c-.168.278-.259.47-.168.704.133.65.556 1.142 1.231 1.569.685.434 1.507.677 2.485.677s1.799-.243 2.485-.677ZM9.343 17.148l3.285-5.635 3.29 5.635H9.343Zm3.285-3.651-1.545 2.651h3.093l-1.548-2.651Zm-4.686 3.837c-.081-.501.068-1.062.278-1.438l3.175-5.441c.26-.38.783-.71 1.236-.71.455 0 .978.333 1.236.708l3.177 5.444c.212.378.358.939.276 1.44-.229.846-.858 1.667-1.671 2.181-.801.508-1.901.832-3.021.832-1.12 0-2.219-.324-3.019-.832-.811-.514-1.439-1.338-1.667-2.184Zm2.202 1.34c.685.433 1.506.676 2.484.676.979 0 1.801-.243 2.487-.677.675-.427 1.099-.919 1.233-1.57.091-.233-.001-.426-.17-.704l-3.175-5.442c-.074-.193-.165-.212-.372-.212s-.298.016-.37.21L9.084 16.4c-.168.28-.261.471-.169.703.133.651.556 1.144 1.229 1.571Z" style="fill:none"/><path d="M31.029 6.411a6.862 6.862 0 0 1 1.95 4.786 6.752 6.752 0 0 1-1.936 4.753c-1.318 1.272-3.09 2.016-4.834 2.016-1.745 0-3.485-.745-4.768-2.002-1.257-1.284-1.984-3.006-1.984-4.767 0-1.744.744-3.5 1.999-4.8a6.733 6.733 0 0 1 4.753-1.97c1.813 0 3.535.728 4.82 1.984Zm-4.82-.984c-1.621 0-2.954.542-4.041 1.672-1.149 1.14-1.711 2.544-1.711 4.098 0 1.571.543 2.939 1.692 4.06 1.121 1.149 2.507 1.709 4.06 1.709 1.554 0 2.976-.562 4.132-1.728 1.112-1.067 1.638-2.418 1.638-4.041 0-1.608-.527-2.976-1.658-4.078-1.121-1.148-2.489-1.692-4.112-1.692Zm.017.134c1.507 0 2.949.612 3.996 1.658a5.583 5.583 0 0 1 1.409 2.436h.159l-.139.073c.127.477.193.972.193 1.469a5.61 5.61 0 0 1-1.609 3.947c-1.094 1.049-2.574 1.672-4.009 1.672-1.454 0-2.915-.613-3.961-1.658-1.044-1.045-1.675-2.523-1.675-3.961 0-1.455.642-2.918 1.672-3.992a5.636 5.636 0 0 1 3.964-1.644Zm-3.25 2.344c-.928.92-1.386 2.033-1.386 3.292 0 1.242.469 2.34 1.383 3.253.912.913 1.993 1.366 3.253 1.366 1.245 0 2.375-.443 3.309-1.386.905-.86 1.309-1.918 1.309-3.233 0-.347-.031-.679-.094-.995l-1.829.96 1.571.8-.274.446c-.415.677-1.237 1.233-2.081 1.233-.64 0-1.3-.249-1.702-.653a1.759 1.759 0 0 1-.149-.17c-.449.478-1.1.823-1.765.823-.64 0-1.301-.249-1.703-.653-.399-.401-.665-1.078-.665-1.791 0-.707.282-1.382.679-1.782.401-.405 1.052-.662 1.654-.662a2.5 2.5 0 0 1 1.83.81c.042-.053.087-.103.132-.149.402-.404 1.053-.661 1.655-.661.799 0 1.622.407 2.097 1.161l-.163-.259h.568a4.402 4.402 0 0 0-1.091-1.728c-.913-.914-1.977-1.366-3.288-1.366-1.312 0-2.371.421-3.25 1.344Zm1.883 2.899c-.044-.134-.079-.144-.156-.189-.055-.032-.046-.03-.085-.03-.185 0-.166-.009-.237.097-.08.12-.104.248-.104.515 0 .258.029.383.115.507.077.11.062.104.226.104.115 0 .12 0 .174-.035.064-.041.085-.052.136-.2l.093-.272Zm.445.358.472.24a2.788 2.788 0 0 1 .008-.492Zm.216-1.243-.066.035c.114.117.066-.035.066-.035Zm-1.932.155a.649.649 0 0 0-.046.045c-.265.266-.389.563-.389 1.078 0 .53.115.825.374 1.086.063.063.127.116.194.161a1.022 1.022 0 0 1-.15-.169c-.19-.274-.294-.704-.294-1.078 0-.365.087-.793.273-1.071.012-.017.024-.035.038-.052Zm4.888.73c-.044-.134-.079-.144-.156-.189-.055-.032-.047-.03-.086-.03-.185 0-.165-.01-.236.096-.08.12-.104.249-.104.516 0 .258.029.384.115.507.076.111.061.104.225.104.116 0 .121 0 .175-.035.064-.041.085-.052.136-.2l.093-.272Zm-1.272-.73-.046.045c-.265.267-.389.563-.389 1.078 0 .53.115.825.374 1.085.063.063.127.117.194.162a1.064 1.064 0 0 1-.15-.169c-.19-.274-.293-.704-.293-1.078 0-.365.087-.792.272-1.07l.038-.053Z" style="fill:none"/><path class="st0" d="m16.426 8.862 1.246 1.468c.142.169.268.299.323.378.372.373.583.875.583 1.395-.038.613-.434 1.035-.805 1.486l-.875 1.024-.452.533c-.02.017-.025.043-.032.067a.088.088 0 0 0 .012.069.132.132 0 0 0 .05.057c.02.011.044.017.069.017h4.548c.694 0 1.567.583 1.518 1.47 0 .402-.168.786-.452 1.07-.29.286-.682.447-1.091.447h-7.125c-.472 0-1.73.05-2.083-1.023a1.256 1.256 0 0 1-.031-.693c.106-.341.265-.663.477-.948a42.49 42.49 0 0 1 1.126-1.575c.498-.675 1-1.325 1.501-2.013a.119.119 0 0 0 .025-.081.164.164 0 0 0-.025-.08l-1.809-2.126c-.013-.012-.025-.025-.044-.036a.163.163 0 0 0-.055-.013.158.158 0 0 0-.056.013c-.019.005-.031.017-.043.036-.484.645-2.609 3.502-3.061 4.084-.454.576-1.568.612-2.188 0l-2.832-2.802a.143.143 0 0 0-.069-.036c-.025-.007-.048 0-.073.006a.108.108 0 0 0-.057.05c-.012.018-.024.043-.017.067v5.385c.005.384-.106.758-.328 1.073a1.876 1.876 0 0 1-.9.682 1.576 1.576 0 0 1-1.402-.199 1.506 1.506 0 0 1-.476-.546 1.55 1.55 0 0 1-.173-.699V7.184a1.667 1.667 0 0 1 1.227-1.526 1.82 1.82 0 0 1 .892 0c.292.082.557.23.774.446L8.599 10.4a.24.24 0 0 0 .045.029.149.149 0 0 0 .056.007.073.073 0 0 0 .049-.019c.019-.006.03-.017.043-.037l3.093-4.219c.142-.175.322-.311.526-.404.205-.092.428-.148.65-.148h8.044c.224 0 .44.049.638.136.198.094.378.224.528.384a1.493 1.493 0 0 1 .365 1.209 1.534 1.534 0 0 1-.538.953 1.607 1.607 0 0 1-1.048.373h-4.505a.102.102 0 0 0-.063.019.107.107 0 0 0-.042.048c-.014.02-.014.044-.014.063-.018.025-.012.049 0 .068Z" style="fill:#1d1d1b"/></svg>