<svg viewBox="0 0 24 24" xmlns="http://www.w3.org/2000/svg"><path d="M2.649 5.64c-.463.098-.998.548-1.176.989l-.093.231v10.402l.132.267c.16.326.486.633.806.758.167.066.312.088.582.09.334.003.382-.007.665-.142.35-.168.676-.469.844-.78.227-.421.23-.459.23-3.541.001-2.592.006-2.828.067-2.851.087-.033.044-.073 1.694 1.564 1.298 1.287 1.444 1.419 1.7 1.541.262.123.308.132.7.132.369 0 .447-.013.64-.104.121-.057.272-.156.336-.22.065-.064.807-1.038 1.651-2.166.843-1.127 1.557-2.05 1.585-2.05.071 0 .175.114 1.124 1.232.453.535.824.994.823 1.02 0 .026-.47.678-1.044 1.448-1.267 1.701-1.755 2.405-1.948 2.811-.132.28-.146.341-.146.649-.001.291.015.372.11.566.19.387.534.646 1.038.782.226.061.641.069 4.183.082 2.596.009 4.008-.001 4.156-.028a1.584 1.584 0 0 0 1.154-.863c.108-.218.118-.275.118-.659 0-.391-.008-.435-.119-.634-.148-.268-.396-.489-.736-.657l-.263-.129-2.487-.011c-2.083-.01-2.495-.021-2.534-.068-.028-.034-.034-.081-.014-.115.018-.032.33-.405.693-.83 1.088-1.273 1.238-1.476 1.387-1.892.122-.342.044-.92-.177-1.304-.118-.206-.063-.138-1.102-1.357-.585-.685-.79-.952-.78-1.016l.012-.087 2.46-.021c2.645-.022 2.518-.012 2.944-.232.23-.119.516-.434.644-.707.098-.21.112-.288.112-.621 0-.35-.011-.403-.131-.648a1.536 1.536 0 0 0-1.108-.827c-.306-.057-8.215-.061-8.559-.005a1.576 1.576 0 0 0-.793.38c-.078.076-.85 1.102-1.713 2.28-.889 1.211-1.598 2.141-1.632 2.141-.034 0-.701-.635-1.483-1.411-3.108-3.085-3.114-3.091-3.445-3.248a1.344 1.344 0 0 0-.618-.16 2.38 2.38 0 0 0-.489.019" fill-rule="evenodd"/></svg>