<svg viewBox="0 0 24 24" xmlns="http://www.w3.org/2000/svg"><path d="M11.1 2.324c-3.29.269-6.133 2.047-7.654 4.785-.527.95-.883 2.03-1.072 3.251-.101.65-.101 2.121-.001 2.76.327 2.082 1.191 3.8 2.642 5.247.227.227.446.476.486.553.061.117.078.298.108 1.12.019.539.053 1.048.075 1.132.079.298.433.548.776.547.066 0 .615-.217 1.22-.483.848-.373 1.141-.484 1.28-.487.099-.001.378.045.62.103.742.178 1.194.232 2.14.255 1.269.031 2.136-.076 3.267-.405 3.208-.932 5.631-3.419 6.432-6.6.218-.869.277-1.37.278-2.362.002-1.252-.123-2.036-.501-3.16-1.38-4.097-5.475-6.634-10.096-6.256m6.573 6.573a.431.431 0 0 1 .219.401c-.003.104-.319.636-1.394 2.348a262.704 262.704 0 0 1-1.543 2.439 1.433 1.433 0 0 1-1.215.645c-.463 0-.596-.074-1.946-1.085a53.498 53.498 0 0 0-1.306-.961c-.129-.069-.375-.052-.52.037-.072.044-.684.5-1.36 1.013-1.909 1.449-1.876 1.426-2.033 1.426-.283 0-.475-.189-.467-.46.003-.105.324-.645 1.455-2.448a137.75 137.75 0 0 1 1.568-2.463c.258-.334.661-.518 1.132-.52.263-.001.365.018.544.1.122.056.76.506 1.418 1 .659.494 1.236.919 1.283.945.133.071.378.055.524-.035.072-.044.684-.5 1.36-1.013 1.909-1.449 1.876-1.426 2.033-1.426.077 0 .188.025.248.057" fill-rule="evenodd"/></svg>