<svg viewBox="0 0 24 24" xmlns="http://www.w3.org/2000/svg"><path d="M2.84 2.57c-.001.006-.231.703-.513 1.55l-.511 1.54.305 1.46.331 1.588c.023.118.01.138-.173.273-.11.08-.199.176-.198.212.001.037.118.155.26.262.142.108.259.21.259.228 0 .017-.08.089-.178.16a.83.83 0 0 0-.197.179c-.012.03.104.17.264.321l.285.269-.176.149-.175.15.145.174c.079.096.288.344.463.551l.319.377-.114.343C2.857 13.502 2 16.219 2 16.274c0 .129 1.277 4.419 1.324 4.448.026.017.094.014.152-.005.057-.018 1.057-.296 2.222-.615 1.774-.488 2.128-.574 2.187-.532.039.028.238.187.443.355.204.168.764.577 1.242.91l.871.605h3.107l.876-.605a26.159 26.159 0 0 0 1.248-.91c.205-.168.404-.327.443-.355.059-.042.413.044 2.187.532 1.165.319 2.165.597 2.222.615.058.019.126.022.152.005.044-.026 1.325-4.293 1.334-4.439.002-.034-.281-.936-.629-2.003a368.887 368.887 0 0 1-.684-2.109l-.052-.168.457-.531c.252-.292.458-.545.458-.562 0-.017-.071-.08-.158-.14-.088-.061-.16-.124-.16-.141-.001-.017.123-.148.276-.292.152-.144.268-.284.258-.31a1.194 1.194 0 0 0-.219-.201l-.199-.153.263-.2c.323-.244.349-.298.196-.409a3.195 3.195 0 0 1-.205-.164l-.09-.08.331-1.58.332-1.58-.516-1.55c-.342-1.027-.534-1.55-.57-1.55-.03 0-1.499.54-3.264 1.2l-3.209 1.2H9.375L6.16 3.76C3.316 2.699 2.841 2.528 2.84 2.57m6.925 11.5c.036.083.148.325.248.538.1.213.161.38.135.372a48.977 48.977 0 0 0-.588-.175l-.836-.245-.296-.087.596-.274c.328-.151.614-.275.636-.276.022-.001.069.065.105.147m5.243.142c.301.136.526.258.5.272-.102.054-1.631.486-1.651.467-.011-.011.089-.25.221-.53.201-.426.253-.505.311-.483.039.015.318.138.619.274m-1.676 3.912.257.164.086.726c.048.399.086.765.086.814-.001.128-.068.148-.187.055-.102-.08-.15-.083-1.587-.083-1.469 0-1.483.001-1.575.087-.184.173-.196.069-.097-.796.05-.434.094-.793.098-.797.004-.003.115-.08.247-.169l.24-.163 1.088-.001 1.087-.001.257.164" fill-rule="evenodd"/></svg>