<svg viewBox="0 0 24 24" xmlns="http://www.w3.org/2000/svg"><path d="M4.6 2.653c0 .013 5.33 5.261 6.865 6.758l.524.512 1.72-1.792c.946-.985 1.756-1.823 1.8-1.862.078-.069.11-.04 1.465 1.349l1.386 1.421.002 3.51.002 3.511 1.378 1.397 1.378 1.396-.001-4.256c0-4.757.011-4.553-.283-5.157l-.165-.34-2.981-2.986c-3.152-3.157-3.17-3.174-3.73-3.365l-.26-.088-4.55-.012c-2.503-.007-4.55-.005-4.55.004m12.2.017c0 .017.972 1.002 2.16 2.19l2.16 2.16V2.64h-2.16c-1.188 0-2.16.014-2.16.03M2.88 9.063c0 2.959.014 4.439.043 4.6.06.327.217.708.418 1.017.112.172 1.126 1.241 2.991 3.152 1.552 1.59 2.89 2.946 2.975 3.014.222.177.438.295.733.4l.26.093 4.714.012c2.962.007 4.708-.003 4.7-.026-.008-.021-.945-.983-2.084-2.137l-2.07-2.099-.01-3.333-.01-3.333-1.736 1.668c-.954.918-1.751 1.669-1.77 1.669-.019 0-.804-.754-1.744-1.675L8.58 10.41l-.02 3.669-.02 3.669-1.37-1.464L5.8 14.82v-7.2L4.34 6.16 2.88 4.7v4.363m0 10.137v2.16h4.34L5.06 19.2a320.264 320.264 0 0 0-2.17-2.16c-.005 0-.01.972-.01 2.16" fill-rule="evenodd"/></svg>