<svg viewBox="0 0 24 24" xmlns="http://www.w3.org/2000/svg"><path d="M8 9.894v1.351l.09-.027a2.81 2.81 0 0 0 .279-.123L8.558 11l.011-.546.011-.546.335.405c.184.223.348.398.364.388a6.92 6.92 0 0 0 .345-.402l.316-.384.011.545.011.546.263.119c.145.066.271.112.28.103.009-.008.011-.613.006-1.343L10.5 8.557l-.618.702c-.34.386-.63.688-.645.671L8.68 9.3c-.291-.33-.563-.635-.605-.679C8.001 8.544 8 8.568 8 9.894m-5.067.132 1.313 1.304.647-.671.647-.671.489.496.489.496.001 1.261.001 1.26.522.52.522.519-.012-1.58c-.011-1.414-.019-1.597-.083-1.74-.097-.217-2.187-2.319-2.409-2.423-.148-.07-.28-.075-1.8-.075H1.62l1.313 1.304M6.74 9.48c.418.418.764.76.77.76.005 0 .01-.342.01-.76v-.76H5.981l.759.76m4.895-.707c-.567.212-.902.71-.865 1.287.067 1.062 1.316 1.57 2.121.863.081-.072.206-.248.277-.393a.963.963 0 0 0 .129-.547 1.264 1.264 0 0 0-.717-1.143c-.238-.115-.724-.15-.945-.067m1.805-.018c0 .019.027.058.06.085.051.042.06.217.06 1.12 0 1.009-.005 1.075-.08 1.171a.484.484 0 0 0-.08.125c0 .045 1.305.025 1.444-.022a.8.8 0 0 0 .564-.773c-.002-.234-.059-.405-.178-.531-.082-.088-.083-.092-.009-.146.059-.043.079-.117.09-.33.017-.343-.064-.512-.312-.643-.159-.085-.221-.091-.865-.091-.382 0-.694.016-.694.035m2.08 0c0 .019.027.058.06.085.088.073.089 2.146.001 2.262-.12.159-.083.178.339.178.422 0 .459-.019.339-.178-.088-.116-.087-2.189.001-2.262.118-.098.055-.12-.34-.12-.22 0-.4.016-.4.035m.979.083c.051.098.061.317.061 1.281v1.163l.87-.011.87-.011.012-.33c.006-.182-.004-.33-.023-.33a.284.284 0 0 0-.111.059c-.059.044-.201.059-.568.06l-.49.001v-.911c0-.76.01-.926.062-1l.063-.089h-.807l.061.118m1.999-.029c.09.129.092 2.082.002 2.297-.033.079-.06.151-.06.16 0 .008.455.011 1.01.005l1.01-.011.012-.33c.012-.357-.003-.378-.192-.27-.073.042-.249.058-.65.059l-.55.001v-.478l.49-.011.49-.011.012-.27.012-.27H19.08V9.2l.57.001c.419.001.597.017.67.059a.552.552 0 0 0 .13.059c.016 0 .03-.134.03-.299v-.3h-2.045l.063.089m-3.796.409c.121.121.125.248.011.369-.076.081-.125.093-.38.093h-.293v-.56h.282c.246 0 .294.013.38.098m-2.302.098c.077.039.19.142.251.228.467.661-.341 1.482-1.037 1.053-.293-.182-.431-.652-.278-.949.08-.155.319-.361.455-.391.06-.013.127-.031.149-.039.073-.026.318.026.46.098M.968 11.09c.012 1.554.015 1.617.099 1.797.104.226 2.08 2.275 2.345 2.433l.168.1 1.74.011 1.74.011-.75-.751-.75-.752V12.73c0-.666-.011-1.21-.023-1.21-.013 0-.305.27-.649.601l-.626.6-.601-.6c-.331-.331-.615-.601-.631-.601-.017 0-.03.585-.03 1.3v1.299l-.48-.509-.479-.51-.001-1.301v-1.3l-.511-.51c-.28-.28-.524-.509-.541-.509-.017 0-.026.725-.02 1.61M11.84 9.82l-.176.18.156.16c.086.088.176.16.2.16.054 0 .34-.289.34-.344 0-.039-.285-.336-.323-.336-.011 0-.1.081-.197.18m2.982.398c.137.138.13.316-.019.465-.11.11-.136.117-.44.117h-.323v-.68h.342c.309 0 .351.009.44.098M8.23 11.611l-.23.128V14.2h1.76v-.3c0-.165-.014-.299-.03-.299a.336.336 0 0 0-.108.06c-.059.045-.201.059-.59.059H8.52V12.6c0-.616-.014-1.12-.03-1.119a1.75 1.75 0 0 0-.26.13m1.73.189c.051.095.038 2.223-.014 2.33-.032.066.026.07.95.07h.984v-.32c0-.176-.013-.319-.03-.319a.552.552 0 0 0-.13.059c-.073.042-.249.058-.65.059l-.55.001v-.438l.49-.011.49-.011.012-.249.012-.249-.492-.011-.492-.011-.012-.25-.012-.25h.574c.443 0 .592.013.652.059a.336.336 0 0 0 .108.06c.017 0 .03-.134.03-.299v-.3h-.981c-.968 0-.981.001-.939.08m3.04-.045c-.222.047-.555.247-.687.414-.5.631-.271 1.589.456 1.915.277.123.725.127.991.007l.18-.081.17.099.17.099V12.96h-.3c-.165 0-.3.015-.3.032 0 .018.026.068.059.11.079.105.076.335-.006.426-.111.123-.459.204-.651.152-.198-.053-.435-.253-.508-.428-.151-.362.043-.835.399-.969.243-.093.709-.002.807.156.042.069.113.044.279-.098l.16-.137-.118-.123c-.245-.256-.741-.403-1.101-.326m1.495.064c.056.084.065.244.064 1.11-.002.801-.014 1.032-.059 1.111a.552.552 0 0 0-.059.13c0 .017.44.03.979.03h.98v-.679l-.13.079c-.113.069-.202.08-.68.08h-.55v-.438l.49-.011.49-.011.012-.249.012-.249-.492-.011-.492-.011-.012-.25-.012-.25h.574c.443 0 .592.013.652.059a.347.347 0 0 0 .108.06c.017 0 .03-.134.03-.299v-.3H14.431l.064.099m2.145 1.056c0 .978-.009 1.163-.06 1.205-.118.098-.054.12.343.12h.403l-.083-.105c-.074-.094-.083-.161-.083-.604 0-.274.016-.492.035-.484.019.007.317.274.662.593.344.319.643.586.664.593.022.008.041-.465.048-1.16.006-.645.026-1.204.045-1.243.032-.064.004-.07-.33-.07-.2 0-.364.01-.364.021 0 .012.028.064.061.115.049.074.059.199.05.605l-.011.511-.66-.625c-.363-.344-.673-.626-.69-.626-.016-.001-.03.519-.03 1.154m2.161-1.129a.525.525 0 0 0 .059.134c.085.149.086 2.07.001 2.182a.325.325 0 0 0-.06.112c0 .018.274.027.609.02.572-.013.624-.021.837-.126.247-.121.421-.294.563-.559.075-.141.09-.232.09-.549 0-.347-.01-.399-.119-.595a1.435 1.435 0 0 0-.283-.349c-.289-.236-.414-.27-1.088-.288-.335-.009-.609-.001-.609.018m2.903.019c-.481.112-.672.506-.459.945.115.237.403.425.815.53.35.09.483.183.443.311-.04.127-.23.182-.556.161-.267-.017-.399-.061-.797-.263-.017-.009-.03.148-.03.348 0 .383.015.408.178.3.088-.057.107-.056.226.005.195.101.727.124 1.005.043.534-.155.663-.734.251-1.13-.137-.132-.252-.192-.566-.296-.463-.152-.494-.173-.494-.322 0-.149.095-.197.387-.197.288 0 .481.052.668.179l.145.099v-.757l-.138.066c-.129.062-.153.062-.345 0a1.396 1.396 0 0 0-.733-.022m-1.617.542a.744.744 0 0 1 .224.235c.078.134.09.205.08.465-.018.489-.207.682-.693.707l-.298.015v-1.54l.277.02c.171.012.328.05.41.098M.969 14.67l.011.75.78.011.78.01-.76-.76c-.417-.419-.773-.761-.79-.761-.018 0-.027.338-.021.75m11.611-.055c-.159.07-.219.148-.247.321-.047.29.141.504.443.504.187 0 .34-.136.371-.33l.023-.15h-.225c-.198 0-.225.009-.225.08 0 .059.027.08.1.08.109 0 .127.037.052.112-.073.073-.224.057-.271-.029a.593.593 0 0 1-.041-.219c0-.179.145-.296.277-.225.046.024.083.061.083.082 0 .022.054.039.12.039s.12-.01.12-.023c0-.077-.106-.192-.222-.24-.164-.069-.203-.069-.358-.002m7.08 0c-.159.07-.219.148-.247.321-.047.29.141.504.443.504.187 0 .34-.136.371-.33l.023-.15h-.225c-.198 0-.225.009-.225.08 0 .059.027.08.1.08.109 0 .127.037.052.112-.073.073-.224.057-.271-.029a.593.593 0 0 1-.041-.219c0-.179.145-.296.277-.225.046.024.083.061.083.082 0 .022.054.039.12.039s.12-.01.12-.023c0-.077-.106-.192-.222-.24-.164-.069-.203-.069-.358-.002m-11.62.405v.42h.242c.264 0 .457-.075.487-.19.023-.089-.032-.25-.086-.25-.022 0-.009-.053.028-.117.063-.111.063-.121-.008-.2-.063-.07-.123-.083-.369-.083H8.04v.42m1.467-.002-.141.422h.116c.091 0 .122-.022.142-.1.021-.085.048-.1.18-.1.131 0 .158.015.18.1.019.078.05.1.143.1.099 0 .114-.013.094-.077l-.136-.41-.112-.333-.162-.012-.163-.012-.141.422m1.373.005v.422l.11-.012c.106-.013.11-.021.109-.245-.001-.253-.001-.253.19.068.09.153.129.184.227.184h.119l.012-.42.013-.42h-.108c-.103 0-.109.01-.12.23l-.012.23-.13-.23c-.12-.211-.142-.23-.27-.23h-.14v.423m4.24.001v.425l.304-.016c.261-.013.316-.029.38-.108.096-.119.096-.185-.001-.282-.067-.067-.069-.084-.02-.125.075-.063.073-.177-.006-.255-.046-.046-.143-.063-.36-.063h-.297v.424m1.48-.056-.15.422c-.012.033.023.05.105.05.098 0 .129-.02.149-.1.021-.085.048-.1.18-.1.131 0 .158.015.18.1.019.078.05.1.143.1.099 0 .114-.013.094-.077l-.136-.41-.112-.333-.16-.012-.161-.012-.132.372m1.36.05c0 .421 0 .422.098.422.092 0 .099-.015.11-.25l.012-.25.14.25c.127.225.152.249.27.25h.13v-.84h-.1c-.096 0-.1.01-.1.25l-.001.25-.133-.24c-.121-.218-.147-.241-.28-.252l-.146-.013v.423m-9.44-.178c0 .062-.027.08-.12.08s-.12-.018-.12-.08.027-.08.12-.08.12.018.12.08m7.073-.01c-.008.042-.057.075-.123.083-.089.01-.11-.004-.11-.07s.025-.083.123-.083c.095 0 .12.016.11.07m-5.716.18c.002.044-.026.07-.077.07-.092 0-.098-.03-.036-.187.042-.105.047-.107.078-.033a.522.522 0 0 1 .035.15m7.058-.12c.04.152.028.19-.06.19-.068 0-.08-.017-.06-.09a.73.73 0 0 0 .024-.14c.001-.084.07-.055.096.04m-8.397.226c.047.077-.029.164-.142.164-.097 0-.116-.016-.116-.1s.019-.1.118-.1c.064 0 .127.016.14.036m7.075.019c.028.075-.049.145-.161.145-.071 0-.092-.022-.092-.1 0-.084.019-.1.116-.1.063 0 .125.025.137.055" fill-rule="evenodd"/></svg>