<svg viewBox="0 0 24 24" xmlns="http://www.w3.org/2000/svg"><path d="M4.245 2.685c-.686.114-1.335.718-1.531 1.426-.071.256-.074.588-.074 7.89 0 8.343-.014 7.836.231 8.296.15.282.581.706.849.835.285.137.645.228.898.227a2.102 2.102 0 0 0 1.4-.579c.119-.117.741-1.002 1.506-2.14l2.05-3.048c.835-1.241.844-1.262.61-1.496-.144-.144-.312-.177-.471-.093-.044.024-.953.798-2.018 1.72-1.937 1.676-2.084 1.787-2.151 1.614-.013-.035-.024-2.427-.024-5.315 0-5.624-.009-5.373.186-5.335.039.007 2.699 3.158 5.912 7.001 3.213 3.843 5.896 7.044 5.961 7.112.165.171.444.344.724.447.206.077.317.088.857.088s.651-.011.857-.088a2.044 2.044 0 0 0 1.285-1.412c.086-.322.086-15.348 0-15.67a2.037 2.037 0 0 0-1.619-1.485c-.64-.107-1.358.138-1.782.611-.235.262-4.114 5.995-4.208 6.219-.105.252.101.53.393.53.177 0-.063.194 2.286-1.85 1.03-.897 1.897-1.63 1.926-1.63.029 0 .072.024.097.054.033.04.043 1.475.035 5.37l-.01 5.316h-.11c-.096 0-.788-.812-5.891-6.92-3.181-3.806-5.885-7.025-6.01-7.152a1.971 1.971 0 0 0-1.049-.547 4.246 4.246 0 0 0-1.115.004" fill-rule="evenodd"/></svg>