<svg viewBox="0 0 24 24" xmlns="http://www.w3.org/2000/svg"><path d="M8.963 3.945c-.4.142-.773.497-.931.887-.09.224-.092.259-.104 1.964-.008 1.093.003 1.808.029 1.929.102.472.444.906.872 1.107.227.106.246.107 1.181.12l.95.013v1.034l-4.213.01-4.213.011-.197.121a1.003 1.003 0 0 0-.441 1.112c.091.313.258.519.531.653l.233.114 1.61.012 1.61.013v.989l-.951.013-.951.013-.266.131c-.329.162-.63.478-.759.799-.093.229-.093.236-.093 2.11v1.88l.127.269c.22.463.632.779 1.141.872.148.028 1.161.038 2.92.03 2.503-.011 2.706-.017 2.897-.086.413-.149.812-.548.96-.96.066-.184.074-.374.086-1.875.008-1.046-.003-1.754-.029-1.896a1.523 1.523 0 0 0-.874-1.147l-.268-.127-.95-.013-.95-.012v-.995h8.16v.994l-.95.013-.95.013-.268.127c-.476.226-.777.62-.875 1.149-.026.144-.037.839-.028 1.896.012 1.494.021 1.689.087 1.873.151.424.558.823.98.961.209.069.413.074 3.044.074 3.148 0 2.948.017 3.39-.286.265-.182.458-.443.568-.769.083-.247.085-.304.074-2.08l-.012-1.827-.13-.263a1.67 1.67 0 0 0-.761-.748c-.225-.105-.245-.107-1.179-.12l-.95-.013v-.989l1.63-.013c1.821-.013 1.797-.01 2.105-.304a.969.969 0 0 0 .313-.725.945.945 0 0 0-.28-.698c-.313-.327.055-.303-4.658-.304L13.04 11V9.965l.95-.013c.889-.013.963-.02 1.149-.105.438-.202.768-.589.882-1.036.054-.212.061-.505.051-2-.012-1.728-.013-1.754-.105-1.982-.123-.304-.452-.658-.754-.811L14.98 3.9l-2.92-.009c-2.559-.007-2.942-.001-3.097.054M14.04 6.9v1.02H9.96V5.88h4.08V6.9M8.96 17.1v1.02H4.88v-2.04h4.08v1.02m10.16 0v1.02h-4.04v-2.04h4.04v1.02" fill-rule="evenodd"/></svg>