<svg viewBox="0 0 24 24" xmlns="http://www.w3.org/2000/svg"><path d="M4.92 8.02c0 2.585-.009 4.7-.02 4.7-.011 0-.227-.138-.48-.306l-.459-.306-.011-1.793-.01-1.794-.75 1.32-.75 1.319.01 4.75.01 4.75h19.08l.01-4.734c.01-4.517.007-4.738-.062-4.84a61.2 61.2 0 0 1-.77-1.336l-.698-1.231-.011 1.811-.011 1.81-.469.309-.469.31-.01-4.72-.01-4.719H4.92v4.7m13.198.79-.002 4.57-3.019 1.98c-1.661 1.089-3.045 1.986-3.077 1.993-.031.007-1.435-.892-3.119-1.998L5.84 13.346V4.24h12.28l-.002 4.57M7.4 6.84v1h2v-2h-2v1m3 .32v.68l3.11-.01 3.11-.01.011-.67.011-.67H10.4v.68m-3 2.52v.68h9.24V9H7.4v.68m0 2.52v.68h9.242l-.011-.67-.011-.67-4.61-.01-4.61-.01v.68" fill-rule="evenodd"/></svg>