<svg viewBox="0 0 24 24" xmlns="http://www.w3.org/2000/svg"><path d="m7.34 3.992-4.6 2.671v10.706l4.638 2.673c2.551 1.47 4.657 2.661 4.68 2.646.023-.014 2.103-1.218 4.622-2.674l4.58-2.649.008-5.353.008-5.352L16.679 4c-2.529-1.463-4.63-2.664-4.669-2.67-.038-.005-2.14 1.193-4.67 2.662m8.776.908 4.082 2.36-.009 4.734-.009 4.734-4.06 2.355c-2.233 1.295-4.079 2.356-4.102 2.356-.023.001-1.877-1.059-4.12-2.354L3.82 16.73V7.26L7.9 4.893c2.244-1.302 4.092-2.364 4.107-2.36.015.004 1.864 1.069 4.109 2.367m-5.496-.388-1.32.79-.01 6.702-.01 6.703.56.364.56.365V12.68h4.12v-1.36H10.4V5.969l.769-.434c.423-.239.788-.44.812-.446.023-.006.661.349 1.419.789l1.376.801.316-.487c.283-.437.309-.493.249-.536-.187-.137-3.299-1.936-3.346-1.934-.03 0-.649.356-1.375.79M7.7 6.399l-.56.312-.02 2.734c-.011 1.504-.031 2.699-.045 2.655l-.633-2.06a626.649 626.649 0 0 0-.655-2.127l-.047-.148-.48.273-.48.273v7.86l.48.274.48.274.02-2.663.02-2.664.836 3.134c.459 1.724.852 3.155.872 3.181.045.057.736.453.792.453.027 0 .04-2.009.04-6.04 0-3.322-.014-6.038-.03-6.036a11.06 11.06 0 0 0-.59.315m7.948.148c-.156.236-.277.439-.269.452.008.013.331.228.718.479l.703.456v4.916c0 2.871.015 4.911.036 4.903.019-.007.298-.157.619-.333l.583-.32.001-4.23c.001-2.327.009-4.23.02-4.23.01 0 .348.226.75.502l.731.502.011-.63c.008-.471-.002-.641-.04-.675-.092-.083-3.499-2.219-3.54-2.219-.022 0-.167.192-.323.427" fill-rule="evenodd"/></svg>