<svg viewBox="0 0 24 24" xmlns="http://www.w3.org/2000/svg"><path d="M11.38 1.763c-2.881.158-5.601 1.572-7.426 3.859C2.812 7.054 2.062 8.854 1.795 10.8c-.067.49-.067 1.91 0 2.4.271 1.981 1.043 3.808 2.214 5.24 1.303 1.592 2.936 2.714 4.856 3.333 2.832.914 5.905.551 8.455-.997 4.062-2.465 5.908-7.402 4.453-11.911a10.235 10.235 0 0 0-4.153-5.448c-1.847-1.215-3.975-1.778-6.24-1.654m1.177 4.136a.843.843 0 0 1 .218.183c.103.122.105.135.105.722 0 .595.001.598.096.635.216.082 1.134.93 1.56 1.441.835 1.001 1.142 1.883.921 2.643-.156.534-.647 1.263-1.283 1.906l-.327.331h-.969l.011.57.011.57h.66c.869 0 .921-.02 1.48-.56l.42-.406 1.56-.448a46.697 46.697 0 0 1 1.61-.447c.037.001.05.11.049.411l-.002.41-.308.15c-.544.265-.805.49-1.111.956l-.599.914c-.423.644-.761.987-1.167 1.188l-.308.152h-3.082c-2.9 0-3.1-.004-3.382-.076-.836-.213-1.475-.627-1.96-1.271a3.325 3.325 0 0 1-.69-1.897l-.01-.316 1.57-.01 1.57-.011v.153c0 .279.113.564.307.771.289.309.404.337 1.393.337h.84l.011-.57.011-.57H11c-.632 0-.766-.01-.785-.058-.013-.034.102-.255.265-.51.381-.601.74-1.338.842-1.732.104-.401.112-1.061.019-1.565-.146-.785-.505-1.807-.94-2.674-.132-.263-.226-.492-.21-.508.017-.017.36.059.762.168.403.11.748.199.766.199.019 0 .04-.205.048-.456.011-.387.025-.469.093-.546.203-.227.471-.296.697-.179M9.831 8.49c.345.871.529 1.636.529 2.196 0 .406-.129.808-.438 1.365l-.228.409-1.452.011-1.452.01.018-.09c.014-.069 1.983-3.192 2.623-4.161.16-.241.216-.205.4.26" fill-rule="evenodd"/></svg>