<svg viewBox="0 0 24 24" xmlns="http://www.w3.org/2000/svg"><path d="M11.629 2.495c-.216.08-.402.217-.509.373-.15.219-.2.499-.2 1.114v.565l-1.226-.334c-.675-.183-1.259-.333-1.298-.333-.132 0-.123.08.045.391.439.812 1.028 2.18 1.339 3.109.21.627.44 1.56.523 2.12.096.643.096 1.68.001 2.113-.196.893-.737 2.019-1.63 3.391a9.076 9.076 0 0 0-.354.567c0 .013.028.052.063.086.054.055.229.063 1.3.063h1.237v1.924l-1.45-.012-1.45-.012-.27-.128a1.826 1.826 0 0 1-.86-.845c-.129-.261-.15-.345-.169-.674-.015-.273-.037-.386-.081-.414-.08-.051-5.119-.051-5.199 0-.12.075-.039 1.03.145 1.721a5.856 5.856 0 0 0 2.518 3.408c.492.315 1.209.602 1.916.765.353.082.46.084 5.346.097 5.486.014 5.289.022 5.826-.23.384-.18.716-.433 1.095-.835.415-.441.673-.801 1.423-1.985.743-1.173.921-1.41 1.264-1.683a7.404 7.404 0 0 1 1.32-.795c.162-.074.306-.165.32-.202.043-.11.029-1.139-.015-1.223a.157.157 0 0 0-.121-.077c-.044 0-1.258.341-2.697.757l-2.617.758-.537.539c-.649.651-.947.878-1.295.986-.234.072-.371.08-1.356.08H12.88v-1.92h1.598l.511-.511c1.146-1.147 1.903-2.261 2.194-3.229a3.224 3.224 0 0 0 .009-1.7c-.294-1.065-.889-2.021-2.049-3.29-.608-.667-1.936-1.815-2.148-1.857l-.115-.023v-.92c0-.583-.017-.978-.046-1.076-.06-.198-.28-.455-.475-.555-.208-.105-.54-.135-.73-.064M7.254 6.191c-.079.05-4.614 7.17-4.614 7.244 0 .165.001.165 2.438.164 1.288 0 2.363-.013 2.388-.03.151-.096.859-1.5 1.034-2.049.32-1.005.05-2.631-.778-4.677-.271-.667-.325-.743-.468-.652" fill-rule="evenodd"/></svg>