<svg viewBox="0 0 24 24" xmlns="http://www.w3.org/2000/svg"><path d="M10.76 2.623a9.622 9.622 0 0 0-3.51 1.201c-.532.311-1.173.778-1.141.831.039.063 1.735 2.025 1.75 2.025.008 0 .191-.119.407-.264 2.253-1.51 5.246-1.505 7.486.012.205.138.379.252.387.252.013 0 1.613-1.853 1.73-2.003.042-.054.002-.098-.281-.304a9.628 9.628 0 0 0-4.008-1.698c-.635-.113-2.182-.142-2.82-.052M5.275 5.35a9.487 9.487 0 0 0-2.488 4.51 9.601 9.601 0 0 0-.005 4.26 9.356 9.356 0 0 0 2.575 4.6 9.251 9.251 0 0 0 3.923 2.333 8.814 8.814 0 0 0 2.7.397c1.522.004 2.826-.299 4.208-.977a9.416 9.416 0 0 0 2.533-1.83c1.489-1.495 2.409-3.412 2.682-5.583.066-.525.056-1.757-.019-2.272-.302-2.078-1.175-3.893-2.574-5.347l-.39-.405-.895 1.043-.895 1.044.258.269a6.785 6.785 0 0 1 1.55 2.687c.2.673.258 1.106.258 1.921 0 .818-.058 1.248-.261 1.93-.121.408-.442 1.173-.529 1.261-.041.041-.4-.286-1.862-1.7l-1.811-1.751-.898-1.938a130.06 130.06 0 0 0-.916-1.956c-.01-.011-.019 1.322-.019 2.961v2.981l1.61 1.559c.886.857 1.717 1.658 1.847 1.779l.237.22-.399.266a6.855 6.855 0 0 1-2.462.996c-.653.131-1.852.131-2.493-.002a7.029 7.029 0 0 1-2.431-.99c-.192-.128-.349-.242-.349-.254.001-.012.826-.817 1.834-1.79l1.833-1.767.024-2.573c.013-1.414.012-2.758-.004-2.985l-.027-.413-.9 1.949-.9 1.949-1.836 1.776-1.836 1.776-.074-.112a5.105 5.105 0 0 1-.251-.532c-1.046-2.474-.536-5.34 1.291-7.249l.257-.269-.851-.991-.897-1.041c-.035-.038-.113.02-.348.26" fill-rule="evenodd"/></svg>