<svg viewBox="0 0 24 24" xmlns="http://www.w3.org/2000/svg"><path d="M8.027 4.339a7.865 7.865 0 0 0-3.043 1.108c-.322.2-.923.652-1.016.763-.042.05.069.182.695.825.41.421.76.765.778.765.018 0 .188-.117.379-.261.415-.313 1.185-.698 1.679-.839a5.74 5.74 0 0 1 3.162 0c.494.141 1.264.526 1.679.839.191.144.358.261.373.261.015 0 .375-.347.799-.772l.771-.772-.252-.201c-1.089-.874-2.098-1.354-3.44-1.638-.416-.088-.619-.106-1.331-.119-.582-.01-.96.002-1.233.041m7.607 1.491-.346.35.253.292c1.049 1.214 1.716 2.694 1.959 4.348.077.52.088 1.668.022 2.2-.194 1.546-.855 3.113-1.805 4.274l-.335.411-.079.097.356.357.355.357.151-.172c.725-.823 1.342-1.815 1.713-2.754l.091-.23h2.077c2.256 0 2.238.002 2.447-.224a.77.77 0 0 0 .149-.315c.03-.137.039-1.071.031-2.961-.013-2.7-.015-2.763-.095-2.9a.86.86 0 0 0-.216-.23l-.134-.09h-2.112c-1.646 0-2.118-.011-2.143-.05a9.434 9.434 0 0 1-.215-.47 8.992 8.992 0 0 0-.844-1.504c-.246-.363-.841-1.1-.909-1.126-.014-.006-.182.147-.371.34M3.163 7.005a7.91 7.91 0 0 0-1.767 3.975c-.067.456-.066 1.485.002 1.98a7.969 7.969 0 0 0 2.082 4.376c1.2 1.264 2.77 2.057 4.606 2.327.637.093 1.838.063 2.454-.061a7.822 7.822 0 0 0 6.197-6.442c.187-1.186.082-2.374-.317-3.588a7.781 7.781 0 0 0-1.408-2.541l-.265-.318-.779.779-.78.78.26.346a5.533 5.533 0 0 1 1.108 2.722 5.528 5.528 0 0 1-.56 3.147l-.096.187-1.54-1.481-1.54-1.481-.689-1.646-.706-1.686c-.01-.022-.02 1.096-.022 2.484L9.4 13.388l.93.894c.512.492 1.205 1.16 1.54 1.485l.61.59-.308.208a5.846 5.846 0 0 1-2.078.862c-.489.098-1.539.098-2.028 0a5.993 5.993 0 0 1-2.093-.872l-.289-.195.568-.552c.312-.304 1.005-.973 1.538-1.486l.97-.934v-2.521c0-1.386-.007-2.513-.015-2.504-.009.009-.325.766-.704 1.682l-.687 1.664-1.547 1.485-1.546 1.485-.117-.23c-.3-.59-.478-1.222-.551-1.957-.136-1.372.308-2.868 1.164-3.922.112-.138.203-.264.203-.281 0-.016-.349-.378-.775-.804L3.41 6.71l-.247.295m18.098 2.879c.058.058.028.096-.353.45l-.417.386H19.48v.52h-.931l.019-.39c.024-.475.139-.742.401-.932l.168-.122 1.03.012c.879.01 1.04.021 1.094.076m.418.876c-.001.284-.019.421-.075.543-.072.16-.418.513-1.47 1.501l-.486.456 1.076.011 1.076.01v.226a.683.683 0 0 1-.099.394c-.174.298-.182.299-1.797.299H18.48v-.412c0-.381.008-.425.11-.584.155-.243 3.02-2.932 3.059-2.871.016.026.03.218.03.427m-7.06 7.521c-.058.064-.066.104-.035.19.02.059.073.115.117.123.069.013.066.005-.02-.065-.087-.071-.093-.091-.05-.184.052-.115.192-.141.289-.055.048.043.048.04.003-.02-.071-.094-.214-.089-.304.011m.197.073c.017.027.003.046-.034.046-.034 0-.062.015-.062.033 0 .019.026.034.058.034.074 0 .113-.095.054-.132-.027-.017-.033-.009-.016.019m.046.187c-.042.033-.058.059-.035.059.024 0 .066-.027.093-.06.062-.075.043-.075-.058.001" fill-rule="evenodd"/></svg>