<svg viewBox="0 0 24 24" xmlns="http://www.w3.org/2000/svg"><path d="M15.2 3.943c-3.407.481-7.028 2.804-9.827 6.304-1.54 1.926-2.599 4.008-3 5.9-.098.46-.109.597-.111 1.333-.002.903.031 1.1.265 1.594.151.316.495.668.801.816.729.354 1.833.324 2.854-.077 1.236-.485 2.528-1.633 3.613-3.21.113-.164.205-.29.205-.28a4.776 4.776 0 0 1-.06.213c-.246.809-.105 1.668.345 2.104.347.337.737.459 1.373.43.51-.023.972-.157 1.517-.44.784-.408 1.701-1.258 2.244-2.08.084-.126.157-.23.162-.23a.548.548 0 0 1-.024.15c-.095.407-.003.91.211 1.153.427.487 1.395.477 2.246-.022 1.711-1.003 3.142-3.561 3.648-6.521.1-.583.123-1.985.042-2.56-.233-1.654-.885-2.863-1.984-3.678-.547-.405-1.173-.676-1.952-.846-.519-.112-1.938-.142-2.568-.053m.279 4.137c.197.102.381.305.489.54.077.17.091.266.091.64 0 .476-.054.661-.28.957-.303.398-.943.453-1.337.116-.252-.216-.376-.517-.395-.961-.01-.212.004-.453.031-.562.059-.237.252-.543.414-.659.273-.194.69-.224.987-.071m3.246.002c.08.042.21.15.289.241.427.5.396 1.501-.062 1.958-.509.51-1.321.293-1.59-.423-.166-.443-.114-1.062.122-1.444.247-.4.812-.55 1.241-.332" fill-rule="evenodd"/></svg>