<svg viewBox="0 0 24 24" xmlns="http://www.w3.org/2000/svg"><path d="M5.823 2.284a4.286 4.286 0 0 0-2.746 1.632c-.273.359-.574.983-.707 1.465l-.11.399v12.44l.11.397c.41 1.489 1.527 2.602 3.025 3.017l.385.106h12.44l.388-.107a4.224 4.224 0 0 0 1.881-1.066 4.161 4.161 0 0 0 1.212-2.282c.088-.502.088-12.068 0-12.57a4.194 4.194 0 0 0-3.418-3.41c-.337-.058-1.015-.064-6.3-.06-3.258.003-6.029.02-6.16.039M15.707 6.5c1.591.258 2.606 1.354 2.852 3.08.093.66.028 1.705-.156 2.475-.442 1.854-1.605 3.554-2.703 3.951-.348.126-.785.126-1.005-.001-.247-.141-.353-.356-.35-.71l.002-.284-.228.304c-.894 1.197-2.214 1.813-3.082 1.44a1.026 1.026 0 0 1-.535-.587c-.077-.228-.08-.716-.004-1.008.054-.209.053-.215-.011-.12-.672.998-1.49 1.795-2.227 2.169-1.052.535-2.22.485-2.679-.115-.271-.356-.319-.551-.32-1.294-.001-.989.176-1.673.718-2.78 1.177-2.405 3.346-4.598 5.681-5.744.889-.436 1.819-.727 2.58-.808a7.681 7.681 0 0 1 1.467.032M13.66 9.458c-.691.252-.626 1.592.084 1.725.534.101.913-.265.915-.883.002-.638-.469-1.036-.999-.842m2.277-.015c-.571.166-.7 1.236-.194 1.622.397.303.975.088 1.122-.417.112-.383.015-.851-.218-1.062-.172-.155-.465-.214-.71-.143" fill-rule="evenodd"/></svg>