<svg viewBox="0 0 24 24" xmlns="http://www.w3.org/2000/svg"><path d="M11.16 2.182c-1.238.175-2.235.731-2.584 1.441-.099.202-.116.285-.116.558 0 .281.016.353.131.587.624 1.268 3.164 1.874 5.143 1.227.784-.256 1.398-.699 1.665-1.2.329-.617.136-1.307-.509-1.815-.871-.685-2.326-.996-3.73-.798M5.9 4.902c-.973.245-2.076 1.308-2.676 2.58-.35.742-.502 1.353-.503 2.02-.002.879.274 1.452.83 1.726.198.097.276.112.569.111.543-.003 1.045-.212 1.632-.682 1.812-1.45 2.622-4.448 1.481-5.479-.334-.302-.826-.403-1.333-.276m11.353-.007c-.978.321-1.282 1.594-.755 3.167.529 1.581 1.754 2.922 2.944 3.223.892.226 1.568-.205 1.796-1.145.069-.282.059-.982-.018-1.36-.348-1.7-1.643-3.383-2.94-3.821-.324-.109-.799-.139-1.027-.064M3.92 12.668c-.293.049-.495.15-.704.354-.348.34-.496.77-.496 1.442 0 1.242.618 2.633 1.618 3.641.46.464.88.755 1.33.92.258.095.374.115.672.115.416 0 .623-.075.897-.322.225-.203.347-.423.443-.798.493-1.928-1.306-4.921-3.2-5.323-.259-.055-.37-.061-.56-.029m15.65.016c-1.164.194-2.503 1.603-3.065 3.226-.861 2.485.508 4.066 2.432 2.809 1.31-.855 2.343-2.705 2.348-4.204.004-1.047-.402-1.698-1.142-1.832-.265-.048-.277-.048-.573.001m-8.53 5.136c-1.213.207-2.153.76-2.471 1.453-.487 1.06.525 2.154 2.321 2.509.46.091 1.386.121 1.841.059.972-.131 1.819-.482 2.303-.954.385-.376.506-.637.505-1.087-.001-.294-.016-.369-.113-.555-.369-.707-1.277-1.228-2.486-1.426-.44-.072-1.479-.072-1.9.001" fill-rule="evenodd"/></svg>