<svg viewBox="0 0 24 24" xmlns="http://www.w3.org/2000/svg"><path d="M7.1 2.945c-.219.055-.528.226-2.66 1.472-1.773 1.036-2.338 1.386-2.467 1.524-.307.33-.296.209-.284 3.402L1.7 12.18l.107.2c.058.11.184.275.28.367.198.191 4.489 2.704 4.813 2.819.246.088.542.093.803.015.252-.076-.061.103 6.637-3.794.946-.55 1.801-1.026 1.9-1.057.229-.072.656-.042.892.062.374.166 2.575 1.475 2.716 1.616.366.366.402.599.385 2.463l-.013 1.431-.13.265a1.621 1.621 0 0 1-.288.406c-.161.146-2.404 1.501-2.673 1.615-.21.089-.658.084-.914-.012-.308-.114-2.518-1.411-2.734-1.604a1.287 1.287 0 0 1-.304-.42l-.115-.252-.015-.99a21.1 21.1 0 0 0-.027-.99c-.007 0-.459.259-1.006.576l-.994.576v2.108l.108.22c.06.121.186.295.28.388.183.178 4.451 2.684 4.802 2.819.23.088.584.094.853.014.109-.032 1.224-.653 2.477-1.379 2.474-1.434 2.538-1.479 2.698-1.905.08-.215.082-.29.082-3.037 0-2.772-.001-2.821-.085-3.044-.156-.416-.256-.487-2.635-1.864a201.59 201.59 0 0 0-2.36-1.353c-.221-.112-.632-.148-.914-.08-.137.032-.689.335-1.695.929-.82.484-1.995 1.16-2.611 1.501-.616.341-1.804 1.03-2.64 1.531-.836.501-1.592.931-1.68.955a1.376 1.376 0 0 1-.743-.019c-.274-.08-2.635-1.497-2.85-1.71a1.605 1.605 0 0 1-.261-.38l-.106-.226V7.62l.106-.226c.058-.124.176-.296.261-.381.15-.15 2.316-1.441 2.708-1.615.249-.11.521-.137.799-.079.185.038.48.198 1.479.8.686.414 1.326.821 1.423.905.111.096.221.247.299.414l.124.262.021 1.023.02 1.022 1.011-.582 1.011-.583-.011-1.08c-.011-1.069-.012-1.082-.115-1.3a1.552 1.552 0 0 0-.269-.38c-.141-.135-3.964-2.423-4.627-2.769-.154-.08-.269-.107-.5-.115a2.292 2.292 0 0 0-.38.009" fill-rule="evenodd"/></svg>