<svg viewBox="0 0 24 24" xmlns="http://www.w3.org/2000/svg"><path d="M4.571 3.457c-.381.121-.824.497-1.007.855-.193.379-.203.515-.203 2.936-.001 1.516.014 2.338.044 2.48a1.803 1.803 0 0 0 1.146 1.323c.223.083.292.086 2.469.1 1.428.009 2.356-.001 2.56-.028.846-.112 1.428-.694 1.542-1.544.028-.206.038-1.103.029-2.539-.013-2.001-.022-2.242-.086-2.44a1.861 1.861 0 0 0-.937-1.068L9.9 3.42l-2.58-.008c-2.054-.006-2.614.003-2.749.045m9.44.021a1.807 1.807 0 0 0-1.062 1.073c-.084.223-.086.291-.1 2.503-.009 1.488.001 2.373.029 2.56.124.822.711 1.396 1.543 1.508.206.028 1.111.038 2.559.029 2.177-.014 2.246-.017 2.469-.1a1.803 1.803 0 0 0 1.146-1.323c.03-.142.045-.964.044-2.48 0-2.423-.01-2.557-.204-2.937-.136-.267-.486-.604-.784-.755l-.267-.136-2.582-.009c-2.448-.009-2.593-.005-2.791.067m-9.432 9.473a1.766 1.766 0 0 0-1.174 1.321c-.03.142-.045.964-.044 2.48 0 2.467.008 2.574.226 2.974.127.233.493.591.724.709.38.194.516.204 2.912.204 1.453.001 2.326-.014 2.48-.043.628-.115 1.122-.542 1.344-1.159.091-.255.092-.275.105-2.477.008-1.408-.002-2.337-.029-2.54-.085-.639-.434-1.125-1.003-1.396l-.26-.124-2.54-.009c-2.33-.009-2.557-.004-2.741.06m8.747.015a.88.88 0 0 0-.446.615c-.03.141-.041.679-.032 1.568l.012 1.353.102.199c.062.12.17.246.274.319l.171.12h3.22l.156-.109c.087-.06.202-.176.257-.257l.1-.148.011-1.564c.012-1.563.012-1.565-.08-1.737a1.039 1.039 0 0 0-.265-.299l-.174-.126-1.566-.011c-1.539-.01-1.569-.009-1.74.077m6.042-.003a.922.922 0 0 0-.415.457c-.041.093-.057.657-.073 2.527l-.02 2.406-.12.171a.955.955 0 0 1-.319.274l-.199.102-2.423.02c-2.216.018-2.432.026-2.529.09a.919.919 0 0 0-.429.755.836.836 0 0 0 .617.816c.191.056.517.062 2.61.049 2.684-.017 2.583-.007 3.19-.322.604-.314 1.091-.929 1.289-1.628.067-.239.073-.454.073-2.72V13.5l-.1-.178a1.075 1.075 0 0 0-.272-.299.932.932 0 0 0-.88-.06" fill-rule="evenodd"/></svg>