<svg viewBox="0 0 24 24" xmlns="http://www.w3.org/2000/svg"><path d="M8.34 2.233a.354.354 0 0 0-.129.055c-.028.023-.12.027-.216.011-.273-.046-.472-.029-.609.052a.73.73 0 0 1-.318.079.733.733 0 0 0-.32.08 1.176 1.176 0 0 1-.399.102c-.285.026-.393.067-.541.202a.465.465 0 0 1-.273.096c-.212.013-.385.093-.473.219-.069.099-.081.335-.024.485.028.075.018.136-.043.252-.09.174-.08.36.03.527a.694.694 0 0 1 .072.329c.002.18.025.253.113.368a.48.48 0 0 1 .11.285c0 .188.062.341.198.485a.624.624 0 0 1 .14.28c.022.125.079.209.262.385.129.123.26.285.292.36.075.176.214.3.41.368.093.032.178.094.206.152.074.15.223.272.43.35l.19.072-.337.224c-.471.314-.862.737-1.067 1.155-.197.402-.276.701-.34 1.289-.045.419-.129.665-.226.665-.058 0-.511.439-.653.634a3.086 3.086 0 0 0-.6 1.806 2.82 2.82 0 0 0 .584 1.751c.127.168.21.33.252.492.034.132.131.442.216.689.085.246.185.583.223.748.213.929.947 1.835 1.805 2.227.122.056.418.235.659.397.446.302.978.587 1.336.716.11.04.272.139.36.221.979.905 2.285 1.187 3.488.752a3.701 3.701 0 0 0 1.13-.695c.112-.105.298-.222.447-.283a7.677 7.677 0 0 0 1.389-.754c.19-.136.452-.296.581-.354.679-.309 1.421-1.083 1.667-1.741.047-.124.11-.334.142-.466.031-.132.146-.519.256-.86.109-.341.207-.666.218-.721.01-.056.102-.208.203-.338.396-.51.593-1.088.594-1.741 0-.515-.079-.849-.316-1.34-.214-.441-.459-.756-.795-1.02-.14-.11-.282-.259-.315-.33-.032-.072-.07-.301-.082-.51-.061-1.017-.56-1.862-1.418-2.4a1.989 1.989 0 0 1-.288-.201c-.001-.012.081-.046.181-.075.188-.056.418-.247.418-.348 0-.031.095-.099.211-.15.211-.094.429-.301.429-.409 0-.032.115-.17.257-.307.201-.196.263-.284.285-.41a.716.716 0 0 1 .159-.306c.137-.152.201-.34.161-.467a.124.124 0 0 1 .04-.129c.12-.099.225-.361.214-.533a.789.789 0 0 1 .082-.362l.092-.197-.083-.196c-.062-.148-.073-.221-.045-.296.093-.244.003-.528-.201-.633a.756.756 0 0 0-.294-.061c-.112 0-.196-.023-.229-.063-.101-.121-.363-.222-.616-.237a.857.857 0 0 1-.386-.097.648.648 0 0 0-.318-.083.864.864 0 0 1-.338-.08c-.176-.09-.327-.1-.554-.037-.122.034-.18.03-.286-.02-.17-.081-.215-.079-.49.017a.832.832 0 0 1-.412.056c-.148-.02-.223-.005-.381.073a.6.6 0 0 1-.361.081c-.188-.02-.417.079-.573.246a.293.293 0 0 1-.236.104c-.37 0-.937.692-1.274 1.555-.033.086-.047.068-.149-.191-.141-.36-.437-.81-.689-1.048-.271-.256-.372-.316-.529-.316-.104 0-.179-.038-.308-.158-.173-.159-.381-.232-.544-.189-.049.013-.156-.014-.25-.063-.116-.061-.247-.088-.444-.094-.305-.008-.651-.089-.669-.156-.006-.023-.047-.035-.091-.027m-.409.666c.105.032.282.104.394.16.111.055.219.091.239.079.057-.036.042-.145-.03-.225-.053-.058-.055-.073-.01-.073.072 0 .291.134.503.308.167.136.168.137.214.05a.264.264 0 0 0 .026-.162c-.011-.042-.006-.076.011-.076.058 0 .389.274.458.379.056.086.08.097.127.059.031-.026.058-.113.059-.193l.001-.145.317.331c.288.3.32.323.358.252a.405.405 0 0 0 .044-.15c.002-.109.363.294.558.623.245.412.333.691.336 1.064.004.371-.075.563-.319.777-.258.227-.31.235-.506.074-.411-.337-1.149-.786-1.891-1.151-.713-.35-1.567-.707-1.604-.669-.008.007.116.083.275.167.92.49 1.918 1.118 2.409 1.515.359.289.62.562.62.646-.001.133-.223.479-.418.651-.368.324-.841.481-1.562.518l-.479.025.119-.103c.066-.057.108-.116.092-.131-.015-.015-.185-.045-.377-.066a2.363 2.363 0 0 1-.472-.091L7.3 7.29l.113-.045c.063-.025.107-.065.099-.09-.008-.024-.158-.093-.334-.152a3.935 3.935 0 0 1-.418-.162l-.1-.054.174-.058.174-.058-.339-.186a4.838 4.838 0 0 1-.454-.274L6.1 6.123l.14-.002c.258-.004.256-.054-.01-.25a3.258 3.258 0 0 1-.347-.287l-.097-.104h.392l-.261-.27c-.393-.405-.392-.404-.183-.381.27.031.263-.04-.031-.325-.145-.139-.263-.274-.263-.298 0-.03.06-.036.18-.02.159.022.18.016.179-.051-.001-.094-.13-.382-.241-.538l-.083-.117h.42c.231 0 .43-.015.441-.034.012-.019-.024-.077-.08-.13l-.102-.096.133-.028c.144-.03.597.021.771.087.139.053.142.053.142-.026 0-.038-.039-.11-.087-.16C7.046 3.022 7.04 3 7.087 3c.066 0 .61.136.723.181.111.044.087-.099-.037-.229-.123-.128-.107-.133.158-.053m7.535.054c-.074.082-.086.19-.025.227.022.014.137-.022.255-.08.118-.057.309-.13.425-.16l.21-.056L16.22 3c-.061.064-.101.141-.088.173.019.05.057.048.275-.012.139-.038.325-.083.413-.099l.16-.029-.09.096c-.176.188-.111.246.189.168.224-.059.761-.079.761-.029a.514.514 0 0 1-.107.14l-.108.112h.902l-.089.143c-.129.21-.238.444-.238.515 0 .047.044.062.181.062.169 0 .179.006.139.079a2.08 2.08 0 0 1-.27.298c-.125.121-.214.233-.197.249.017.017.102.028.189.025.091-.004.158.012.158.037 0 .024-.126.165-.279.314-.289.28-.295.318-.05.318h.104l-.116.121a2.606 2.606 0 0 1-.327.266c-.117.081-.212.161-.212.18 0 .018.077.034.17.035l.17.001-.138.118a3.037 3.037 0 0 1-.44.276c-.3.156-.301.158-.189.2a.699.699 0 0 0 .18.045c.101.002-.175.142-.473.239l-.32.105c-.046.015-.032.042.056.113l.116.094-.156.043a3.402 3.402 0 0 1-.467.07c-.171.014-.323.044-.337.066-.014.023.024.083.084.135l.108.093h-.239c-.603 0-1.25-.166-1.63-.418-.243-.161-.471-.447-.543-.678l-.048-.157.32-.303c.477-.453 1.386-1.073 2.327-1.589.227-.124.404-.233.395-.242-.022-.022-.558.193-1.086.437-.765.353-1.45.758-2.056 1.214-.231.173-.254.182-.363.136-.149-.061-.381-.286-.466-.45-.1-.194-.117-.575-.036-.853a3.57 3.57 0 0 1 .582-1.087c.209-.258.279-.303.279-.178 0 .04.02.092.045.117.033.033.126-.039.358-.282.287-.299.314-.318.315-.22.004.227.104.305.21.162.072-.098.398-.369.443-.369.021 0 .026.03.012.066-.013.036.004.109.039.163l.065.099.086-.081c.104-.097.546-.367.601-.367.021 0 .009.033-.028.073M16.92 4.16c-.036.023-.041.039-.012.039a.091.091 0 0 0 .072-.039c.031-.05.017-.05-.06 0m-4.29 3.7c.541.128 1.155.507 1.372.849.135.213.159.495.059.688-.152.294-.547.527-1.139.672-.397.097-1.253.086-1.65-.021-.947-.256-1.448-.829-1.149-1.313.211-.341.843-.75 1.347-.873a3.079 3.079 0 0 1 1.16-.002m-3.048.396c.072.053.073.063.011.19-.328.677-2.587 2.517-3.026 2.466-.101-.011-.108-.026-.119-.249-.017-.332.092-.833.255-1.164.33-.673.917-1.098 1.757-1.273a6.32 6.32 0 0 1 .562-.021c.357-.004.503.01.56.051m6.158.086a2.41 2.41 0 0 1 1.08.636c.426.429.632.911.686 1.603.029.377-.008.441-.222.38-.735-.211-3.028-2.217-2.957-2.588.009-.047.064-.083.153-.1.224-.044.998-.002 1.26.069m-.904 1.959c.66.156 1.358.731 1.677 1.382.445.907.361 1.86-.219 2.479-.582.622-1.436.729-2.334.29-.396-.193-.912-.704-1.131-1.118-.891-1.692.267-3.443 2.007-3.033m-4.275.187c.336.152.694.505.857.847.309.648.286 1.339-.069 2.065-.217.443-.709.952-1.129 1.169-1.476.76-2.945-.163-2.847-1.789a2.601 2.601 0 0 1 1.081-1.956c.534-.378.826-.469 1.446-.45.365.012.478.031.661.114m7.444 1.195c.419.269.806.807.934 1.299.071.274.08.882.017 1.186-.106.514-.528 1.152-.761 1.152-.326 0-.657-.75-.819-1.854-.08-.544-.063-1.41.031-1.628.135-.31.292-.351.598-.155m-11.586.012c.133.133.185.339.21.829.066 1.328-.475 2.989-.929 2.851-.202-.061-.498-.499-.645-.955-.138-.425-.147-1.063-.021-1.46.156-.488.427-.862.86-1.185.266-.198.388-.217.525-.08m6.495 2.859c.688.242 1.221.786 1.39 1.42.07.264.071.748 0 1.011-.197.742-.863 1.34-1.685 1.515-1.182.25-2.396-.435-2.683-1.515-.08-.3-.07-.77.023-1.071.206-.667.802-1.207 1.561-1.413.331-.09 1.065-.062 1.394.053m4.554.724c.308.14.493.657.494 1.382.001.659-.129 1.054-.507 1.546-.561.731-1.504 1.198-2.176 1.08-.537-.095-.686-.263-.712-.807-.02-.429.082-.87.315-1.356a3.47 3.47 0 0 1 .845-1.14c.736-.684 1.292-.909 1.741-.705m-10.048.319c.375.131.705.361 1.125.782.354.353.429.454.588.783.23.476.307.78.307 1.205 0 .599-.196.829-.736.864-.61.039-1.189-.202-1.728-.72-.552-.529-.831-1.193-.832-1.974 0-.36.012-.428.111-.631.144-.294.298-.382.676-.384.169-.001.353.027.489.075m5.211 3.603c.935.084 1.609.377 1.609.699 0 .42-.869 1.098-1.64 1.279-.824.193-1.77-.084-2.433-.714-.295-.279-.357-.484-.205-.677.179-.228.912-.498 1.578-.582.381-.048.608-.049 1.091-.005" fill-rule="evenodd"/></svg>