<svg viewBox="0 0 24 24" xmlns="http://www.w3.org/2000/svg"><path d="M1.633 10.373c-.401.114-.63.413-.632.824-.002.43.189.66.866 1.039.42.236.573.39.573.579 0 .182-.077.267-.261.291-.235.03-.313-.046-.338-.332l-.021-.234-.411-.011c-.484-.014-.486-.011-.419.383.054.314.192.502.473.646.175.09.246.101.637.102.507 0 .682-.048.903-.247.226-.205.321-.584.235-.943-.068-.28-.308-.508-.834-.788-.571-.303-.713-.498-.529-.726.053-.066.116-.092.22-.092.184 0 .265.08.293.29l.023.166h.795l-.028-.23c-.038-.323-.148-.501-.391-.633-.172-.094-.258-.112-.584-.123a2.17 2.17 0 0 0-.57.039m10.303-.015c-.521.124-.788.583-.639 1.097.078.269.268.451.789.758.49.288.594.392.594.592 0 .196-.11.315-.292.315-.213 0-.284-.08-.307-.346l-.021-.234h-.84l.01.251c.01.26.099.493.237.617.35.317 1.219.356 1.661.076.225-.143.323-.341.345-.696.032-.525-.11-.712-.849-1.125-.233-.13-.453-.269-.488-.307-.082-.091-.083-.347-.001-.429.035-.034.129-.063.21-.063.179 0 .295.125.295.32v.136h.811l-.022-.217c-.058-.556-.379-.786-1.089-.778a2.554 2.554 0 0 0-.404.033m9.593.002c-.222.047-.461.183-.562.319-.155.209-.174.376-.16 1.404l.013.983.108.163c.074.113.18.198.34.277.208.101.274.113.632.113.331 0 .434-.016.599-.091.436-.2.51-.357.533-1.138l.018-.59h-1.13v.48h.32v.278c0 .234-.015.295-.095.388-.115.134-.336.151-.463.036-.078-.071-.082-.118-.082-1.002 0-.848.006-.933.073-.994.075-.067.349-.09.431-.035.078.052.136.2.136.348v.144l.39-.012.39-.011-.007-.196c-.009-.24-.104-.503-.225-.616-.232-.218-.837-.338-1.259-.248M4.066 11.91c-.15.808-.283 1.511-.294 1.561-.021.092-.021.092.412.08l.434-.011.208-1.394c.115-.767.215-1.401.223-1.408.008-.008.101.583.206 1.314.106.73.202 1.369.213 1.418.02.086.038.09.44.09h.418l-.022-.11c-.044-.219-.544-2.962-.544-2.986 0-.013-.32-.024-.711-.024h-.71l-.273 1.47M7 10.95c0 .28-.012.983-.027 1.56l-.026 1.05h.813l.003-1.39c.002-.765.017-1.345.033-1.29.016.055.136.68.267 1.39l.237 1.29h.809l.091-.49c.049-.27.167-.895.262-1.39l.171-.9.004.58c.002.319.015.945.029 1.39l.027.81h.789l-.021-.37a68.324 68.324 0 0 1-.046-1.56l-.024-1.19H9.096l-.174 1.09c-.096.6-.187 1.134-.201 1.189-.016.062-.096-.335-.219-1.09L8.31 10.44H7v.51m7.241.78c.001 1.173.008 1.305.076 1.455.152.335.606.526 1.143.482.383-.032.574-.101.741-.268.225-.225.239-.327.239-1.714V10.44h-.8v1.203c0 1.406-.007 1.435-.324 1.436-.277.002-.276.007-.276-1.392V10.44h-.8l.001 1.29m3.079.269v1.561h.773l-.026-1.286a26.988 26.988 0 0 1-.01-1.27c.009.009.127.385.262.836.136.451.309 1.023.386 1.27l.139.45h1.116v-3.12h-.78l.01 1.21.01 1.21-.352-1.2-.352-1.2-.588-.011-.588-.011v1.561" fill-rule="evenodd"/></svg>