<svg viewBox="0 0 24 24" xmlns="http://www.w3.org/2000/svg"><path d="M9.963 6.604c-1.082 1.895-1.959 3.47-1.947 3.5.032.084 7.936.084 7.968 0 .033-.087-3.9-6.944-3.984-6.944-.049 0-.626.975-2.037 3.444m-3.857 7.275a3.586 3.586 0 0 0-1.99 1.067c-.411.426-.694.93-.857 1.527-.102.369-.122 1.128-.042 1.525a3.533 3.533 0 0 0 2.785 2.785c.397.08 1.156.06 1.525-.042.807-.221 1.571-.761 2.029-1.434.176-.258.422-.791.502-1.087.089-.329.123-1.052.066-1.412a3.537 3.537 0 0 0-1.049-1.99c-.656-.624-1.391-.931-2.295-.959a4.651 4.651 0 0 0-.674.02m7.753.011c-.011.027-.015 1.598-.009 3.49l.01 3.44h6.96v-6.96l-3.471-.01c-2.756-.008-3.475 0-3.49.04" fill-rule="evenodd"/></svg>