<svg viewBox="0 0 24 24" xmlns="http://www.w3.org/2000/svg"><path d="M2.412 9.758c-.479.076-.975.419-1.138.785-.119.27-.104.721.033.989.096.189.33.42.551.547.115.066.451.207.746.314.776.281.846.324.913.558.086.299-.219.529-.7.529-.325-.001-.575-.069-.898-.247l-.234-.129-.317.298-.318.298.105.09c.155.132.63.356.908.427.361.092.88.121 1.2.067.801-.135 1.364-.739 1.279-1.374-.078-.59-.446-.909-1.461-1.266-.568-.2-.792-.332-.866-.511-.053-.126-.052-.153.013-.285.111-.226.292-.309.664-.304.276.003.344.02.595.149l.284.145.316-.284c.294-.265.311-.29.252-.355-.101-.112-.498-.307-.765-.376-.301-.077-.88-.11-1.162-.065M19.56 11.94v2.22h.919l.01-1.056.011-1.055.8.74 1.23 1.14.43.4V9.8h-.959l-.01 1.063-.011 1.063-1.191-1.103a48.46 48.46 0 0 0-1.21-1.103c-.01 0-.019.999-.019 2.22m-13.4.08v2.18h.96v-1.92H9v1.92h.96V9.84H9v1.72H7.12V9.84h-.96v2.18m5.64 0v2.18h3.24v-.76h-2.28v-1.2H15v-.68h-2.24v-1.04h2.28v-.68H11.8v2.18m4.92 0v2.18h.96V9.84h-.96v2.18" fill-rule="evenodd"/></svg>