<svg viewBox="0 0 24 24" xmlns="http://www.w3.org/2000/svg"><path d="M11.279 1.313c-1.2.334-2.162 1.376-2.5 2.707-.052.207-.11.508-.127.668l-.032.292L6.944 5l-1.675.02-.076.102c-.075.1-.072.18.163 5.32.255 5.585.24 5.399.467 5.761.136.218.439.464.67.545.196.068.503.072 5.527.072 4.966 0 5.332-.005 5.494-.07.412-.165.745-.523.872-.939.042-.14.127-1.581.315-5.391.251-5.071.256-5.202.184-5.3l-.074-.1L17.136 5l-1.676-.02-.011-.14a5.832 5.832 0 0 0-.248-1.143c-.377-1.11-1.204-1.974-2.221-2.322-.277-.095-.395-.111-.88-.122-.447-.01-.613.002-.821.06m1.421.935c.896.295 1.596 1.209 1.76 2.296.032.213.048.403.037.422-.012.019-1.129.034-2.481.034h-2.46l.027-.25c.199-1.82 1.65-2.986 3.117-2.502m-.129 4.729c.194.032.491.104.66.161.354.119.921.411.981.506.031.049.004.123-.112.31-.157.255-.222.288-.365.188-.363-.254-1.015-.473-1.557-.523-.954-.087-1.756.478-1.752 1.237.002.301.077.484.299.724.24.261.604.461 1.275.7 1.14.406 1.922.861 2.237 1.301.246.343.321.587.322 1.042.002.647-.171 1.077-.603 1.503-.938.924-2.929.851-4.306-.158-.137-.101-.25-.209-.25-.239 0-.082.323-.529.382-.529.027 0 .208.108.401.24.964.658 2.114.794 2.95.35.824-.438.944-1.394.253-2.015-.278-.25-.641-.442-1.214-.642-1.195-.416-1.674-.667-2.039-1.066-.812-.89-.536-2.256.574-2.837.564-.295 1.13-.372 1.864-.253M5.219 18.152c-.273.094-.44.221-.555.421-.13.226-.157.382-.102.599.093.37.446.633 1.166.866.324.105.499.218.624.403.174.256.061.568-.263.725-.342.165-.847.094-1.248-.175l-.179-.12-.111.133a.626.626 0 0 0-.111.163c0 .042.313.246.5.324.641.269 1.401.156 1.697-.254.23-.317.261-.746.074-1.025-.127-.19-.487-.421-.858-.552-.704-.247-.893-.391-.893-.68a.53.53 0 0 1 .253-.427c.247-.133.694-.102 1.039.073l.204.103.092-.114a.442.442 0 0 0 .092-.163c0-.083-.338-.251-.625-.312-.358-.076-.55-.073-.796.012M7.2 19.86v1.78h.393l.014-.697c.012-.633.021-.708.097-.81.284-.384.84-.398 1.084-.027.06.092.075.225.092.812l.02.702h.4l-.001-.68c0-.622-.008-.697-.092-.88-.176-.385-.459-.58-.885-.611-.233-.016-.305-.004-.497.084l-.225.103V18.08h-.4v1.78m3.3-.425c-.504.133-.857.564-.859 1.05-.002.603.416 1.057 1.018 1.105.364.029.624-.068.887-.331.424-.424.437-1.012.034-1.492-.209-.248-.757-.416-1.08-.332m1.758.015c-.01.028-.014.788-.008 1.69l.01 1.64h.36l.011-.693c.006-.381.024-.686.04-.678.346.18.446.209.709.209 1.182 0 1.541-1.545.484-2.085a1.104 1.104 0 0 0-.984.015l-.24.118v-.133c0-.131-.003-.133-.181-.133-.108 0-.189.02-.201.05m3.349.024c-.402.143-.727.59-.727 1 0 .406.258.831.618 1.016.362.186 1.075.12 1.35-.125l.126-.113-.09-.146a.739.739 0 0 0-.105-.146c-.009 0-.081.045-.162.099-.45.306-1.043.201-1.258-.221a1.24 1.24 0 0 1-.079-.176c0-.012.377-.022.838-.022.954 0 .93.009.877-.327-.102-.647-.778-1.056-1.388-.839m2.586-.02c-.514.144-.868.732-.752 1.25.09.403.363.718.73.84a1.52 1.52 0 0 0 1.049-.084c.134-.067.246-.151.253-.19.007-.038-.026-.124-.073-.19l-.086-.121-.114.081c-.381.272-.859.258-1.164-.033a.707.707 0 0 1-.179-.257l-.026-.11h.842c.947 0 .921.009.864-.308-.066-.358-.331-.707-.635-.834a1.218 1.218 0 0 0-.709-.044m-7.115.425a.7.7 0 0 1 .023 1.247.786.786 0 0 1-.666.025c-.36-.155-.508-.651-.301-1.005a.726.726 0 0 1 .944-.267m2.553-.017c.299.125.453.348.455.66.007.83-1.193.989-1.409.186-.152-.563.419-1.07.954-.846m2.581-.008c.147.061.402.331.367.388-.036.058-1.259.049-1.259-.008 0-.086.21-.322.335-.377a.775.775 0 0 1 .557-.003m2.591.028c.139.07.316.277.317.368 0 .04-1.23.039-1.255-.002-.011-.017.017-.09.063-.161.17-.27.567-.363.875-.205" fill-rule="evenodd"/></svg>