<svg viewBox="0 0 24 24" xmlns="http://www.w3.org/2000/svg"><path d="M5.02 3.742c-.198.102-3.614 3.538-3.641 3.664a.34.34 0 0 0 .251.392c.216.06 16.888.058 17.178-.002.21-.044.226-.057 2.003-1.83.986-.982 1.802-1.825 1.814-1.873.03-.116-.013-.238-.116-.334-.083-.078-.189-.079-8.727-.079-7.699 0-8.655.007-8.762.062M1.508 9.96a.338.338 0 0 0-.093.427c.105.199 3.468 3.523 3.634 3.591.132.055 1.086.062 8.744.062 8.553 0 8.597 0 8.699-.08a.338.338 0 0 0 .093-.427c-.032-.062-.839-.89-1.792-1.839-1.468-1.463-1.757-1.733-1.893-1.77-.113-.031-2.684-.044-8.725-.044-8.521 0-8.565 0-8.667.08m3.512 6.297c-.066.03-.916.854-1.89 1.83-1.301 1.305-1.77 1.799-1.77 1.867 0 .109.069.247.157.315.049.038 1.972.049 8.694.05 7.302.001 8.651-.008 8.76-.055.198-.086 3.669-3.583 3.669-3.697 0-.121-.101-.311-.182-.342-.035-.014-3.947-.024-8.691-.023-7.181.001-8.647.01-8.747.055" fill-rule="evenodd"/></svg>