<svg viewBox="0 0 24 24" xmlns="http://www.w3.org/2000/svg"><path d="M13.78 7.284c-.314.046-.928.222-1.08.31a.502.502 0 0 0-.169.168c-.039.076-.05 1.056-.05 4.369-.001 4.662-.01 4.486.226 4.584.089.037 1.045.045 4.075.035 4.43-.015 4.084.008 4.737-.315a2.492 2.492 0 0 0 1.135-1.159c.19-.395.306-.847.306-1.196 0-.261-.104-.764-.21-1.02-.329-.791-1.087-1.427-1.913-1.606-.407-.088-1.122-.088-1.352-.001a1.125 1.125 0 0 1-.221.067c-.027 0-.068-.137-.098-.33-.303-1.946-1.901-3.545-3.884-3.885-.4-.069-1.1-.079-1.502-.021m-2.037.699a.343.343 0 0 0-.081.15c-.011.048-.045 1.464-.077 3.147-.054 2.815-.053 3.147.008 4.154l.067 1.093.116.1c.129.111.269.102.398-.024.065-.064.083-.219.148-1.248.073-1.139.073-1.269.005-4.241-.055-2.415-.081-3.079-.123-3.13-.071-.085-.376-.086-.461-.001m-.871.479a.244.244 0 0 0-.129.188c-.011.072-.04 1.363-.064 2.87-.042 2.563-.02 4.221.065 4.913.037.296.256.417.46.252.088-.072.095-.115.146-.95.063-1.034.062-2.339-.002-5.108L11.3 8.593l-.112-.096c-.129-.112-.168-.116-.316-.035m-2.733.634c-.072.052-.08.188-.145 2.584-.065 2.4-.065 2.588.001 3.703.061 1.025.079 1.184.143 1.255a.261.261 0 0 0 .162.082c.195 0 .21-.065.295-1.329.079-1.182.079-1.199.002-3.677-.084-2.674-.084-2.674-.29-2.674a.33.33 0 0 0-.168.056m.902.095c-.088.071-.089.085-.158 2.547-.068 2.38-.068 2.521.002 3.659.068 1.116.077 1.187.158 1.253.109.089.166.088.28-.004.088-.071.094-.117.166-1.25.073-1.155.073-1.22-.005-3.65-.07-2.216-.086-2.482-.148-2.55-.086-.095-.182-.097-.295-.005m-1.75.05a.204.204 0 0 0-.11.127c-.013.051-.057 1.161-.099 2.467-.075 2.358-.075 2.384.004 3.56.084 1.261.098 1.325.295 1.325a.205.205 0 0 0 .139-.06c.031-.038.084-.489.143-1.237l.094-1.177-.09-2.441c-.084-2.246-.097-2.448-.165-2.523-.083-.091-.085-.092-.211-.041m2.621.08c-.038.023-.078.099-.089.17a94.688 94.688 0 0 0-.063 2.429c-.039 2.007-.036 2.448.021 3.459.037.638.082 1.19.102 1.228.078.145.358.14.437-.008.024-.044.07-.593.103-1.221.054-1.019.054-1.375-.001-3.329a339.65 339.65 0 0 1-.062-2.357c0-.269-.259-.483-.448-.371m-3.564.407c-.046.073-.074.56-.136 2.312-.078 2.175-.078 2.243-.006 3.38.041.638.092 1.2.113 1.25.047.107.205.121.284.026.036-.043.082-.436.143-1.21l.09-1.146-.083-2.24c-.052-1.391-.101-2.278-.129-2.34-.06-.135-.203-.151-.276-.032m-.806.806c-.067.049-.083.218-.172 1.85l-.099 1.796.086 1.216c.048.669.104 1.249.126 1.29.054.101.183.093.251-.016.037-.061.084-.479.145-1.31l.091-1.22-.097-1.793c-.078-1.443-.109-1.8-.155-1.829-.077-.049-.09-.047-.176.016m-1.779 1.223c-.044.028-.078.319-.148 1.25l-.092 1.213.098 1.2c.08.977.11 1.209.163 1.247.073.054.16.032.191-.048.011-.029.07-.571.13-1.202l.109-1.148-.109-1.224c-.089-.997-.122-1.234-.175-1.275-.077-.059-.092-.06-.167-.013m-.855.096c-.046.036-.08.312-.152 1.216l-.092 1.168.094 1.092c.052.6.109 1.131.127 1.181.035.094.132.12.177.047.014-.023.079-.55.144-1.17l.119-1.127-.103-1.06a60.196 60.196 0 0 0-.126-1.207c-.024-.161-.095-.214-.188-.14m1.738.119c-.027.033-.089.536-.148 1.192L4.396 14.3l.096 1.194c.072.902.109 1.202.152 1.229.189.12.213.024.325-1.308l.105-1.235-.107-1.12c-.102-1.064-.112-1.121-.191-1.132-.046-.006-.104.013-.13.044m-2.589.273c-.016.025-.077.49-.136 1.032l-.107.986.108.971c.159 1.433.243 1.425.413-.039l.113-.975-.125-.976c-.069-.537-.135-.992-.147-1.01-.029-.048-.086-.042-.119.011m-.833.748a7.468 7.468 0 0 0-.099.65c-.078.609-.078.624-.004 1.197.042.319.077.603.078.63.002.077.153.059.176-.02.011-.038.06-.327.108-.64l.087-.57-.087-.57a13.846 13.846 0 0 0-.108-.64c-.021-.072-.115-.095-.151-.037" fill-rule="evenodd"/></svg>