<svg viewBox="0 0 24 24" xmlns="http://www.w3.org/2000/svg"><path d="M10.72 2.783a9.561 9.561 0 0 0-4.56 1.969A9.334 9.334 0 0 0 3.215 8.9c-.228.652-.421 1.495-.476 2.08l-.026.28 2.49 1.027 2.49 1.026.206-.116a2.36 2.36 0 0 1 1.057-.31l.375-.027 1.115-1.612c1.084-1.57 1.114-1.618 1.114-1.807 0-.449.185-1.094.449-1.563A3.384 3.384 0 0 1 13.5 6.483c.602-.3.8-.342 1.58-.341.612.002.685.01 1 .113.964.317 1.687.945 2.118 1.839.232.483.317.808.348 1.335a3.448 3.448 0 0 1-.586 2.125c-.611.913-1.549 1.457-2.682 1.556l-.342.03-1.568 1.119-1.568 1.12v.224c0 .867-.621 1.83-1.44 2.232-.774.379-1.558.378-2.358-.004-.608-.29-1.149-.934-1.339-1.594l-.064-.223-1.764-.729c-.97-.402-1.771-.723-1.78-.713-.028.028.264.829.456 1.248a9.518 9.518 0 0 0 3.249 3.87c2.809 1.933 6.582 2.149 9.627.551a9.344 9.344 0 0 0 4.095-4.261 8.996 8.996 0 0 0 .891-3.98c-.001-2.451-.91-4.698-2.611-6.453-1.379-1.422-3.04-2.317-4.996-2.693-.485-.093-.663-.106-1.586-.117-.762-.01-1.152.002-1.46.046m3.746 4.56a2.434 2.434 0 0 0-1.045.598c-1.031 1.015-.899 2.726.273 3.554 1.025.725 2.377.539 3.183-.436.291-.353.524-.992.522-1.435a2.719 2.719 0 0 0-.259-1.058c-.278-.586-.945-1.112-1.572-1.242a3.188 3.188 0 0 0-1.102.019m1.036.559c.492.128.897.462 1.129.932.146.296.149.311.149.764 0 .437-.007.476-.129.734a1.8 1.8 0 0 1-1.181.971c-.774.206-1.619-.202-1.993-.962-.132-.269-.137-.296-.137-.742 0-.454.003-.468.15-.767a1.743 1.743 0 0 1 2.012-.93M8.71 13.569c-.105.022-.19.051-.189.065 0 .014.175.096.39.183 1.085.436 1.339.613 1.557 1.088.374.818-.109 1.783-1.001 2.001-.373.091-.616.041-1.408-.288-.346-.144-.635-.256-.643-.248-.007.008.047.105.122.216.416.618 1.223.975 1.933.855a2.017 2.017 0 0 0 1.629-1.506c.266-1.024-.44-2.147-1.492-2.37a2.51 2.51 0 0 0-.898.004" fill-rule="evenodd"/></svg>