<svg viewBox="0 0 24 24" xmlns="http://www.w3.org/2000/svg"><path d="m2.584 4.458-.544.578V6.305l.46.428.461.427H6.16v.76H3.48v-.44H2.04v1.56h1.021l.175-.22c.097-.121.189-.22.206-.22.016 0 .12.099.231.22l.201.22 1.773-.002 1.773-.002.508-.548.508-.548.002-.586.002-.586-.53-.503-.53-.503-1.55-.001-1.55-.001v-.72h2.4v.44h1.44v-1.6l-.51.002-.51.002-.178.218c-.098.12-.192.218-.208.218-.016 0-.116-.099-.221-.219l-.193-.22H4.714L3.127 3.88l-.543.578M8.8 4.54v.66h.56v2.701l.571.57.57.569h3.08l.57-.571.569-.57V5.2h.48V3.88h-2.48V5.2h.4v2.52h-1.68V5.2h.48V3.88H8.8v.66m6.787-.633c-.015.014-.027.311-.027.66V5.2h.601l-.01 1.25-.011 1.25-.291.012-.291.012.011.648.011.648h3.16l.011-.65.011-.65H18.2V7h2.939l.41-.409.411-.41V4.769l-.462-.444-.463-.445h-2.711c-1.491 0-2.723.012-2.737.027M19.92 5.64v.44H18.2V5.2h1.72v.44M8.8 10.06v.66h.56v2.52H8.8V14.561l1.51-.011 1.51-.01.011-.65.011-.65H11.4v-.84h1.16v1.582l.291.289.291.289h2.018V13.4h-.437l-.012-.469-.011-.469-.36-.275a3.7 3.7 0 0 1-.368-.301c-.004-.014.158-.144.36-.289l.368-.262.009-.518.009-.517-.437-.45-.437-.45H8.8v.66m7.449.003-.689.664v2.479l.69.675.69.676h1.92l1.92.001.59-.563.59-.563V12.4h-1.6v.84h-2.68v-2.52h2.68v.84h1.6V9.4h-.61l-.61.001-.193.242-.193.241-.185-.242-.186-.242h-3.046l-.688.663M2.04 10.1v.66h.56v2.48h-.56v1.32h5.794l.283-.31.283-.31v-1.78H6.8v1.08H4.64v-.8h.96v-.92h-.96v-.76h2.158l.011.53.011.53.34.013c.187.007.543.001.79-.014l.45-.027v-1.758l-.267-.297-.266-.297H2.04v.66m10.52 1.06v.44H11.4v-.88h1.16v.44M2.04 15.62v.66h.56v2.48h-.56v1.32h5.833l.263-.295.264-.294V17.72H6.8v1.08H4.64V18h.96v-.96h-.96v-.76h2.158l.011.53.011.53.79.011.79.011v-1.79l-.27-.305-.27-.306H4.95l-2.91-.001v.66m6.76 0v.66h.56v2.48H8.8v1.32h5.834l.283-.31.283-.31v-2.34h-1.6v1.64h-2.2v-2.48h.56v-1.32H8.8v.66m6.769-.01.011.65.27.012.27.012v2.472l-.27.012-.27.012-.011.65-.011.65h5.828l.287-.296.287-.295V17.12h-1.6v1.64h-2.2v-2.48h.56v-1.32h-3.162l.011.65" fill-rule="evenodd"/></svg>