<svg viewBox="0 0 24 24" xmlns="http://www.w3.org/2000/svg"><path d="M4.84 4.022c-.721.155-1.435.716-1.752 1.378-.303.633-.288.284-.288 6.6 0 6.315-.015 5.966.288 6.6.133.28.223.401.507.681.388.383.68.55 1.188.68.303.077.461.079 7.217.079 6.756 0 6.914-.002 7.217-.079.508-.13.8-.297 1.188-.68.284-.28.374-.401.507-.681.303-.634.288-.285.288-6.6 0-6.316.015-5.967-.288-6.6-.321-.67-1.034-1.226-1.772-1.38-.409-.086-13.901-.083-14.3.002m14.142 1.745c.181.099.369.306.427.47.075.21.075 11.316 0 11.526-.065.184-.265.389-.469.482-.153.07-.46.073-6.942.074l-6.782.001-.204-.101a.83.83 0 0 1-.449-.579c-.057-.249-.057-11.032 0-11.28a.862.862 0 0 1 .583-.639c.063-.019 3.174-.032 6.914-.028 6.282.006 6.809.012 6.922.074M7.617 8.356a.975.975 0 0 0-.291.229.803.803 0 0 0-.107.917c.085.17.289.357 1.46 1.331.748.623 1.361 1.148 1.361 1.167 0 .018-.621.551-1.379 1.182-1.16.966-1.394 1.179-1.469 1.334-.351.724.412 1.494 1.136 1.146.073-.034.942-.738 1.932-1.563 1.977-1.647 2.02-1.691 2.02-2.099 0-.405-.042-.448-2.043-2.112-1.002-.833-1.883-1.536-1.956-1.562a.996.996 0 0 0-.664.03m4.306 6.63a.826.826 0 0 0-.188 1.365c.097.09.246.182.331.206.219.061 3.693.059 3.897-.003.739-.221.802-1.272.097-1.598-.148-.069-.296-.074-2.042-.075l-1.882-.001-.213.106" fill-rule="evenodd"/></svg>