<svg viewBox="0 0 24 24" xmlns="http://www.w3.org/2000/svg"><path d="M5.035 2.69c-.315.615-3.955 8.301-3.955 8.351 0 .054 10.723 10.37 10.864 10.451a.123.123 0 0 0 .112 0c.141-.081 10.864-10.396 10.864-10.45 0-.035-.904-1.962-2.01-4.282L18.9 2.54l-6.889-.01-6.889-.01-.087.17M17.2 6.36v1.28h-3.84v1.636l.13.02c.072.011.319.031.55.044.583.033 1.407.125 2 .223 1.916.319 2.938.83 2.72 1.358-.195.471-1.397.904-3.2 1.154-.516.072-.802.1-1.91.189l-.29.023V17.6h-2.72v-2.66c0-2.101-.011-2.66-.05-2.66-.206-.001-1.287-.097-1.822-.162-1.968-.239-3.321-.698-3.528-1.197-.218-.528.804-1.039 2.72-1.358.593-.098 1.417-.19 2-.223.231-.013.478-.033.55-.044l.13-.02V7.64h-3.8V5.08H17.2v1.28m-7.02 3.148c-1.77.117-3.191.372-3.842.691-.354.172-.438.245-.48.413-.024.098-.004.135.152.285.588.563 2.995.942 5.991.943 2.983 0 5.402-.381 5.989-.943.156-.15.176-.187.152-.285-.042-.169-.13-.244-.481-.413-.692-.334-1.866-.541-3.971-.7l-.33-.024V11.348l-.426.026c-.543.033-1.189.033-1.808 0l-.486-.026V9.48l-.13.007-.33.021" fill-rule="evenodd"/></svg>