<svg viewBox="0 0 24 24" xmlns="http://www.w3.org/2000/svg"><path d="M8.28 2.661c-.759.161-1.439.305-1.512.318l-.132.025.012.228.012.228.22.024c.24.026.419.103.534.229.158.175.182.348.184 1.316l.002.93-1.25.01-1.25.011-.011.57-.011.57h2.519l.012 3.25c.013 3.216.014 3.253.102 3.57.147.531.378.95.704 1.279.336.34.668.535 1.165.684.317.096.429.109.94.111.534.002.605-.006.9-.109.175-.061.425-.175.554-.254.304-.184.384-.347.385-.784.001-.173-.013-.308-.029-.3a18.55 18.55 0 0 0-.295.142c-1.093.536-1.947.181-2.177-.903-.046-.216-.057-.87-.057-3.476L9.8 7.12h6.089l-2.195 2.224-2.194 2.225-.011.526-.011.526.451.091c1.514.308 2.896 1.056 3.749 2.028.396.451.725 1.01.858 1.459.138.463.122 1.322-.036 1.941-.406 1.591-1.61 2.458-3.415 2.459-1.224.002-2.165-.276-2.466-.728a1.338 1.338 0 0 1-.099-.164c0-.008.089-.07.197-.138.374-.232.555-.62.512-1.096-.062-.683-.568-1.113-1.309-1.113-.587 0-1.001.248-1.248.749-.118.242-.13.299-.129.628.001.564.158 1.017.515 1.492.473.629 1.339 1.082 2.481 1.296.557.105 1.964.148 2.608.079 2.329-.246 3.896-1.372 4.49-3.224.206-.64.256-.951.255-1.58 0-.493-.015-.637-.102-.963-.377-1.419-1.326-2.569-2.951-3.576a14.437 14.437 0 0 0-1.749-.884c-.159-.062-.29-.122-.29-.135 0-.012 1.035-1.057 2.3-2.322l2.3-2.3v-.282c0-.166-.02-.302-.048-.33-.037-.037-1.046-.048-4.3-.048H9.8v-1.8c0-1.689-.004-1.8-.07-1.796-.039.002-.691.136-1.45.297" fill-rule="evenodd"/></svg>