<svg viewBox="0 0 24 24" xmlns="http://www.w3.org/2000/svg"><path d="M1.522 9.558a9.39 9.39 0 0 0-.096.65l-.006.132.4.012c.219.006.413.025.429.041.016.016-.078.65-.211 1.408-.347 1.992-.518 3.02-.518 3.116 0 .081.017.083.735.083.541 0 .746-.013.774-.05.032-.041.413-2.135.759-4.18l.07-.41h.426c.293 0 .439-.016.466-.05.022-.027.078-.275.126-.55.047-.275.096-.55.108-.61l.022-.11H1.611l-.089.518m3.882-.31c-.224 1.115-.974 5.627-.948 5.696.018.048.155.056.813.047l.791-.011.198-1.15.197-1.15h.337c.326 0 .337.003.315.086-.075.286-.357 2.11-.335 2.167.024.062.1.068.817.058l.791-.011.147-.84c.864-4.939.879-5.032.826-5.065-.029-.019-.398-.034-.82-.034l-.767-.001-.042.21c-.023.115-.096.534-.164.93a9.245 9.245 0 0 1-.16.81c-.034.081-.066.09-.317.09-.153 0-.289-.017-.302-.039-.013-.021.05-.464.14-.984.09-.52.152-.958.138-.972-.014-.014-.383-.031-.819-.037l-.793-.013-.043.213m4.559.002C9.826 9.93 9 14.792 9 14.918c0 .082.013.084.65.073l.649-.011.051-.28c.028-.154.159-.901.291-1.66a94.76 94.76 0 0 1 .253-1.42c.007-.022.026.086.041.24.027.265.402 2.796.449 3.03l.022.11h.672c.734 0 .735 0 .773-.24.017-.107.858-4.927.975-5.59l.023-.13h-1.323l-.043.21c-.023.115-.132.741-.242 1.39-.11.649-.211 1.243-.226 1.32l-.027.14-.03-.14a52.882 52.882 0 0 1-.201-1.505l-.171-1.365-.263-.025c-.145-.013-.5-.025-.79-.025h-.527l-.043.21m4.487-.16a.545.545 0 0 0-.061.19c-.019.119-.907 5.211-.975 5.59l-.023.13h2.529v-2.24h-.398c-.218 0-.407-.016-.419-.034-.016-.027.497-3.087.6-3.576l.023-.11h-.618c-.447 0-.629.014-.658.05m1.47 1.064v1.126h.424c.42 0 .424.001.402.09-.026.106-.626 3.527-.626 3.571 0 .06.497-.023.697-.116.423-.196.644-.541.805-1.259.199-.888.537-2.953.538-3.283 0-.483-.25-.904-.658-1.104-.199-.097-.267-.107-.898-.128l-.684-.023v1.126m2.605 1.716c-.271 1.557-.495 2.893-.498 2.97l-.007.14h1.56l.171-.96c.274-1.532.228-1.38.409-1.38.085 0 .204.019.263.041.106.041.108.046.084.301-.013.143-.081.602-.15 1.019-.108.646-.119.777-.077.879l.05.12h1.538l.025-.358c.014-.197.09-.736.169-1.199.175-1.025.164-1.157-.127-1.48l-.179-.199.152-.079c.353-.182.53-.486.635-1.088.126-.725.011-1.15-.373-1.381-.27-.162-.419-.176-1.928-.176h-1.226l-.491 2.83m2.351-1.644c.088.061.092.082.066.341-.035.352-.125.656-.224.755-.058.058-.133.078-.293.078h-.214l.099-.57c.054-.313.117-.592.139-.62.058-.071.316-.062.427.016" fill-rule="evenodd"/></svg>