<svg viewBox="0 0 24 24" xmlns="http://www.w3.org/2000/svg"><path d="M10.92 5.628A11.384 11.384 0 0 0 6 7.304l-.38.236-1.793.02-1.793.02.783.852c.431.468.783.862.783.875 0 .013-.116.146-.258.297a5.155 5.155 0 0 0-1.281 2.436c-.099.456-.121 1.262-.047 1.74a5.009 5.009 0 0 0 3.146 3.932c.618.243.984.306 1.8.307.682.001.773-.008 1.166-.11.837-.218 1.451-.53 2.041-1.035l.227-.194.791.86c.435.473.801.86.814.86.014 0 .38-.387.816-.861l.791-.861.201.18c.597.538 1.514.971 2.368 1.12a6.344 6.344 0 0 0 1.73 0 5.006 5.006 0 0 0 3.886-6.478 5.158 5.158 0 0 0-1.133-1.896 2.617 2.617 0 0 1-.258-.298c0-.014.352-.407.783-.875l.783-.851-1.793-.02-1.793-.02-.396-.25a11.169 11.169 0 0 0-4.649-1.63c-.469-.055-2.006-.075-2.415-.032m2.36 1.677c.784.102 1.703.336 2.269.579l.188.081-.368.158a5.591 5.591 0 0 0-2.745 2.519c-.221.416-.482 1.188-.546 1.618-.069.466-.083.476-.141.1a5.531 5.531 0 0 0-3.348-4.262l-.326-.134.184-.079c.261-.111.916-.318 1.293-.407a10.046 10.046 0 0 1 3.54-.173M7.86 9.74c.371.1.942.394 1.266.652.498.396.913 1.02 1.121 1.688.081.26.093.383.093.92 0 .699-.047.939-.282 1.436-.646 1.367-2.118 2.158-3.578 1.921-.735-.119-1.297-.414-1.86-.977-.327-.327-.434-.466-.586-.76-.289-.559-.36-.83-.384-1.466-.016-.427-.005-.613.049-.86.3-1.36 1.346-2.35 2.781-2.629.204-.04 1.143.011 1.38.075m9.843-.024a3.328 3.328 0 0 1 2.322 1.824c.239.496.301.756.325 1.351.016.43.006.57-.067.884-.396 1.717-2.082 2.861-3.803 2.582-.735-.119-1.297-.414-1.86-.977-.327-.327-.434-.466-.586-.76-.293-.565-.361-.829-.383-1.48-.017-.477-.007-.613.065-.915a3.404 3.404 0 0 1 2.234-2.422 3.481 3.481 0 0 1 1.753-.087M6.58 11.294c-.81.211-1.34.894-1.34 1.727 0 1.09.984 1.93 2.04 1.742.873-.156 1.48-.869 1.48-1.738 0-.76-.441-1.394-1.161-1.669-.271-.104-.748-.133-1.019-.062m10 0c-.705.184-1.237.769-1.334 1.466-.171 1.226.924 2.251 2.121 1.984a1.757 1.757 0 0 0 1.227-.982c.121-.254.145-.348.159-.647.038-.806-.397-1.47-1.154-1.759-.271-.104-.748-.133-1.019-.062" fill-rule="evenodd"/></svg>