<svg viewBox="0 0 24 24" xmlns="http://www.w3.org/2000/svg"><path d="M6.52 2.8c-1.858.022-1.951.027-2.203.111-.73.244-1.272.847-1.465 1.629-.064.26-.069.797-.069 7.46 0 7.976-.018 7.417.264 8 .17.35.603.783.953.953.582.281.025.263 8 .263s7.418.018 8-.263c.358-.174.785-.604.956-.963.276-.581.26-.076.26-8.01 0-6.631-.005-7.181-.069-7.44-.191-.782-.738-1.389-1.464-1.627-.252-.083-.359-.088-2.483-.116A567.975 567.975 0 0 0 6.52 2.8m4.536 5.381c.878 1.177 1.608 2.139 1.622 2.139.015 0 .917-.963 2.004-2.14l1.978-2.139.555-.001h.554l-.152.17c-.084.094-1.111 1.205-2.282 2.47-1.171 1.265-2.132 2.314-2.135 2.332-.003.017 1.135 1.555 2.527 3.417 1.393 1.862 2.557 3.418 2.585 3.458.051.07-.017.073-1.841.073h-1.895l-1.748-2.34-1.749-2.339-.789.85c-.435.468-1.41 1.521-2.167 2.34L6.745 17.96H5.623l.183-.19c.719-.745 4.756-5.145 4.746-5.173A393.732 393.732 0 0 0 8.14 9.354a656.15 656.15 0 0 1-2.432-3.261c-.027-.044.291-.053 1.86-.052l1.892.001 1.596 2.139M7.395 6.99c.044.06 1.77 2.369 3.836 5.13l3.756 5.02.87.011c.479.006.864-.004.857-.023a1233.44 1233.44 0 0 0-3.834-5.141L9.06 6.88H7.315l.08.11" fill-rule="evenodd"/></svg>