<svg viewBox="0 0 24 24" xmlns="http://www.w3.org/2000/svg"><path d="M2.08 2.663c0 .013 1.73 2.336 3.845 5.163l3.846 5.139-.12.128c-.817.869-7.611 8.23-7.611 8.246 0 .012.385.021.856.021h.857L7.14 17.7c1.864-2.013 3.4-3.659 3.414-3.659.014.001 1.256 1.648 2.76 3.66l2.734 3.659H21.999l-.573-.77a3306.62 3306.62 0 0 0-3.806-5.09 4020.704 4020.704 0 0 1-3.502-4.684l-.269-.363 2.422-2.617c1.332-1.439 2.959-3.197 3.617-3.906l1.195-1.29h-1.752L16.2 6.023c-1.722 1.86-3.144 3.367-3.161 3.35-.017-.018-1.157-1.54-2.534-3.383L8.002 2.64H5.041c-1.629 0-2.961.01-2.961.023m11.294 9.314c3.314 4.431 6.026 8.067 6.026 8.08 0 .013-.607.023-1.35.023l-1.35-.001-5.96-7.966a2863.564 2863.564 0 0 1-6.034-8.08l-.074-.113h2.716l6.026 8.057" fill-rule="evenodd"/></svg>