<svg viewBox="0 0 24 24" xmlns="http://www.w3.org/2000/svg"><path d="M3.882 2.69c.375.447 5.005 6.109 5.61 6.86.494.613.588.75.588.863 0 .167-.118.283-.395.389-.382.145-.684.086-.917-.178-.147-.169-.61-.867-1.726-2.604s-1.111-1.718.141.524C8.068 10.13 8.4 10.76 8.4 10.853c0 .03-.058.132-.13.227a24.21 24.21 0 0 0-.221.296c-.121.165-.268.644-.326 1.064-.128.927-.357 1.393-1.219 2.48-.5.631-.684.976-.748 1.398-.101.67.066 1.276.588 2.138.188.31.352.616.365.679.022.108.031.113.187.092.51-.071 1.337-.386 1.766-.673.543-.364.715-.651.692-1.156-.019-.41-.121-.558-.675-.97-.527-.393-.642-.505-.785-.762-.102-.184-.114-.244-.114-.566.001-.332.013-.386.155-.7.457-1.007.516-1.199.585-1.9.071-.71.182-.843.799-.955.506-.093.764-.199 1.001-.413.251-.225.354-.419.386-.73.024-.229.019-.245-.107-.39-.245-.282-3.527-3.9-5.21-5.742-1.564-1.712-2.004-2.174-1.507-1.58m6.198 3.986c.033.019.146.046.25.062.267.038.722.199.986.347.532.3 1.063.815 1.725 1.675 1.08 1.403 1.438 1.712 2.311 1.997.435.143.961.223 1.848.282 1.25.084 1.587.204 1.974.706.191.247.219.213.125-.151-.129-.499-.576-1.304-.893-1.608l-.115-.111-.048.193c-.116.468-.398.892-.593.892-.138 0-.248-.07-.293-.187-.03-.08-.016-.158.065-.361.162-.406.143-1.17-.034-1.335-.136-.126-.828-.465-1.214-.594a6.052 6.052 0 0 0-.756-.187c-.48-.08-1.391-.089-1.833-.019l-.315.05-.381-.387c-.773-.786-1.417-1.15-2.222-1.258-.382-.051-.673-.054-.587-.006m7.729.46c-.08.177-.131.418-.165.784-.018.199-.045.375-.06.389-.031.031-.167-.008-.724-.204a3.599 3.599 0 0 0-.46-.142c-.033 0 .156.111.419.246.555.286.866.555.938.811.067.236.098 1.049.049 1.259-.059.256-.028.244.073-.026.057-.151.1-.391.122-.682.035-.473.05-.531.137-.531.068 0 .498.316.756.556.326.303.144.058-.353-.476-.257-.275-.51-.573-.563-.662-.131-.221-.21-.834-.15-1.163.049-.265.045-.298-.019-.159m-7.839.468c.016.388.044.57.129.836.311.971.962 1.708 1.634 1.849.197.041.236.039.291-.016.058-.058.044-.095-.155-.426-.218-.361-.249-.451-.448-1.287-.135-.564-.295-.881-.544-1.079a2.008 2.008 0 0 0-.793-.351l-.135-.022.021.496m4.471 3.526c.002.801.346 1.389 1.114 1.902.419.28.876.506 1.825.9.947.393 1.34.583 1.702.819.522.343.797.726.895 1.245l.05.264.084-.136c.046-.075.134-.291.196-.48.103-.313.113-.395.111-.904-.002-.497-.014-.596-.109-.881-.3-.901-1.017-1.567-2.057-1.911-.3-.099-.762-.197-1.512-.322-1.25-.208-1.634-.317-2-.568a2.92 2.92 0 0 0-.28-.178c-.011 0-.02.112-.019.25m-3.501.61a.862.862 0 0 0-.46.751c0 .377.149.509.574.509.391 0 .744-.124.926-.325.131-.146.147-.184.129-.319a.797.797 0 0 0-.349-.536c-.204-.141-.63-.183-.82-.08m.675.143c.304.239-.148.595-.523.411-.201-.098-.232-.281-.069-.409.147-.116.446-.116.592-.002m3.987 1.757c-.001.011.024.104.056.207.316 1.042-.158 1.955-1.2 2.314a9.372 9.372 0 0 1-.912.199c-.925.165-1.21.248-1.675.486-.217.112-.388.21-.38.218.008.008.138-.021.289-.064.427-.122.66-.156 1.5-.221 1.129-.087 1.52-.178 1.948-.454.769-.498 1.057-1.452.678-2.247-.091-.191-.301-.493-.304-.438m.873.487c-.028.051-.058.265-.067.475-.031.706.136 1.112.96 2.343.842 1.258 1.016 1.675.983 2.353a1.686 1.686 0 0 1-.139.662c-.068.165-.117.306-.11.314.025.027.458-.24.673-.415.425-.346.815-.992.966-1.599.094-.381.097-1.076.007-1.42a2.458 2.458 0 0 0-.664-1.16c-.355-.357-.725-.608-1.67-1.132-.377-.21-.731-.411-.787-.447-.097-.064-.103-.063-.152.026m-9.61 2.304c.178.144.212.299.112.509-.085.181-.261.253-.397.164-.114-.075-.119-.105-.051-.295.043-.119.041-.143-.02-.187-.08-.059-.092-.206-.019-.236.108-.043.294-.021.375.045m4.695 1.228c-.617.124-1.302.425-1.942.854a4.094 4.094 0 0 0-.494.381l-.135.142.095.019c.053.011.168.031.256.045.32.049.684.153.88.25.267.134.441.273.94.75.443.424.591.517.931.588.464.097.962-.203 1.068-.643.07-.292.025-.535-.131-.713-.377-.429-1.101-.292-1.107.21 0 .07.034.161.081.21.096.104.158.12.069.018-.102-.116-.12-.237-.053-.367.077-.149.174-.203.361-.203.544 0 .773.569.39.971-.144.151-.356.203-.588.145-.504-.127-.779-.597-.599-1.027.231-.554.959-.679 1.591-.275.32.205.489.431.794 1.066.422.879.439.909.645 1.141.129.145.279.259.459.347.24.118.304.132.611.132.314 0 .367-.012.643-.148.165-.082.333-.186.374-.23l.073-.082-.236.083a2.5 2.5 0 0 1-.539.105c-.775.057-1.111-.303-1.278-1.368-.19-1.214-.448-1.71-1.086-2.09-.554-.331-1.364-.452-2.073-.311" fill-rule="evenodd"/></svg>