<svg viewBox="0 0 24 24" xmlns="http://www.w3.org/2000/svg"><path d="M11.717 2.765c-.246.142-.255.177-.277 1.035l-.02.78-1.342.02c-1.485.022-1.48.021-1.627.29-.064.117-.072.284-.083 1.62-.007.82-.02 1.49-.03 1.49-.009 0-.26-.121-.558-.269l-.54-.27V5.867c0-1.382-.009-1.613-.064-1.73-.09-.189-.28-.297-.524-.297-.167 0-.223.021-.348.13a.548.548 0 0 0-.186.29c-.02.088-.037.848-.037 1.689l-.001 1.53-1.049.53c-.738.374-1.072.564-1.13.644-.08.112-.081.151-.092 5.83l-.01 5.717h-.365c-.296 0-.389.015-.495.081-.302.186-.342.614-.083.874l.145.145 8.95.01c8.874.01 8.95.009 9.079-.07a.565.565 0 0 0 .226-.743c-.108-.228-.269-.297-.69-.297h-.365l-.01-5.13c-.011-5.031-.013-5.133-.09-5.261-.156-.258-.295-.289-1.294-.289h-.887V6.978c0-1.753-.014-2.598-.045-2.722a.527.527 0 0 0-.534-.416c-.248 0-.423.1-.514.291-.058.123-.067.31-.067 1.445V6.88h-1.114l-.013-.93c-.011-.798-.023-.948-.084-1.06-.147-.269-.142-.268-1.627-.29l-1.342-.02-.02-.787c-.02-.771-.022-.789-.12-.894-.216-.231-.474-.279-.723-.134m2.754 3.525-.011.57-2.47.01-2.47.011V5.72h4.962l-.011.57m.009 2.29v.58H9.52V8h4.96v.58m2.28.521c0 1.222.013 1.297.245 1.463.132.094.156.096 1.085.109l.95.012V20.2h-2.636l-.012-1.89c-.011-1.778-.017-1.897-.088-2.016a.68.68 0 0 0-.519-.294h-.145V8h1.12v1.101m-8.4 3.549V16h-.142a.658.658 0 0 0-.518.286c-.077.128-.081.217-.092 2.024l-.012 1.89H4.96V9.299l.85-.424.85-.425.85.425.85.424v3.351m6.12-1.79v.58H9.52v-1.16h4.96v.58m0 2.28v.58H9.52v-1.16h4.96v.58m0 2.3V16H9.52v-1.12h4.96v.56m.76 3.24v1.52H8.76v-3.04h6.48v1.52" fill-rule="evenodd"/></svg>