<svg viewBox="0 0 24 24" xmlns="http://www.w3.org/2000/svg"><path d="M2.674 12.012 1.288 14.42l2.783.01c1.53.006 2.788.004 2.796-.004.019-.019-2.757-4.827-2.786-4.824-.011.001-.645 1.085-1.407 2.41m4.26-1.994c.013.034.477.846 1.03 1.805.815 1.41 1.017 1.733 1.057 1.69a68.27 68.27 0 0 0 1.039-1.773l1.007-1.75c.01-.017-.16-.03-.378-.03h-.395l-.606 1.051a47.238 47.238 0 0 1-.659 1.123c-.047.065-.119-.043-.694-1.041L7.693 9.98l-.391-.012c-.339-.009-.389-.003-.368.05M22.04 11.7v1.74h.68V9.96h-.68v1.74m-10.549-.844c-.24.078-.505.242-.629.389a1.368 1.368 0 0 0 .064 1.841c.542.542 1.621.567 2.192.051l.165-.149-.286-.17-.286-.169-.14.095c-.146.098-.37.175-.514.176a.962.962 0 0 1-.642-.29l-.153-.17 1.059-.02 1.059-.02v-.34c0-.398-.092-.632-.351-.891-.255-.255-.54-.364-.989-.377-.243-.007-.441.009-.549.044m5.201.016c-.578.207-.901.66-.904 1.268-.002.388.095.653.334.914.435.476 1.199.601 1.818.296.173-.085.5-.379.5-.45 0-.036-.478-.34-.534-.34a.932.932 0 0 0-.154.136c-.323.323-.887.271-1.167-.107-.131-.177-.139-.597-.016-.827.122-.228.361-.362.645-.362.237 0 .51.119.604.263l.066.1.278-.152c.152-.083.278-.173.278-.201 0-.09-.304-.356-.537-.47-.307-.15-.89-.183-1.211-.068m2.959-.016c-.24.078-.505.242-.629.389a1.368 1.368 0 0 0 .064 1.841c.542.542 1.621.567 2.192.051l.165-.149-.286-.17-.286-.169-.14.095c-.146.098-.37.175-.514.176a.962.962 0 0 1-.642-.29l-.153-.17 1.059-.02 1.059-.02v-.34c0-.398-.092-.632-.351-.891-.255-.255-.54-.364-.989-.377-.243-.007-.441.009-.549.044M13.88 12.16v1.28h.68l.001-.65c.001-.546.013-.676.075-.813a.714.714 0 0 1 .749-.407l.175.02v-.721l-.226.023c-.267.028-.549.187-.683.385l-.091.135v-.532h-.68v1.28m-1.634-.719c.139.039.434.31.434.399 0 .025-.261.04-.7.04-.385 0-.7-.013-.7-.03.001-.094.175-.289.326-.364a.89.89 0 0 1 .64-.045m8.206.013c.128.054.388.313.388.387 0 .024-.277.039-.7.039-.385 0-.7-.013-.7-.03s.034-.086.076-.154c.153-.251.623-.373.936-.242" fill-rule="evenodd"/></svg>