<svg viewBox="0 0 24 24" xmlns="http://www.w3.org/2000/svg"><path d="M8.34 3.166c-3.112.27-5.772 2.116-6.678 4.634-.227.632-.307 1.056-.33 1.76-.03.932.104 1.645.465 2.479.424.976 1.259 2.004 2.193 2.699.203.151.37.286.37.299 0 .014-.162.51-.36 1.103-.198.594-.356 1.092-.35 1.108.005.016.586-.279 1.29-.655l1.28-.684.16.046c.868.251 1.87.405 2.633.405.437 0 .473-.006.448-.07-.113-.285-.226-.966-.246-1.49-.028-.705.04-1.216.242-1.82.86-2.57 3.537-4.295 6.696-4.316l.654-.004-.024-.148c-.033-.211-.244-.827-.399-1.165-.435-.953-1.302-1.98-2.222-2.631-1.326-.937-2.712-1.427-4.402-1.555a7.009 7.009 0 0 0-1.42.005M6.875 6.438c.236.12.378.256.499.477.294.541.09 1.184-.468 1.476-.169.088-.259.107-.506.108-.255.001-.327-.015-.485-.107-.213-.126-.421-.349-.5-.538-.09-.216-.07-.679.04-.916.113-.244.376-.479.624-.559.229-.074.589-.047.796.059m5.378.007c.217.109.412.295.52.495.122.228.122.732-.001.963-.202.381-.677.642-1.102.605a1.062 1.062 0 0 1-.72-.387c-.327-.382-.314-1.027.029-1.432.288-.342.86-.451 1.274-.244m2.887 2.697c-2.379.322-4.371 1.722-5.157 3.627a7.016 7.016 0 0 0-.252.78c-.092.37-.107.516-.108 1.031-.001.432.019.693.071.932.226 1.042.69 1.876 1.484 2.67 1.164 1.164 2.751 1.84 4.602 1.961.664.044 1.906-.109 2.635-.324.192-.057.2-.055.5.078.168.074.647.325 1.064.556.418.232.764.417.77.411.011-.011-.412-1.377-.525-1.693l-.06-.17.148-.109c1.163-.861 1.908-1.9 2.237-3.119.098-.362.106-.455.106-1.173 0-.727-.007-.807-.11-1.18-.261-.951-.663-1.624-1.422-2.383-.914-.914-1.959-1.477-3.286-1.771a8.085 8.085 0 0 0-2.697-.124m-.628 2.894c.445.23.643.731.452 1.144-.149.321-.443.5-.824.5-.715 0-1.089-.801-.655-1.401.217-.299.697-.413 1.027-.243m4.403.056c.51.338.538 1.109.052 1.447-.159.111-.202.121-.503.121-.285 0-.35-.013-.473-.098-.293-.201-.481-.639-.396-.922a1.1 1.1 0 0 1 .486-.593.876.876 0 0 1 .834.045" fill-rule="evenodd"/></svg>