<svg viewBox="0 0 24 24" xmlns="http://www.w3.org/2000/svg"><path d="M11.069 2.761C8.874 3.013 6.95 3.929 5.441 5.44c-.438.438-1.161 1.33-1.161 1.432 0 .079 1.148.056 2.808-.057l.387-.026.123.122c.153.154.166.355.032.507-.105.119-.292.161-.9.204-.225.015-.41.033-.41.039 0 .022 3.359 9.991 3.37 10.003.007.006.467-1.355 1.024-3.024l1.011-3.036-.639-1.752c-.352-.964-.677-1.853-.724-1.977l-.084-.225-.366-.028c-.619-.049-.758-.081-.86-.2-.136-.157-.124-.357.031-.511l.122-.122.368.024c1.802.123 2.658.127 4.179.021.515-.036.672-.035.746.005.193.103.241.408.09.583-.104.122-.247.153-.9.199-.226.016-.406.042-.4.058.007.016.758 2.246 1.669 4.955.912 2.709 1.669 4.926 1.682 4.926.013 0 .219-.662.459-1.47.239-.808.497-1.632.571-1.83.176-.466.428-1.343.517-1.8.092-.472.092-1.401.001-1.809-.145-.641-.37-1.162-.823-1.907-.559-.92-.765-1.444-.763-1.94.004-.855.613-1.573 1.388-1.635.297-.024.298-.02-.141-.378-1.255-1.026-2.803-1.709-4.468-1.971-.474-.075-1.867-.11-2.311-.059m9.111 5.705c0 .553-.02.984-.054 1.174-.098.546-.24 1.106-.4 1.566l-1.599 4.613c-.793 2.288-1.435 4.166-1.428 4.174.028.027.687-.418 1.081-.73 3.38-2.682 4.458-7.375 2.589-11.277l-.189-.395v.875M3.367 8.59a9.364 9.364 0 0 0-.588 2.362A9.308 9.308 0 0 0 4.752 17.8a9.79 9.79 0 0 0 2.2 1.993c.417.267.926.543.952.516.027-.027-4.352-12.029-4.389-12.029-.016 0-.083.14-.148.31m8.764 4.33c-.186.478-2.738 7.966-2.721 7.984.04.039.606.173 1.097.26.605.106 1.749.145 2.376.08.825-.085 2.238-.425 2.178-.523-.015-.024-2.647-7.213-2.87-7.841-.016-.044-.032-.034-.06.04" fill-rule="evenodd"/></svg>