<svg viewBox="0 0 24 24" xmlns="http://www.w3.org/2000/svg"><path d="M3.273 3.001a.817.817 0 0 0-.24.208l-.093.131v17.326l.108.141c.227.298-.591.273 8.958.272h8.574l.159-.09a.785.785 0 0 0 .25-.25l.09-.159V3.42l-.09-.159a.785.785 0 0 0-.25-.25l-.159-.09-8.58.001c-8.411.002-8.583.003-8.727.079m9.626 5.7c.668.174 1.245.761 1.382 1.406.026.123.037 1.105.03 2.713l-.011 2.52h-1.6l-.02-2.26c-.019-2.191-.023-2.265-.104-2.44a1.052 1.052 0 0 0-.475-.494c-.157-.084-.208-.086-1.931-.098a73.274 73.274 0 0 0-1.779 0c-.005.007-.019 1.2-.03 2.652l-.021 2.64h-1.6l-.01-3.3c-.006-1.815-.002-3.323.008-3.35.015-.039.647-.05 2.972-.05 2.524 0 2.987.009 3.189.061M17.26 12v3.34h-1.6l-.01-3.351-.01-3.351.81.011.81.011V12m-5.869 1.22c.006 1.078.001 2.001-.011 2.051l-.022.091-.829-.011-.829-.011-.01-2c-.006-1.1-.002-2.023.009-2.051.015-.039.207-.048.85-.04l.831.011.011 1.96" fill-rule="evenodd"/></svg>