<svg viewBox="0 0 24 24" xmlns="http://www.w3.org/2000/svg"><path d="M2.161 5.479C2.08 5.56 2.08 5.592 2.08 12c0 6.387.001 6.441.08 6.52.077.077.133.08 1.574.08 1.468 0 1.495-.001 1.57-.084.074-.082.077-.236.096-4.93l.02-4.846 2.98-.02c1.639-.011 3.097-.007 3.24.009.74.084 1.395.721 1.518 1.474.027.166.042 1.675.042 4.245v3.989l.088.081c.084.079.133.082 1.577.082h1.489l.085-.108.085-.108-.014-4.962c-.014-4.95-.014-4.963-.101-5.291-.294-1.111-.98-1.946-1.975-2.407-.707-.328-.159-.301-6.523-.314-5.642-.012-5.67-.011-5.75.069m16.248-.017-.089.063v6.471c0 6.219.003 6.474.073 6.538.066.059.244.066 1.72.066 1.594 0 1.65-.003 1.727-.08.079-.079.08-.133.08-6.52s-.001-6.441-.08-6.52c-.077-.077-.133-.08-1.711-.08-1.412 0-1.643.008-1.72.062M7.56 10.76c-.079.079-.08.133-.08 3.871 0 3.367.007 3.801.062 3.88l.063.089h1.671c1.569 0 1.676-.005 1.738-.073.06-.067.066-.395.066-3.898v-3.824l-.089-.063c-.077-.054-.308-.062-1.72-.062-1.578 0-1.634.003-1.711.08" fill-rule="evenodd"/></svg>