<svg viewBox="0 0 24 24" xmlns="http://www.w3.org/2000/svg"><path d="M5.06 6.706c1.65 1.64 3.164 3.119 3.365 3.288.79.662 1.686 1.063 2.754 1.233.487.077 1.485.053 1.941-.047a5.707 5.707 0 0 0 2.615-1.327c.179-.16 1.648-1.604 3.265-3.21l2.94-2.92-1.434-.001-1.434-.002-2.426 2.391c-1.392 1.372-2.524 2.455-2.655 2.541-.641.422-1.214.596-1.971.601-.574.003-.848-.047-1.371-.255-.609-.24-.778-.388-3.326-2.908L4.927 3.72l-1.434.002-1.433.002 3 2.982m6.06 6.033a5.71 5.71 0 0 0-2.585 1.128c-.238.189-6.452 6.302-6.488 6.383-.008.017.628.03 1.412.03h1.426l2.417-2.39c2.57-2.541 2.737-2.687 3.347-2.928.505-.201.795-.254 1.371-.252.398.002.595.022.84.087.411.109.888.333 1.214.57.141.103 1.333 1.251 2.648 2.55l2.391 2.363 1.434-.002 1.433-.002-3.06-3.038c-1.683-1.671-3.177-3.135-3.32-3.253a5.683 5.683 0 0 0-2.481-1.204c-.418-.092-1.552-.116-1.999-.042" fill-rule="evenodd"/></svg>