<svg viewBox="0 0 24 24" xmlns="http://www.w3.org/2000/svg"><path d="M1.83 7.95c-.242.009-.349.028-.348.062.001.026.241.523.533 1.104l.531 1.056.149-.266c.417-.746 1.286-1.534 2.023-1.833l.222-.091-.16-.029c-.155-.028-2.246-.03-2.95-.003m1.78 3.76c-2.04 4.102-2.148 4.328-2.098 4.378.018.018.428.029.911.023L3.3 16.1l2.05-4.09L7.4 7.92H5.495L3.61 11.71m4.541-3.754c-.148.024-.146.025.36.284.465.237.544.294.91.66.22.22.524.576.674.79.15.215.289.39.308.39.019 0 .278-.486.576-1.08l.543-1.08-1.611.006c-.886.003-1.678.016-1.76.03M10.94 9.96l-1.02 2.041 1.03 2.049 1.03 2.05.877.011c.483.006.893-.005.911-.023.05-.05-.009-.18-1.019-2.22l-.926-1.872 1.008-2.018c.555-1.11 1.009-2.027 1.009-2.038 0-.011-.423-.02-.94-.02h-.94l-1.02 2.04m3.34-2.02c0 .011.454.928 1.009 2.038l1.009 2.018-.944 1.912c-1.093 2.214-1.056 2.133-.986 2.178.029.018.435.033.902.033l.85.001 1.03-2.06L18.18 12l-1.02-2.04-1.019-2.04h-.931c-.511 0-.93.009-.93.02m4.37 4.07 2.05 4.09.877.011c.483.006.893-.005.911-.023.05-.05-.058-.276-2.098-4.378l-1.885-3.79H16.6l2.05 4.09m.55-4.057-.14.028.23.094c.771.316 1.55 1.056 2.13 2.023.032.053.15-.153.578-1.014.297-.594.525-1.094.509-1.11-.038-.039-3.119-.058-3.307-.021M7.321 9.01c-.067.116-.279.52-.471.898l-.35.689.35.701.35.702-.345.691-.345.69.475.95.476.949.819-1.64.819-1.64-.799-1.6c-.44-.88-.813-1.6-.829-1.6-.016 0-.084.095-.15.21m2.922 5.06c-.489.83-1.154 1.452-1.934 1.81-.214.098-.389.192-.389.209 0 .017.801.031 1.78.031 1.398 0 1.78-.011 1.779-.05 0-.051-1.063-2.23-1.087-2.23-.007 0-.074.104-.149.23m-4.231.2c-.455.691-1.139 1.301-1.819 1.62-.27.127-.34.174-.285.196.088.035 3.492.044 3.492.01 0-.059-1.094-2.176-1.124-2.176-.018 0-.137.157-.264.35m11.192.602a41.021 41.021 0 0 0-.538 1.1l-.062.148h1.798c.989 0 1.798-.016 1.798-.035 0-.019-.105-.073-.234-.119-.292-.107-.862-.462-1.174-.733-.241-.209-.616-.664-.892-1.083-.083-.127-.167-.23-.186-.23-.018 0-.248.428-.51.952" fill-rule="evenodd"/></svg>